<?xml version="1.0" encoding="UTF-8" standalone="no"?>
<svg
   xmlns:dc="http://purl.org/dc/elements/1.1/"
   xmlns:cc="http://creativecommons.org/ns#"
   xmlns:rdf="http://www.w3.org/1999/02/22-rdf-syntax-ns#"
   xmlns:svg="http://www.w3.org/2000/svg"
   xmlns="http://www.w3.org/2000/svg"
   viewBox="0 0 2666.6667 2666.6667"
   height="2666.6667"
   width="2666.6667"
   xml:space="preserve"
   id="svg2"
   version="1.1"><metadata
     id="metadata8"><rdf:RDF><cc:Work
         rdf:about=""><dc:format>image/svg+xml</dc:format><dc:type
           rdf:resource="http://purl.org/dc/dcmitype/StillImage" /></cc:Work></rdf:RDF></metadata><defs
     id="defs6"><clipPath
       id="clipPath322"
       clipPathUnits="userSpaceOnUse"><path
         id="path320"
         d="m 9114.93,12475.5 c -172.24,0 -311.86,139.6 -311.86,311.9 0,172.2 139.62,311.8 311.86,311.8 172.24,0 311.86,-139.6 311.86,-311.8 0,-172.3 -139.62,-311.9 -311.86,-311.9" /></clipPath></defs><g
     transform="matrix(1.3333333,0,0,-1.3333333,0,2666.6667)"
     id="g10"><g
       transform="scale(0.1)"
       id="g12"><g
         transform="scale(1.22699)"
         id="g14"><path
           id="path16"
           style="fill:#ffffff;fill-opacity:1;fill-rule:nonzero;stroke:none"
           d="M 16300,0 H 0 V 16300 H 16300 V 0" /></g><g
         transform="scale(1.22699)"
         id="g18"><path
           id="path20"
           style="fill:#f8d49f;fill-opacity:1;fill-rule:nonzero;stroke:none"
           d="m 2670.62,3085.67 c -2105.685,623.8 -1828.4,2107.59 -1511.55,2864.16 103.28,246.61 259.25,462.59 448.97,641.56 189.47,178.73 275.61,374.58 309.27,549.56 41.97,218.17 5.7,444.58 -98.14,640.99 -485.02,917.44 -394.46,1947.58 -394.46,1947.58 89.26,1951.58 1104.99,2688.28 1744.71,2959.78 216.81,92 446.98,141.4 680.05,153.2 158.86,8.1 306.69,36.7 441.55,77.3 392.21,118 741.64,360.8 1006.63,691 2985.76,3720.1 7340.35,244.9 7340.35,244.9 0,0 1967.1,-1153.9 1311.4,-3496.8 0,0 -655.8,-1188.87 459.1,-2447.7 0,0 2000,-2028.12 196.6,-3951.36 0,0 -1180.3,-1643.45 -3770.5,-1083.95 0,0 -1213.12,454.53 -4131.16,174.82 0,0 -2852.48,-314.76 -4032.82,34.96" /></g><g
         transform="scale(1.11856)"
         id="g22"><path
           id="path24"
           style="fill:#5db9d7;fill-opacity:1;fill-rule:nonzero;stroke:none"
           d="m 11769.3,3856.55 c 0,0 1254.5,2032.16 3825,632.15 0,0 705.7,-401.85 108.3,-579.94 -166.4,-49.62 -331.2,-104.42 -492.6,-168.7 -538.3,-214.29 -1742,-603 -2834.6,-322.29 0,0 -866.4,117.83 -606.1,438.78" /></g><g
         transform="scale(1.1017)"
         id="g26"><path
           id="path28"
           style="fill:#499ab1;fill-opacity:1;fill-rule:nonzero;stroke:none"
           d="m 14356.9,4395.57 c 679.7,0 1305.4,-112.64 1803.7,-301.8 139.4,197.6 -327.6,463.64 -327.6,463.64 -2609.8,1421.44 -3883.6,-641.82 -3883.6,-641.82 -49.1,-60.54 -58.6,-113.92 -41.7,-160.84 527.6,386.31 1427.6,640.82 2449.2,640.82" /></g><g
         transform="scale(1.06677)"
         id="g30"><path
           id="path32"
           style="fill:#4584c5;fill-opacity:1;fill-rule:nonzero;stroke:none"
           d="m 12647.7,4029.46 c 2.7,1.6 201.7,117.09 557.1,239.42 176.9,430.37 521.2,654.31 535.8,663.69 11.1,7.12 25.9,3.84 33,-7.31 7.1,-11.07 3.8,-25.88 -7.2,-32.91 -3.4,-2.15 -324.9,-211.29 -500.8,-602.94 112,36.93 237.9,73.87 376.7,108.08 10.9,2.63 22.2,5.35 33.2,7.97 l 1.2,0.28 c 103.5,24.75 217.4,48.56 341.3,69.93 211.1,416.4 771.2,601.92 795.1,609.7 12.5,4.03 26,-2.82 30.1,-15.38 4.1,-12.56 -2.8,-25.96 -15.3,-30.09 -5.5,-1.78 -535.6,-177.45 -750.3,-554.29 187.1,30.09 395.4,53.99 622.2,65.99 4.5,1.6 9.4,1.88 14,0.75 87.6,4.41 177.9,7.13 270.8,7.69 327.4,293.13 601.4,285.16 613,284.69 13.1,-0.56 23.3,-11.72 22.8,-24.84 -0.5,-13.12 -11.6,-23.44 -24.8,-22.87 -2.5,0.09 -244.3,5.9 -537.8,-236.98 370.2,-2.16 779.9,-37.68 1220.9,-126.46 13,-2.53 21.3,-15.18 18.7,-28.12 -2.6,-12.93 -15.2,-21.28 -28.1,-18.65 -559.3,112.48 -1067.9,139.11 -1508.2,119.98 331.6,-341.87 819.9,-360.52 825,-360.71 13.1,-0.38 23.5,-11.34 23.1,-24.56 -0.4,-13.22 -11.4,-23.53 -24.5,-23.16 -15.4,0.38 -269,9.85 -538.1,143.71 -119.3,59.34 -241.8,143.24 -347.9,261.63 -384.2,-20.62 -714.4,-75.46 -978.3,-136.67 264.9,-364.09 850.2,-453.34 856.3,-454.18 12.9,-1.97 22,-14.06 20.1,-27.09 -1.9,-13.03 -14,-22.12 -27.1,-20.25 -15.9,2.35 -253,38.34 -495.6,158.99 -149.2,74.15 -300.4,180.54 -403.6,330.62 -4.9,-1.22 -9.9,-2.34 -14.8,-3.56 -620.5,-152.52 -980.2,-361.18 -983.8,-363.25 -7.2,-4.21 -15.7,-4.31 -22.7,-0.75 -4,1.97 -7.5,5.06 -9.9,9.28 -6.7,11.35 -2.9,25.97 8.4,32.62" /></g><path
         id="path34"
         style="fill:#4584c5;fill-opacity:1;fill-rule:nonzero;stroke:none"
         d="m 6402.01,4153 c 0,0 420.83,2638.1 -2779.55,3328.6 0,0 -891.4,174.8 -515.25,-412.3 104.8,-163.5 204.39,-330.3 294.22,-502.6 299.7,-574.7 1035.81,-1783 2166.61,-2342.9 0,0 820.09,-532.8 833.97,-70.8" /><path
         id="path36"
         style="fill:#356d9f;fill-opacity:1;fill-rule:nonzero;stroke:none"
         d="m 3622.46,7481.6 c 0,0 -321.41,63 -496.78,-13.8 C 3847.29,7318.3 4607.1,6736.6 5111.44,5863.1 5431.33,5309 5598,4724.7 5618.21,4192.8 c 178.27,-106.7 772,-432.3 783.8,-39.8 0,0 420.83,2638.1 -2779.55,3328.6" /><path
         id="path38"
         style="fill:#5cb9d7;fill-opacity:1;fill-rule:nonzero;stroke:none"
         d="m 6143.93,4355.2 c -1.06,3.1 -81.42,235 -283.43,581.4 156.66,471 34.5,891.6 29.17,909.4 -4.03,13.5 -18.22,21.2 -31.71,17.1 -13.49,-4 -21.15,-18.2 -17.11,-31.7 1.21,-4 115.35,-396.8 -15.21,-835.9 -64.82,107.9 -140.79,225.4 -229.18,349.7 -6.91,9.7 -14.14,19.7 -21.26,29.6 l -0.82,1.1 c -66.37,92 -141.82,190.6 -227.06,294.1 119.44,483.5 -203.99,1023.5 -217.94,1046.4 -7.31,12 -22.98,15.9 -35.01,8.6 -12.02,-7.4 -15.85,-23 -8.54,-35.1 3.21,-5.2 309.17,-516.3 220.28,-970.4 -130.23,154.7 -281.98,319 -456.91,486.7 -2.51,4.4 -6.26,8 -10.76,10.3 -67.69,64.6 -138.81,129.6 -213.53,194.8 -60.37,464.8 -287.35,649.3 -297.04,656.9 -11.01,8.7 -27,6.8 -35.74,-4.1 -8.73,-11.1 -6.89,-27.1 4.09,-35.8 2.11,-1.7 201.53,-165.3 269.51,-566 -300.58,256 -656.36,512.6 -1074.58,748 -12.26,6.9 -27.8,2.6 -34.71,-9.7 -6.9,-12.2 -2.56,-27.8 9.71,-34.7 530.36,-298.6 959.8,-631.2 1302.4,-953.3 -506.14,-45.3 -913.67,279.6 -917.87,283 -10.92,8.9 -26.96,7.2 -35.84,-3.7 -8.86,-10.9 -7.2,-27 3.72,-35.9 12.67,-10.3 224.16,-179.2 534.83,-258.5 137.83,-35.2 295.21,-52.6 463.38,-30.8 296.19,-284.3 524.79,-558.5 695.34,-791.7 -467.56,-109.8 -1002.67,225.7 -1008.16,229.2 -11.83,7.5 -27.61,4 -35.17,-7.9 -7.56,-11.8 -4.06,-27.6 7.81,-35.1 14.53,-9.3 231.15,-145.2 511.18,-216.7 172.26,-44 368.53,-63.3 556.45,-13.9 3.11,-4.4 6.36,-8.8 9.42,-13.1 395.3,-555.4 540.63,-974.5 542.05,-978.7 2.89,-8.5 9.78,-14.4 17.84,-16.5 4.63,-1.2 9.64,-1.1 14.5,0.6 13.32,4.5 20.44,19 15.9,32.3" /><g
         transform="scale(1.06079)"
         id="g40"><path
           id="path42"
           style="fill:#4584c5;fill-opacity:1;fill-rule:nonzero;stroke:none"
           d="m 13639.5,3688.66 c -65.8,-186.37 -148.5,-296.38 -148.5,-296.38 146.9,99.92 244.3,220.12 304.3,313.44 298.5,22.34 622.5,-13.19 958.7,-144.42 -109.7,-197.39 -231.3,-304.2 -231.3,-304.2 166,68.72 286.5,167.98 364.1,247.55 189.2,-87.58 381.6,-206.45 575.1,-363.5 -134.9,-117.65 -245.7,-169.22 -245.7,-169.22 133.2,14.24 246.9,51.94 336.3,92.86 249.8,-218.14 500.6,-501.14 747.5,-863.42 0,0 -224.4,-80.78 -635.1,-113.49 -77.2,81.54 -205.1,190.79 -386.1,263.39 0,0 110.8,-95.31 217.9,-273.29 -174.9,-6.98 -376.4,-4.34 -602.4,14.8 -53.1,97.57 -142,225.3 -282.6,335.97 0,0 78.8,-121.51 131.3,-320.89 -245.1,27.81 -515.9,75.13 -810.1,150.08 -51.4,99.92 -143,239.25 -294.8,358.79 0,0 77.1,-118.88 129.6,-314.49 -485.6,136.98 -1030.4,348.61 -1624.6,668.28 0,0 621,592.48 1496.4,718.14" /></g><g
         transform="scale(1.06079)"
         id="g44"><path
           id="path46"
           style="fill:#356d9f;fill-opacity:1;fill-rule:nonzero;stroke:none"
           d="m 13348.4,3071.2 c 1265.2,0 2364.9,-355.68 2924.3,-878.69 18,5.47 27.3,8.86 27.3,8.86 -246.9,362.28 -497.7,645.28 -747.5,863.42 -89.4,-40.92 -203.1,-78.62 -336.3,-92.86 0,0 110.8,51.57 245.7,169.22 -193.5,157.05 -385.9,275.92 -575.1,363.5 -77.6,-79.66 -198.1,-178.83 -364.1,-247.55 0,0 121.6,106.71 231.3,304.2 -336.2,131.23 -660.2,166.76 -958.7,144.42 -60,-93.32 -157.4,-213.52 -304.3,-313.44 0,0 82.7,110.01 148.5,296.38 -875.4,-125.66 -1496.4,-718.14 -1496.4,-718.14 5.8,-3.21 11.6,-6.22 17.4,-9.34 368.8,71.09 769.3,110.02 1187.9,110.02" /></g><g
         transform="scale(1.01863)"
         id="g48"><path
           id="path50"
           style="fill:#5db9d7;fill-opacity:1;fill-rule:nonzero;stroke:none"
           d="m 12883.1,3171.13 c 0,0 1415.1,273.51 3416.9,-573.81 0,0 -1640,1053.68 -3416.9,573.81" /></g><g
         transform="scale(1.04059)"
         id="g52"><path
           id="path54"
           style="fill:#4584c5;fill-opacity:1;fill-rule:nonzero;stroke:none"
           d="m 13569.5,5715.7 c 124.9,-158.08 174.5,-289.35 174.5,-289.35 -6,181.05 -56.6,330.39 -104.3,432.93 143.3,269.46 350.3,529.32 646.4,747.55 110.5,-202.09 136.3,-364.88 136.3,-364.88 31.2,180.47 11.3,338.36 -15.1,448.59 178.5,115.32 385.8,216.41 626.3,297.62 28.1,-180.19 12.1,-303.87 12.1,-303.87 60.3,122.53 89.7,241.02 103.1,340.39 324.1,96.58 704.5,158.66 1151.2,174.13 0,0 -52.6,-237.37 -248,-609.18 -112.4,-22.1 -276.2,-72.84 -437.3,-189.31 0,0 142.5,43.63 354.2,39.01 -89.2,-154.62 -201.2,-326.83 -340.7,-511.05 -113,7.3 -271.5,0.19 -443.4,-60.64 0,0 147.6,1.63 348,-61.6 -157.4,-196.14 -345.7,-403.71 -570.5,-616.48 -114.1,10.09 -284.1,7.11 -469.7,-58.62 0,0 144.5,1.63 341.7,-59.58 -382.6,-344.04 -861.6,-698.16 -1460.6,-1036.34 0,0 -172.4,857.88 195.8,1680.68" /></g><g
         transform="scale(1.03333)"
         id="g56"><path
           id="path58"
           style="fill:#356d9f;fill-opacity:1;fill-rule:nonzero;stroke:none"
           d="m 15089.7,6529.6 c 386,306.29 796.8,544.75 1210.3,714.59 -400.6,-21.58 -746.5,-81.29 -1044.7,-170.13 -13.5,-100.07 -43.1,-219.39 -103.8,-342.78 0,0 16,124.55 -12.2,306 -242.2,-81.77 -451,-183.58 -630.7,-299.71 26.5,-111 46.6,-270 15.2,-451.74 0,0 -26,163.93 -137.2,367.45 -298.3,-219.77 -506.7,-481.46 -651,-752.81 48.1,-103.26 99,-253.65 105.1,-435.97 0,0 -50.1,132.19 -175.8,291.38 -340,-759.48 -222.4,-1548.49 -200.4,-1674.78 183.6,855.01 749.3,1753.46 1625.2,2448.5" /></g><g
         transform="scale(1.00196)"
         id="g60"><path
           id="path62"
           style="fill:#5db9d7;fill-opacity:1;fill-rule:nonzero;stroke:none"
           d="m 13951.5,4436.92 c 0,0 533.3,1364.63 2348.5,2624.96 0,0 -1796.1,-837.26 -2348.5,-2624.96" /></g><path
         id="path64"
         style="fill:#4584c5;fill-opacity:1;fill-rule:nonzero;stroke:none"
         d="m 5585.37,3819.7 c 43.46,-205.1 115.43,-332.2 115.43,-332.2 -140.89,125.3 -226.71,265.1 -276.95,371.6 -310.95,64.6 -656.59,71.9 -1028.23,-19.8 88.21,-222.8 201.28,-351.9 201.28,-351.9 -165.12,95.1 -278.18,216.2 -348.84,310.6 -211.05,-66.1 -429.82,-164.6 -654.86,-303.1 125.53,-142.3 235.08,-211.8 235.08,-211.8 -138.15,33.3 -252.53,88.6 -340.99,143.9 -292.79,-195 -595.58,-458.1 -905.17,-805.2 0,0 224.89,-115.9 652.38,-206.8 92.43,75.2 242.03,172.4 442.44,223.8 0,0 -129.75,-84.9 -266.93,-257.4 183.12,-31.4 395.37,-56.4 635.63,-67.4 69.36,95.3 180.43,217.4 343.53,314.5 0,0 -99.59,-117.1 -182.33,-319.5 261.65,-4.5 553.07,8 872.89,46.3 67.74,97.9 183.28,231.9 359.41,336.8 0,0 -97.49,-114.5 -179.7,-313 529.75,77.2 1131.89,224.8 1800.93,479.1 0,0 -571.62,708.7 -1475,961.5" /><path
         id="path66"
         style="fill:#356d9f;fill-opacity:1;fill-rule:nonzero;stroke:none"
         d="m 5361.08,3257.9 c 525.71,0 1025.62,-60.3 1477.9,-168.8 -245.56,230 -683.48,571.1 -1253.61,730.6 43.46,-205.1 115.43,-332.2 115.43,-332.2 -140.89,125.3 -226.71,265.1 -276.95,371.6 -310.95,64.6 -656.59,71.9 -1028.23,-19.8 88.21,-222.8 201.28,-351.9 201.28,-351.9 -165.12,95.1 -278.18,216.1 -348.84,310.6 -211.05,-66.1 -429.82,-164.6 -654.86,-303.1 125.53,-142.3 235.08,-211.8 235.08,-211.8 -138.15,33.3 -252.53,88.6 -340.99,143.9 -292.79,-195 -595.58,-458.1 -905.17,-805.2 0,0 17.83,-9.1 52.99,-24.4 672.75,405.7 1644.86,660.5 2725.97,660.5" /><path
         id="path68"
         style="fill:#5db9d7;fill-opacity:1;fill-rule:nonzero;stroke:none"
         d="m 6830.87,2968.1 c 0,0 -1392.98,463.4 -3526.88,-127.6 0,0 1795.64,847.3 3526.88,127.6" /><path
         id="path70"
         style="fill:#5db9d7;fill-opacity:1;fill-rule:nonzero;stroke:none"
         d="m 5525.26,4580.6 c -82.4,-192.8 -96.6,-338.1 -96.6,-338.1 -43.19,183.5 -33,347.2 -12.9,463.2 -217.21,231.7 -495.77,436.5 -852.54,575.2 -55.98,-233.1 -37.7,-403.6 -37.7,-403.6 -80.38,172.7 -103.28,336.7 -106.76,454.7 -210.65,67.3 -446.32,112.5 -710.07,128.6 20.87,-188.6 70.5,-308.5 70.5,-308.5 -93.85,106.7 -155.6,217.7 -196.17,313.9 -351.66,8.8 -750.67,-32.3 -1203.55,-138.2 0,0 117.32,-224.1 414.75,-544.4 118.82,8.4 297.16,1.9 490.67,-71.3 0,0 -155.01,5.1 -366.44,-57.1 131.77,-131 291,-273.5 481.27,-420.6 111.55,38 272.6,74 461.86,59.6 0,0 -148.76,-38.4 -332.88,-156.5 211.44,-154.2 457.06,-311.5 740.72,-464.1 111.75,41.2 283.32,84.3 487.7,68.8 0,0 -145.59,-37.6 -327,-152.7 477.76,-241.5 1055.25,-467 1748.83,-643.8 0,0 -60.04,908.6 -653.69,1634.9" /><path
         id="path72"
         style="fill:#499ab1;fill-opacity:1;fill-rule:nonzero;stroke:none"
         d="m 4797.84,4170.9 c 550.21,-393.7 1021.88,-816.3 1380.64,-1219 -6.51,80.5 -88.03,937.2 -653.22,1628.7 -82.4,-192.8 -96.6,-338.1 -96.6,-338.1 -43.19,183.5 -33,347.2 -12.9,463.2 -217.21,231.7 -495.77,436.5 -852.54,575.2 -55.98,-233.1 -37.7,-403.6 -37.7,-403.6 -80.38,172.7 -103.28,336.7 -106.76,454.7 -210.65,67.3 -446.32,112.5 -710.07,128.6 20.87,-188.6 70.5,-308.5 70.5,-308.5 -93.85,106.7 -155.6,217.7 -196.17,313.9 -339.27,8.5 -722.77,-29.6 -1156.04,-127.4 650.5,-143.1 1513.04,-553.8 2370.86,-1167.7" /><path
         id="path74"
         style="fill:#4385b7;fill-opacity:1;fill-rule:nonzero;stroke:none"
         d="m 6054.4,3167.6 c 0,0 -873.05,1180.2 -2958.66,1923.9 0,0 1956.27,-339.5 2958.66,-1923.9" /><path
         id="path76"
         style="fill:#434244;fill-opacity:1;fill-rule:nonzero;stroke:none"
         d="M 12777.4,4169.8 10042.2,5240.1 7307.03,4169.8 c 0,0 -1064.39,-370.6 -1755.91,-115.8 V 1931.3 c 0,-218.3 176.95,-395.2 395.24,-395.2 h 8103.14 c 218.3,0 395.3,176.9 395.3,395.2 v 2094 c -690.1,-195.7 -1667.4,144.5 -1667.4,144.5" /><path
         id="path78"
         style="fill:#d8d7d5;fill-opacity:1;fill-rule:nonzero;stroke:none"
         d="M 10540,1991.4 H 9455.9 c -196.44,0 -355.69,159.3 -355.69,355.7 v 13.7 c 0,196.5 159.25,355.7 355.69,355.7 H 10540 c 196.4,0 355.7,-159.2 355.7,-355.7 v -13.7 c 0,-196.4 -159.3,-355.7 -355.7,-355.7" /><g
         transform="scale(1.06687)"
         id="g80"><path
           id="path82"
           style="fill:#434244;fill-opacity:1;fill-rule:nonzero;stroke:none"
           d="M 13247.2,16300 H 5495.29 c -161.33,0 -292.11,-130.8 -292.11,-292.1 V 6631.82 l 623.57,2330.74 c 0,0 76.44,372.59 544.58,592.33 L 8095.49,10257 c -211.68,-235.2 -603.5,-761.43 -864.3,-1657.55 l 267.52,-229.27 -267.52,-95.52 c 0,0 9.55,-945.84 429.93,-1891.7 h 343.94 c 0.07,1.22 0.13,2.35 0.2,3.57 40.48,-0.57 81.76,-1.79 124.01,-3.57 l 2015.93,28.31 c 0,0 267.5,-582.45 0,-1212.99 3.4,7.97 6.6,15.94 9.8,23.91 l 273.1,106.76 c 19.2,45.36 35.1,90.45 48.3,134.97 0.4,-0.18 207.6,-93.54 434.9,78.27 l 441.8,330.5 c 28.8,21.46 61.9,36.36 96.9,43.58 l 223.8,46.31 -286.7,318.5 c 0,0 -91.6,76.01 -207.7,136.19 405.6,934.32 415,1857.39 415,1857.39 l -267.5,95.52 267.5,229.27 c -260.9,896.12 -652.7,1422.35 -864.3,1657.55 l 1724.1,-702.11 c 468.2,-219.74 544.6,-592.33 544.6,-592.33 l 540.6,-2020.67 v 9066.01 c 0,161.3 -130.8,292.1 -292.2,292.1" /></g><g
         transform="scale(1.03722)"
         id="g84"><path
           id="path86"
           style="fill:#b1e5e8;fill-opacity:1;fill-rule:nonzero;stroke:none"
           d="m 13395.7,16300 h -2456.2 v -180.9 c 0,-89.2 -72.4,-161.6 -161.6,-161.6 H 8500.55 c -89.28,0 -161.64,72.4 -161.64,161.6 V 16300 H 5882.64 c -87.21,0 -157.9,-70.7 -157.9,-157.9 V 8214.86 l 268.59,1003.93 c 0,0 78.63,383.24 560.15,609.26 l 1773.45,722.15 c -217.73,-241.9 -620.75,-783.16 -889,-1704.9 l 275.16,-235.82 -275.16,-98.25 c 0,0 9.82,-972.89 442.22,-1945.78 h 353.77 c 0.07,1.25 0.14,2.41 0.2,3.66 41.64,-0.58 84.11,-1.83 127.55,-3.66 l 2073.53,29.11 c 0,0 275.2,-599.1 0,-1247.66 3.5,8.19 6.9,16.39 10.1,24.59 l 280.9,109.81 c 19.8,46.66 36.1,93.04 49.7,138.83 0.4,-0.19 213.5,-96.22 447.3,80.5 l 454.5,339.95 c 29.6,22.08 63.6,37.41 99.7,44.83 l 230.1,47.63 -294.8,327.61 c 0,0 -94.3,78.19 -213.7,140.09 417.2,961.03 426.8,1910.49 426.8,1910.49 l -275.1,98.25 275.1,235.82 c -268.3,921.74 -671.3,1463 -889,1704.9 l 1773.4,-722.15 c 481.6,-226.02 560.2,-609.26 560.2,-609.26 l 183.3,-685 v 7608.31 c 0,87.2 -70.7,157.9 -158,157.9" /></g><g
         transform="scale(1.04936)"
         id="g88"><path
           id="path90"
           style="fill:#d8d7d5;fill-opacity:1;fill-rule:nonzero;stroke:none"
           d="M 10350,16008.6 H 8705.29 c -78.94,0 -142.95,64 -142.95,142.9 v 5.6 c 0,78.9 64.01,142.9 142.95,142.9 H 10350 c 78.9,0 142.9,-64 142.9,-142.9 v -5.6 c 0,-78.9 -64,-142.9 -142.9,-142.9" /></g><path
         id="path92"
         style="fill:#ffffff;fill-opacity:1;fill-rule:nonzero;stroke:none"
         d="m 13266.2,11891.4 h -369 v 369 h -225.4 v -369 h -369 v -225.3 h 369 v -369 h 225.4 v 369 h 369 v 225.3" /><path
         id="path94"
         style="fill:#ffffff;fill-opacity:1;fill-rule:nonzero;stroke:none"
         d="m 16055.1,8508.5 h -369 v 369 h -225.3 v -369 h -369 v -225.3 h 369 v -369 h 225.3 v 369 h 369 v 225.3" /><path
         id="path96"
         style="fill:#f1465c;fill-opacity:1;fill-rule:nonzero;stroke:none"
         d="m 15129.7,15476.8 c 0,390.9 -316.8,707.7 -707.7,707.7 -353.6,0 -646.5,-259.5 -699,-598.4 -1.4,-9.1 -14.5,-9.1 -15.9,0 -52.5,338.9 -345.4,598.4 -699,598.4 -390.9,0 -707.7,-316.8 -707.7,-707.7 0,0 -92.8,-1140.1 1299.3,-1696.9 l 52.7,-18.4 c 44.6,-15.6 93.3,-14.7 137.3,2.5 l 40.7,15.9 c 1392.1,556.8 1299.3,1696.9 1299.3,1696.9" /><path
         id="path98"
         style="fill:#e52b69;fill-opacity:1;fill-rule:nonzero;stroke:none"
         d="m 15129.7,15476.8 c 0,236.4 -116,445.6 -294.1,574.1 -111.6,-975.3 -829.4,-1766.3 -1767.4,-1986.7 147.3,-104 322.6,-200.7 531.5,-284.3 l 52.7,-18.4 c 44.6,-15.6 93.3,-14.7 137.3,2.5 l 40.7,15.9 c 1392.1,556.8 1299.3,1696.9 1299.3,1696.9" /><path
         id="path100"
         style="fill:#f68395;fill-opacity:1;fill-rule:nonzero;stroke:none"
         d="m 12634.2,15592.6 c -21.1,0 -40.3,5.5 -56.1,17.1 -63.4,46.6 -49,173.9 32.1,284.4 60.9,83 142.2,132.8 205.7,132.8 21.1,0 40.3,-5.4 56.1,-17 63.4,-46.6 49,-174 -32.1,-284.5 -60.9,-82.9 -142.2,-132.8 -205.7,-132.8" /><path
         id="path102"
         style="fill:#f68395;fill-opacity:1;fill-rule:nonzero;stroke:none"
         d="m 12492.9,15419.2 c -47.8,0 -86.6,38.9 -86.6,86.7 0,47.9 38.8,86.7 86.6,86.7 47.9,0 86.7,-38.8 86.7,-86.7 0,-47.8 -38.8,-86.7 -86.7,-86.7" /><path
         id="path104"
         style="fill:#ffffff;fill-opacity:1;fill-rule:nonzero;stroke:none"
         d="m 14259.4,14947 h -417 v 417 h -254.7 v -417 h -417 v -254.7 h 417 v -417 h 254.7 v 417 h 417 v 254.7" /><path
         id="path106"
         style="fill:#f1465c;fill-opacity:1;fill-rule:nonzero;stroke:none"
         d="m 5100.09,10386.5 c 0,390.8 -316.82,707.6 -707.64,707.6 -353.64,0 -646.53,-259.5 -699.05,-598.4 -1.41,-9.1 -14.47,-9.1 -15.88,0 -52.52,338.9 -345.41,598.4 -699.06,598.4 -390.81,0 -707.63,-316.8 -707.63,-707.6 0,0 -92.81,-1140.1 1299.26,-1697 l 52.68,-18.4 c 44.61,-15.5 93.32,-14.7 137.34,2.5 l 40.71,15.9 c 1392.08,556.9 1299.27,1697 1299.27,1697" /><path
         id="path108"
         style="fill:#e52b69;fill-opacity:1;fill-rule:nonzero;stroke:none"
         d="m 5100.09,10386.5 c 0,236.4 -116.03,445.5 -294.12,574 -111.55,-975.3 -829.41,-1766.3 -1767.4,-1986.6 147.36,-104 322.61,-200.8 531.53,-284.4 l 52.67,-18.4 c 44.61,-15.5 93.32,-14.7 137.34,2.5 l 40.71,15.9 c 1392.08,556.9 1299.27,1697 1299.27,1697" /><path
         id="path110"
         style="fill:#ffffff;fill-opacity:1;fill-rule:nonzero;stroke:none"
         d="m 3580.02,9415.9 -1.92,0.1 c -24.05,0.9 -44.03,18.8 -47.56,42.6 l -61.88,417.1 -100.01,-421.3 c -5.35,-22.5 -25.49,-38.5 -48.65,-38.5 h -143.75 c -23.46,0 -43.77,16.4 -48.83,39.3 l -137.81,623.8 -170.09,-626.2 c -5.92,-21.7 -25.69,-36.9 -48.26,-36.9 H 1991.3 c -27.61,0 -50,22.4 -50,50 0,27.7 22.39,50 50,50 h 741.73 l 213.33,785.4 c 6.03,22.2 26.28,37.5 49.45,36.9 23,-0.6 42.66,-16.7 47.63,-39.2 l 172.97,-783.1 h 64.07 l 150.87,635.7 c 5.54,23.3 26.82,39.3 50.79,38.4 23.95,-1.1 43.8,-18.9 47.32,-42.7 l 60.87,-410.3 46.37,204.1 c 5.18,22.7 25.42,38.9 48.76,38.9 h 0.05 c 23.36,0 43.59,-16.2 48.73,-39 l 95.75,-425.1 h 79.73 l 170.64,783 c 5.06,23.2 25.98,39.9 49.59,39.3 23.78,-0.3 44.02,-17.4 48.41,-40.8 l 146.47,-781.5 h 35.66 l 171.32,721.3 c 5.48,23 26.33,39.2 50.02,38.4 23.67,-0.6 43.63,-17.8 47.83,-41.1 l 129.56,-718.6 H 5310 c 27.61,0 50,-22.3 50,-50 0,-27.6 -22.39,-50 -50,-50 h -592.57 c -24.19,0 -44.91,17.4 -49.21,41.2 l -94.47,524 -125.1,-526.7 c -5.36,-22.5 -25.49,-38.5 -48.65,-38.5 h -116.67 c -24.06,0 -44.71,17.2 -49.14,40.8 l -108.67,579.8 -126.67,-581.2 c -5,-23 -25.34,-39.4 -48.85,-39.4 h -160 c -23.38,0 -43.64,16.2 -48.78,39.1 l -55.98,248.4 -56.49,-248.5 c -5.18,-22.9 -25.48,-39 -48.73,-39" /><path
         id="path112"
         style="fill:#f68395;fill-opacity:1;fill-rule:nonzero;stroke:none"
         d="m 2604.58,10502.2 c -21.1,0 -40.24,5.5 -56.05,17.1 -63.43,46.6 -49.07,173.9 32.07,284.4 60.92,83 142.17,132.9 205.73,132.9 21.1,0 40.24,-5.5 56.05,-17.1 63.43,-46.6 49.07,-173.9 -32.07,-284.4 -60.92,-83 -142.17,-132.9 -205.73,-132.9" /><path
         id="path114"
         style="fill:#f68395;fill-opacity:1;fill-rule:nonzero;stroke:none"
         d="m 2463.33,10328.9 c -47.86,0 -86.67,38.8 -86.67,86.6 0,47.9 38.81,86.7 86.67,86.7 47.87,0 86.67,-38.8 86.67,-86.7 0,-47.8 -38.8,-86.6 -86.67,-86.6" /><g
         transform="scale(1.02891)"
         id="g116"><path
           id="path118"
           style="fill:#f1465c;fill-opacity:1;fill-rule:nonzero;stroke:none"
           d="m 16255.7,13817.3 c 0,186.8 -151.5,338.3 -338.3,338.3 -169.1,0 -309,-124.1 -334.2,-286.1 -0.7,-4.3 -6.9,-4.3 -7.6,0 -25,162 -165.1,286.1 -334.1,286.1 -186.8,0 -338.2,-151.5 -338.2,-338.3 0,0 -44.4,-544.9 621,-811.1 l 25.2,-8.8 c 21.3,-7.4 44.6,-7 65.6,1.2 l 19.5,7.6 c 665.4,266.2 621.1,811.1 621.1,811.1" /></g><g
         transform="scale(1.02891)"
         id="g120"><path
           id="path122"
           style="fill:#e52b69;fill-opacity:1;fill-rule:nonzero;stroke:none"
           d="m 16255.7,13817.3 c 0,113 -55.5,213 -140.6,274.4 -53.4,-466.2 -396.5,-844.3 -844.8,-949.6 70.3,-49.7 154.1,-96 254,-135.9 l 25.2,-8.8 c 21.3,-7.4 44.6,-7 65.6,1.2 l 19.5,7.6 c 665.4,266.2 621.1,811.1 621.1,811.1" /></g><path
         id="path124"
         style="fill:#f68395;fill-opacity:1;fill-rule:nonzero;stroke:none"
         d="m 15498.2,14273.7 c -10.3,0 -19.8,2.7 -27.5,8.4 -31.2,22.9 -24.2,85.5 15.7,139.9 30,40.8 70,65.3 101.2,65.3 10.4,0 19.8,-2.7 27.6,-8.4 31.2,-22.9 24.1,-85.5 -15.8,-139.9 -30,-40.8 -69.9,-65.3 -101.2,-65.3" /><path
         id="path126"
         style="fill:#f68395;fill-opacity:1;fill-rule:nonzero;stroke:none"
         d="m 15428.8,14188.4 c -23.6,0 -42.7,19.1 -42.7,42.7 0,23.5 19.1,42.6 42.7,42.6 23.5,0 42.6,-19.1 42.6,-42.6 0,-23.6 -19.1,-42.7 -42.6,-42.7" /><g
         transform="scale(1.05692)"
         id="g128"><path
           id="path130"
           style="fill:#f1465c;fill-opacity:1;fill-rule:nonzero;stroke:none"
           d="m 15306.3,16064 c 0,130.3 -105.7,236 -236,236 -117.9,0 -215.6,-86.5 -233.1,-199.5 -0.5,-3.1 -4.8,-3.1 -5.3,0 -17.5,113 -115.1,199.5 -233.1,199.5 -130.3,0 -236,-105.7 -236,-236 0,0 -30.9,-380.2 433.3,-565.8 l 17.6,-6.2 c 14.8,-5.2 31.1,-4.9 45.7,0.9 l 13.7,5.3 c 464.2,185.6 433.2,565.8 433.2,565.8" /></g><g
         transform="scale(1.05403)"
         id="g132"><path
           id="path134"
           style="fill:#e52b69;fill-opacity:1;fill-rule:nonzero;stroke:none"
           d="m 15348.3,16108 c 0,79.1 -38.8,149 -98.4,192 -37.3,-326.1 -277.3,-590.6 -591,-664.3 49.3,-34.8 107.9,-67.1 177.7,-95.1 l 17.7,-6.1 c 14.8,-5.2 31.2,-4.9 45.9,0.8 l 13.6,5.3 c 465.5,186.2 434.5,567.4 434.5,567.4" /></g><g
         transform="scale(1.05351)"
         id="g136"><path
           id="path138"
           style="fill:#f68395;fill-opacity:1;fill-rule:nonzero;stroke:none"
           d="m 14521,16154.7 c -7.1,0 -13.5,1.8 -18.8,5.7 -21.2,15.6 -16.4,58.2 10.7,95.2 20.4,27.7 47.6,44.4 68.8,44.4 7.1,0 13.5,-1.8 18.8,-5.7 21.2,-15.6 16.4,-58.2 -10.7,-95.2 -20.4,-27.7 -47.6,-44.4 -68.8,-44.4" /></g><g
         transform="scale(1.04412)"
         id="g140"><path
           id="path142"
           style="fill:#f68395;fill-opacity:1;fill-rule:nonzero;stroke:none"
           d="m 14603.9,16241.5 c -16.2,0 -29.3,13.1 -29.3,29.3 0,16.1 13.1,29.2 29.3,29.2 16.2,0 29.2,-13.1 29.2,-29.2 0,-16.2 -13,-29.3 -29.2,-29.3" /></g><g
         transform="scale(1.09457)"
         id="g144"><path
           id="path146"
           style="fill:#f1465c;fill-opacity:1;fill-rule:nonzero;stroke:none"
           d="m 3973.95,15984.4 c 0,174.3 -141.28,315.6 -315.55,315.6 -157.7,0 -288.31,-115.7 -311.73,-266.8 -0.63,-4.1 -6.46,-4.1 -7.09,0 -23.41,151.1 -154.02,266.8 -311.72,266.8 -174.27,0 -315.55,-141.3 -315.55,-315.6 0,0 -41.39,-508.4 579.37,-756.7 l 23.5,-8.2 c 19.89,-6.9 41.6,-6.5 61.23,1.2 l 18.16,7 c 620.76,248.3 579.38,756.7 579.38,756.7" /></g><g
         transform="scale(1.09057)"
         id="g148"><path
           id="path150"
           style="fill:#e52b69;fill-opacity:1;fill-rule:nonzero;stroke:none"
           d="m 3988.52,16043.1 c 0,105.8 -51.93,199.4 -131.64,256.9 -49.92,-436.5 -371.21,-790.6 -791.01,-889.2 65.95,-46.5 144.38,-89.8 237.88,-127.2 l 23.58,-8.2 c 19.97,-7 41.76,-6.6 61.46,1.1 l 18.23,7.1 c 623.03,249.2 581.5,759.5 581.5,759.5" /></g><g
         transform="scale(1.08985)"
         id="g152"><path
           id="path154"
           style="fill:#f68395;fill-opacity:1;fill-rule:nonzero;stroke:none"
           d="m 2873.53,16105.5 c -9.45,0 -18.03,2.4 -25.12,7.6 -28.4,20.9 -21.97,77.9 14.37,127.4 27.28,37.1 63.67,59.5 92.14,59.5 9.45,0 18.02,-2.5 25.1,-7.7 28.41,-20.8 21.97,-77.9 -14.36,-127.3 -27.29,-37.2 -63.67,-59.5 -92.13,-59.5" /></g><g
         transform="scale(1.07684)"
         id="g156"><path
           id="path158"
           style="fill:#f68395;fill-opacity:1;fill-rule:nonzero;stroke:none"
           d="m 2844.21,16221.4 c -21.7,0 -39.28,17.6 -39.28,39.3 0,21.7 17.58,39.3 39.28,39.3 21.69,0 39.28,-17.6 39.28,-39.3 0,-21.7 -17.59,-39.3 -39.28,-39.3" /></g><g
         transform="scale(1.14408)"
         id="g160"><path
           id="path162"
           style="fill:#f1465c;fill-opacity:1;fill-rule:nonzero;stroke:none"
           d="m 4806.03,16083.2 c 0,119.7 -97.06,216.8 -216.78,216.8 -108.33,0 -198.05,-79.5 -214.14,-183.3 -0.44,-2.8 -4.44,-2.8 -4.87,0 -16.09,103.8 -105.81,183.3 -214.14,183.3 -119.72,0 -216.78,-97.1 -216.78,-216.8 0,0 -28.43,-349.2 398.01,-519.8 l 16.14,-5.6 c 13.67,-4.8 28.59,-4.6 42.07,0.7 l 12.47,4.9 c 426.45,170.6 398.02,519.8 398.02,519.8" /></g><g
         transform="scale(1.14121)"
         id="g164"><path
           id="path166"
           style="fill:#e52b69;fill-opacity:1;fill-rule:nonzero;stroke:none"
           d="m 4818.12,16123.7 c 0,72.6 -35.63,136.8 -90.32,176.3 -34.26,-299.5 -254.72,-542.5 -542.78,-610.1 45.25,-32 99.07,-61.7 163.23,-87.3 l 16.18,-5.7 c 13.7,-4.8 28.66,-4.5 42.17,0.8 l 12.5,4.9 c 427.53,171 399.02,521.1 399.02,521.1" /></g><g
         transform="scale(1.14069)"
         id="g168"><path
           id="path170"
           style="fill:#f68395;fill-opacity:1;fill-rule:nonzero;stroke:none"
           d="m 4053.56,16166.5 c -6.48,0 -12.36,1.7 -17.22,5.3 -19.48,14.3 -15.08,53.4 9.86,87.4 18.71,25.5 43.68,40.8 63.2,40.8 6.49,0 12.38,-1.7 17.23,-5.3 19.48,-14.3 15.07,-53.4 -9.86,-87.3 -18.72,-25.5 -43.68,-40.9 -63.21,-40.9" /></g><g
         transform="scale(1.13135)"
         id="g172"><path
           id="path174"
           style="fill:#f68395;fill-opacity:1;fill-rule:nonzero;stroke:none"
           d="m 4043.27,16246.3 c -14.83,0 -26.85,12 -26.85,26.8 0,14.9 12.02,26.9 26.85,26.9 14.82,0 26.84,-12 26.84,-26.9 0,-14.8 -12.02,-26.8 -26.84,-26.8" /></g><g
         transform="scale(1.07171)"
         id="g176"><path
           id="path178"
           style="fill:#9f505b;fill-opacity:1;fill-rule:nonzero;stroke:none"
           d="m 16201,8930.25 h -1937.8 c -54.6,0 -99,44.32 -99,98.91 V 11678 c 0,54.6 44.4,98.9 99,98.9 H 16201 c 54.7,0 99,-44.3 99,-98.9 V 9029.16 c 0,-54.59 -44.3,-98.91 -99,-98.91" /></g><g
         transform="scale(1.07171)"
         id="g180"><path
           id="path182"
           style="fill:#8e353d;fill-opacity:1;fill-rule:nonzero;stroke:none"
           d="m 14164.2,9178.55 v -149.39 c 0,-54.59 44.4,-98.91 99,-98.91 H 16201 c 54.7,0 99,44.32 99,98.91 V 10623.7 C 15933.4,9796.59 15119,9212.32 14164.2,9178.55" /></g><g
         transform="scale(1.05907)"
         id="g184"><path
           id="path186"
           style="fill:#ffffff;fill-opacity:1;fill-rule:nonzero;stroke:none"
           d="M 16300,9326.17 H 14531.7 V 11567.8 H 16300 V 9326.17" /></g><g
         transform="scale(1.02812)"
         id="g188"><path
           id="path190"
           style="fill:#e5623d;fill-opacity:1;fill-rule:nonzero;stroke:none"
           d="m 16115.4,12378.7 c -7.2,0 -13.5,5.2 -14.6,12.3 -16.2,105.3 -107.3,186 -217.2,186 -109.9,0 -200.9,-80.7 -217.1,-186 -1.2,-7.1 -7.5,-12.3 -14.7,-12.3 h -169.7 c -8.2,0 -14.9,-6.6 -14.9,-14.8 v -254.5 c 0,-8.2 6.7,-14.9 14.9,-14.9 h 803 c 8.3,0 14.9,6.7 14.9,14.9 v 254.5 c 0,8.2 -6.6,14.8 -14.9,14.8 h -169.7" /></g><g
         transform="scale(1.04709)"
         id="g192"><path
           id="path194"
           style="fill:#434244;fill-opacity:1;fill-rule:nonzero;stroke:none"
           d="m 16265,11375.7 h -1364.2 c -19.3,0 -35,15.7 -35,35 v 1.4 c 0,19.3 15.7,35 35,35 H 16265 c 19.3,0 35,-15.7 35,-35 v -1.4 c 0,-19.3 -15.7,-35 -35,-35" /></g><g
         transform="scale(1.04709)"
         id="g196"><path
           id="path198"
           style="fill:#434244;fill-opacity:1;fill-rule:nonzero;stroke:none"
           d="m 16265,11181 h -1364.2 c -19.3,0 -35,15.7 -35,35 v 1.4 c 0,19.3 15.7,35 35,35 H 16265 c 19.3,0 35,-15.7 35,-35 v -1.4 c 0,-19.3 -15.7,-35 -35,-35" /></g><g
         transform="scale(1.04709)"
         id="g200"><path
           id="path202"
           style="fill:#434244;fill-opacity:1;fill-rule:nonzero;stroke:none"
           d="m 16265,10966.9 h -1364.2 c -19.3,0 -35,15.7 -35,35 v 1.3 c 0,19.4 15.7,35.1 35,35.1 H 16265 c 19.3,0 35,-15.7 35,-35.1 v -1.3 c 0,-19.3 -15.7,-35 -35,-35" /></g><g
         transform="scale(1.04709)"
         id="g204"><path
           id="path206"
           style="fill:#434244;fill-opacity:1;fill-rule:nonzero;stroke:none"
           d="m 16265,10752.7 h -1364.2 c -19.3,0 -35,15.7 -35,35 v 1.4 c 0,19.3 15.7,35 35,35 H 16265 c 19.3,0 35,-15.7 35,-35 v -1.4 c 0,-19.3 -15.7,-35 -35,-35" /></g><g
         transform="scale(1.04709)"
         id="g208"><path
           id="path210"
           style="fill:#434244;fill-opacity:1;fill-rule:nonzero;stroke:none"
           d="m 16265,10558 h -1364.2 c -19.3,0 -35,15.7 -35,35 v 1.4 c 0,19.3 15.7,35 35,35 H 16265 c 19.3,0 35,-15.7 35,-35 v -1.4 c 0,-19.3 -15.7,-35 -35,-35" /></g><g
         transform="scale(1.04709)"
         id="g212"><path
           id="path214"
           style="fill:#434244;fill-opacity:1;fill-rule:nonzero;stroke:none"
           d="m 16265,10343.9 h -1364.2 c -19.3,0 -35,15.6 -35,35 v 1.3 c 0,19.4 15.7,35.1 35,35.1 H 16265 c 19.3,0 35,-15.7 35,-35.1 v -1.3 c 0,-19.4 -15.7,-35 -35,-35" /></g><g
         transform="scale(1.04709)"
         id="g216"><path
           id="path218"
           style="fill:#434244;fill-opacity:1;fill-rule:nonzero;stroke:none"
           d="m 16265,10110.2 h -1364.2 c -19.3,0 -35,15.7 -35,35.1 v 1.3 c 0,19.3 15.7,35 35,35 H 16265 c 19.3,0 35,-15.7 35,-35 v -1.3 c 0,-19.4 -15.7,-35.1 -35,-35.1" /></g><g
         transform="scale(1.04709)"
         id="g220"><path
           id="path222"
           style="fill:#434244;fill-opacity:1;fill-rule:nonzero;stroke:none"
           d="m 16265,9915.55 h -1364.2 c -19.3,0 -35,15.68 -35,35.02 v 1.34 c 0,19.34 15.7,35.03 35,35.03 H 16265 c 19.3,0 35,-15.69 35,-35.03 v -1.34 c 0,-19.34 -15.7,-35.02 -35,-35.02" /></g><g
         transform="scale(1.04709)"
         id="g224"><path
           id="path226"
           style="fill:#434244;fill-opacity:1;fill-rule:nonzero;stroke:none"
           d="m 16265,9701.39 h -1364.2 c -19.3,0 -35,15.68 -35,35.02 v 1.35 c 0,19.34 15.7,35.02 35,35.02 H 16265 c 19.3,0 35,-15.68 35,-35.02 v -1.35 c 0,-19.34 -15.7,-35.02 -35,-35.02" /></g><g
         transform="scale(1.02622)"
         id="g228"><path
           id="path230"
           style="fill:#f68f4b;fill-opacity:1;fill-rule:nonzero;stroke:none"
           d="m 15913,12600.3 c -110.1,0 -201.3,-80.8 -217.5,-186.4 -1.1,-7.1 -7.5,-12.2 -14.7,-12.2 h -170 c -8.2,0 -14.9,-6.7 -14.9,-14.9 V 12190 c 311.6,19.9 591.5,97 804.1,211.7 h -154.7 c -7.3,0 -13.6,5.1 -14.7,12.2 -16.2,105.6 -107.4,186.4 -217.6,186.4" /></g><path
         id="path232"
         style="fill:#ffffff;fill-opacity:1;fill-rule:nonzero;stroke:none"
         d="M 12777.4,4169.8 10042.2,5240.1 7307.03,4169.8 c 0,0 -726.65,-253 -1369.23,-197.2 V 3208 c 0,-69.2 56.03,-125.2 125.16,-125.2 h 7869.94 c 69.2,0 125.2,56 125.2,125.2 v 758.9 c -618.9,-27.5 -1280.7,202.9 -1280.7,202.9" /><path
         id="path234"
         style="fill:#dfaa34;fill-opacity:1;fill-rule:nonzero;stroke:none"
         d="m 10042.2,5040.1 1698.4,-664.5 c -4.8,70.3 -9.7,139.1 -14.6,205.6 l -1683.8,658.9 -604.38,-236.5 -995.31,-389.4 c -3.23,-69.2 -6.38,-137.1 -9.44,-203.7 l 1609.13,629.6" /><path
         id="path236"
         style="fill:#fac73b;fill-opacity:1;fill-rule:nonzero;stroke:none"
         d="m 11801.5,3082.8 c -10.6,511.2 -42.7,1052 -75.5,1498.4 l -1683.8,658.9 -1599.69,-625.9 c -32.22,-689.5 -56.22,-1259.3 -67.42,-1531.4 h 3426.41" /><path
         id="path238"
         style="fill:#fac73b;fill-opacity:1;fill-rule:nonzero;stroke:none"
         d="m 11571.4,6901.7 -31.7,-13.2 c -75.7,1353.3 -211.8,2385.3 -338,3109.1 -120.3,-459.9 -310,-666.8 -310,-666.8 -370.3,564 -869.9,733.9 -869.9,733.9 0,0 -499.52,-169.9 -869.86,-733.9 0,0 -164.84,179.9 -284.71,576.9 2.25,13.2 4.49,26.3 6.72,39.3 -126.01,-734.6 -260.27,-1774.7 -333.37,-3133.4 43.19,-0.6 87.23,-1.9 132.3,-3.8 l 2150.72,30.2 c 0,0 8.2,-17.9 20.4,-50.7 h -0.1 l 281.5,4 c 0,0 10.8,-23.7 25.6,-66.3 v 0 l 420.4,174.7" /><path
         id="path240"
         style="fill:#b9bb73;fill-opacity:1;fill-rule:nonzero;stroke:none"
         d="m 10021,10065.1 c -3.4,1.8 -18.7,9.6 -43.44,24.3 h 0.01 c 24.53,-14.6 39.83,-22.5 43.43,-24.3" /><path
         id="path242"
         style="fill:#b9bb73;fill-opacity:1;fill-rule:nonzero;stroke:none"
         d="m 10021.8,10064.7 -0.6,0.3 0.6,-0.3 v 0" /><path
         id="path244"
         style="fill:#dcab32;fill-opacity:1;fill-rule:nonzero;stroke:none"
         d="m 10021.8,10064.7 v 0 0" /><path
         id="path246"
         style="fill:#b9bb73;fill-opacity:1;fill-rule:nonzero;stroke:none"
         d="m 9151.94,9330.8 c 0,0 -163.64,178.6 -283.4,572.6 l 0.01,0.1 0.01,-0.1 c 13.24,-43.5 27.01,-84.3 41.03,-122.7 h 0.01 0.01 c 3.52,-9.6 7.04,-19 10.58,-28.3 l 0.08,-0.2 c 88.92,-232.9 185.09,-364.2 218.95,-406.2 l 0.05,-0.1 c 1.25,-1.5 2.39,-3 3.46,-4.3 l 0.54,-0.6 c 0.95,-1.2 1.82,-2.2 2.61,-3.2 l 0.68,-0.8 1.91,-2.2 0.67,-0.8 1.24,-1.4 0.51,-0.6 0.68,-0.7 0.37,-0.5 m 1739.76,0 v 0 0 m 0,0 0.2,0.2 c -0.1,-0.1 -0.1,-0.1 -0.2,-0.2 m 8.1,9.5 c 37.2,44.9 194.5,251.6 300.1,650.4 v -0.1 c -105.6,-398.8 -262.9,-605.4 -300.1,-650.3 m -2060.93,395.3 c -2.11,6.7 -4.2,13.5 -6.27,20.4 l 0.38,2.4 c 1.56,9.2 3.14,11.5 4.72,11.5 0.77,0 1.54,-0.5 2.32,-1.1 0.78,-0.5 1.55,-1.1 2.33,-1.1 0.65,0 1.29,0.4 1.94,1.5 -1.81,-11.2 -3.61,-22.3 -5.42,-33.6 m 2391.53,93.1 c -7.5,45.5 -15,89.9 -22.5,133.3 8.2,-19.7 16.2,-17.9 24.1,-63.2 l 0.4,-62.5 c -0.6,-2.6 -1.3,-5.1 -2,-7.6 m -1208.5,236 c 0,0 0,0 0,0 0,0 0,0 0,0 m 0,0 c 0,0 -0.1,0 -0.1,0 0,0 0.1,0 0.1,0 m -0.1,0 v 0 0 m 0,0 v 0 0 m 0,0 v 0 0 m 0,0 v 0 0" /><path
         id="path248"
         style="fill:#dcab32;fill-opacity:1;fill-rule:nonzero;stroke:none"
         d="m 10891.7,9143.9 c -370.3,564 -869.9,733.9 -869.9,733.9 0,0 -499.52,-169.9 -869.86,-733.9 0,0 -192.65,207.8 -313.07,591.7 1.81,11.3 3.61,22.4 5.42,33.6 0.91,1.5 1.83,4.3 2.75,9.4 h -1.19 c 0.34,2.1 0.69,4.3 1.04,6.4 l 21.65,118.4 c 119.76,-394 283.4,-572.6 283.4,-572.6 v 0 c 7.56,11.5 15.19,22.8 22.85,34 1.99,2.9 3.99,5.8 5.99,8.7 6.97,10.1 13.98,20 21.03,29.9 0.75,1 1.5,2.1 2.26,3.1 7.75,10.8 15.55,21.3 23.38,31.7 1.94,2.6 3.89,5.2 5.84,7.8 6.86,9 13.75,18 20.66,26.8 1.14,1.4 2.29,2.9 3.43,4.4 7.96,10.1 15.96,20 23.98,29.8 1.72,2.1 3.45,4.2 5.18,6.3 7.03,8.5 14.07,16.9 21.12,25.1 1.27,1.5 2.53,3 3.8,4.5 8.2,9.6 16.43,19 24.66,28.2 1.32,1.5 2.64,3 3.96,4.4 7.38,8.3 14.76,16.4 22.16,24.4 1.23,1.3 2.47,2.7 3.71,4 8.46,9.1 16.92,18 25.38,26.8 l 2.04,2.1 c 7.96,8.2 15.93,16.3 23.9,24.3 1.05,1 2.1,2.1 3.15,3.1 17.34,17.3 34.64,33.9 51.86,49.8 l 2.21,2.1 c 17.52,16.1 34.96,31.7 52.25,46.6 l 1.1,0.9 c 17.61,15.1 35.08,29.6 52.33,43.5 h 0.01 c 113.32,90.9 217.65,154.1 296.43,195.6 l 0.97,0.5 c 6.92,3.7 13.65,7.2 20.16,10.5 l 0.59,0.3 c 13.14,6.6 25.42,12.6 36.75,18 l 0.71,0.3 c 5.51,2.6 10.77,5.1 15.81,7.4 l 1.05,0.4 c 5.06,2.3 9.9,4.5 14.45,6.5 34.1,15 53.9,21.8 54.7,22.1 v 0 c 0,0 0,0 0,0 v 0 0 0 0 0 0 0 c 0,0 0.1,0 0.1,0 v 0 c 0,0 0,0 0,0 1.5,-0.5 33,-11.4 85.2,-36 5.4,-2.6 11.1,-5.3 17,-8.2 l 0.5,-0.2 c 5.7,-2.8 11.7,-5.8 17.8,-8.9 l 1.6,-0.7 c 19.2,-9.8 40.2,-20.9 62.8,-33.6 l 0.1,-0.1 c 22.9,-12.9 47.5,-27.3 73.3,-43.5 43.9,-27.5 91.4,-59.8 141.3,-97.6 l 2.6,-2 c 5.2,-4 10.4,-8 15.6,-12 1.4,-1.1 2.7,-2.2 4.1,-3.2 4.8,-3.8 9.5,-7.5 14.3,-11.3 1.7,-1.4 3.4,-2.8 5.2,-4.1 4.4,-3.6 8.9,-7.2 13.4,-10.9 1.9,-1.6 3.9,-3.2 5.8,-4.8 4.3,-3.5 8.6,-7.1 12.9,-10.7 2.1,-1.7 4.2,-3.5 6.3,-5.3 4.2,-3.5 8.4,-7.1 12.6,-10.7 2.2,-1.9 4.4,-3.8 6.6,-5.7 4.2,-3.6 8.3,-7.2 12.5,-10.9 2.3,-2 4.5,-4 6.8,-6 4.1,-3.7 8.3,-7.4 12.5,-11.2 2.3,-2 4.5,-4.1 6.8,-6.1 4.2,-3.9 8.5,-7.8 12.7,-11.8 2.2,-2 4.4,-4 6.6,-6.1 4.5,-4.2 9,-8.5 13.6,-12.8 1.9,-1.8 3.8,-3.6 5.7,-5.5 5.4,-5.2 10.8,-10.4 16.2,-15.7 1,-1.1 2.1,-2.1 3.2,-3.1 6.5,-6.5 13,-13 19.6,-19.6 l 1.9,-2 c 5.8,-5.9 11.6,-11.8 17.4,-17.9 2.1,-2.2 4.2,-4.5 6.3,-6.7 4.3,-4.5 8.6,-9.1 12.9,-13.7 2.6,-2.7 5.1,-5.5 7.6,-8.2 3.9,-4.2 7.8,-8.5 11.7,-12.8 2.7,-2.9 5.4,-5.9 8.1,-8.9 3.8,-4.2 7.5,-8.4 11.2,-12.6 2.8,-3.2 5.6,-6.4 8.3,-9.6 3.7,-4.1 7.3,-8.3 11,-12.6 2.8,-3.3 5.6,-6.6 8.4,-9.9 3.6,-4.3 7.2,-8.5 10.7,-12.8 2.9,-3.4 5.7,-6.9 8.6,-10.3 3.5,-4.3 7,-8.7 10.5,-13 2.9,-3.6 5.7,-7.1 8.6,-10.7 3.5,-4.4 7,-8.8 10.5,-13.3 2.8,-3.6 5.6,-7.2 8.5,-10.9 3.5,-4.5 7,-9.1 10.5,-13.7 2.7,-3.7 5.5,-7.3 8.3,-11 3.5,-4.8 7.1,-9.6 10.6,-14.4 2.7,-3.7 5.4,-7.3 8,-11 3.8,-5.1 7.4,-10.3 11.1,-15.5 2.5,-3.4 5,-6.9 7.4,-10.4 4.2,-5.8 8.2,-11.8 12.3,-17.8 2,-2.9 4.1,-5.8 6.1,-8.7 6,-9 12.1,-18 18.1,-27.2 v 0 0 0 c 0.1,0.1 0.1,0.1 0.2,0.2 l 0.4,0.4 c 1,1.2 3.6,4.1 7.5,8.9 37.2,44.9 194.5,251.5 300.1,650.3 2.7,-13.4 5.4,-22.2 8,-28.6 7.5,-43.4 15,-87.8 22.5,-133.3 -120.8,-454.7 -338.7,-684.8 -338.7,-684.8" /><path
         id="path250"
         style="fill:#ffffff;fill-opacity:1;fill-rule:nonzero;stroke:none"
         d="m 10823.6,6840 -2150.72,-30.2 c -45.07,1.9 -89.11,3.2 -132.3,3.8 -0.07,-1.3 -0.14,-2.5 -0.21,-3.8 H 8173.43 C 7724.94,7818.9 7714.75,8828 7714.75,8828 l 285.4,101.9 -285.4,244.6 c 278.24,956.1 696.26,1517.5 922.09,1768.4 l -1839.45,-749.1 c -499.45,-234.4 -581,-631.9 -581,-631.9 L 4993.95,4992.8 c -15.56,-58.2 -20.56,-118.8 -14.37,-178.7 145.23,-1404.1 2327.45,-644.3 2327.45,-644.3 l 3516.57,1376.1 c 285.4,672.7 0,1294.1 0,1294.1" /><path
         id="path252"
         style="fill:#d8d7d5;fill-opacity:1;fill-rule:nonzero;stroke:none"
         d="m 6704.99,9877.1 c 0,0 449.33,-43.7 415.38,-1048.2 l 31.46,-1973.8 136.65,49.4 -30.62,1924.4 C 7238.57,9872 6704.99,9877.1 6704.99,9877.1" /><path
         id="path254"
         style="fill:#d8d7d5;fill-opacity:1;fill-rule:nonzero;stroke:none"
         d="m 6989.72,6654 -51.97,47.1 c -344.5,-170.1 -517.5,-339.8 -517.5,-339.8 163.3,132.6 363.49,226.4 569.47,292.7" /><path
         id="path256"
         style="fill:#f3b884;fill-opacity:1;fill-rule:nonzero;stroke:none"
         d="m 6824.57,7108.8 312.58,-251.4 -309.44,159.8 c -6.53,3.3 -13.77,5.1 -21.12,5.1 h -183.82 c -32.53,0 -54.75,-32.7 -42.86,-63 20.9,-53.2 78.83,-124.5 237.86,-149.5 L 6989.72,6654 c 569.72,183.3 1183.71,155.8 1183.71,155.8 l -377.14,672.7 -633.27,435 c -27.54,18.9 -65.91,9.6 -80.7,-20.3 -23.09,-46.8 -27.4,-130.2 88.81,-258.4 l 326.17,-261.6 61.16,-91.7 -565.67,383.6 c -16.83,11.4 -35.86,19.1 -55.87,22.7 l -247.04,44.5 c -37.59,6.8 -70.69,-25.6 -64.57,-63.3 10.62,-65.4 58.36,-158.4 231.12,-212.6 15.57,-4.9 30.29,-12.4 43.48,-22 l 498.14,-363.6 -513.69,281.4 c -12.56,8.2 -26.6,13.7 -41.33,16.4 l -212.77,38.4 c -32.69,6 -63.06,-19.7 -61.69,-52.9 3.33,-80.3 63.49,-157.6 256,-249.3" /><path
         id="path258"
         style="fill:#dcae9e;fill-opacity:1;fill-rule:nonzero;stroke:none"
         d="m 7162.53,7917.8 c -0.14,0.1 -0.28,0.2 -0.43,0.3 0.15,-0.1 0.29,-0.2 0.43,-0.3 m -0.43,0.3 c -0.15,0.1 -0.3,0.2 -0.45,0.3 0.15,-0.1 0.3,-0.2 0.45,-0.3 m -0.56,0.4 c -0.04,0 -0.08,0 -0.12,0.1 0.04,-0.1 0.08,-0.1 0.12,-0.1 m -0.21,0.1 c -0.05,0 -0.09,0.1 -0.14,0.1 0.04,0 0.1,-0.1 0.14,-0.1 m -0.26,0.2 c -0.04,0 -0.08,0 -0.11,0.1 0.03,-0.1 0.07,-0.1 0.11,-0.1 m -0.25,0.1 c -0.03,0.1 -0.06,0.1 -0.1,0.1 0.04,0 0.07,0 0.1,-0.1" /><path
         id="path260"
         style="fill:#eba076;fill-opacity:1;fill-rule:nonzero;stroke:none"
         d="m 6989.72,6654 c 0,0 403.9,168.8 973.99,262 l -216.51,503.3 -660.87,484.6 c 10.42,15.1 27.58,23.4 45.16,23.4 10,0 20.13,-2.7 29.23,-8.3 0.04,0 0.07,0 0.1,-0.1 0.05,0 0.09,0 0.14,0 0.03,-0.1 0.07,-0.1 0.11,-0.1 0.04,0 0.08,-0.1 0.12,-0.1 0.05,0 0.09,-0.1 0.14,-0.1 0.03,0 0.06,0 0.09,0 0.04,-0.1 0.08,-0.1 0.12,-0.1 0.04,0 0.07,-0.1 0.11,-0.1 0.15,-0.1 0.3,-0.2 0.45,-0.3 v 0 c 0.15,-0.1 0.29,-0.2 0.43,-0.3 0.16,-0.1 0.33,-0.2 0.49,-0.3 l 633.27,-435 377.14,-672.7 c 0,0 -32.69,1.5 -90,1.5 -191.02,0 -655.47,-16.3 -1093.71,-157.3" /><path
         id="path262"
         style="fill:#69ccb4;fill-opacity:1;fill-rule:nonzero;stroke:none"
         d="m 11125.4,6793.3 -281.5,-4 c 59,-158.7 212,-668.7 -9.8,-1218 l 291.3,114 c 244.3,576 0,1108 0,1108" /><path
         id="path264"
         style="fill:#ffffff;fill-opacity:1;fill-rule:nonzero;stroke:none"
         d="M 15090.5,4992.8 13868,9561.9 c 0,0 -81.5,397.5 -581,631.9 l -1839.4,749.1 c 225.8,-250.9 643.8,-812.3 922.1,-1768.4 l -285.4,-244.6 285.4,-101.9 c 0,0 -10,-984.8 -442.7,-1981.6 123.8,-64.2 221.6,-145.3 221.6,-145.3 l 305.8,-339.8 -238.7,-49.4 c -37.4,-7.7 -72.7,-23.6 -103.4,-46.5 l -471.4,-352.6 c -242.5,-183.3 -463.5,-83.7 -463.9,-83.5 -14.1,-47.5 -31.1,-95.6 -51.6,-144 l -291.3,-113.9 c -3.4,-8.5 -6.9,-17 -10.5,-25.5 l -781.4,-305.8 2735.2,-1070.3 c 0,0 2182.2,-759.8 2327.4,644.3 6.2,59.9 1.2,120.5 -14.3,178.7" /><path
         id="path266"
         style="fill:#f3b884;fill-opacity:1;fill-rule:nonzero;stroke:none"
         d="m 12148.6,6701.1 c 0,0 -227.7,188.7 -427.4,218.5 -50.5,7.5 -102.2,0.6 -149.8,-17.9 L 11151,6727 c 49.7,-142.7 144.1,-499 26,-897.7 0,0 221.1,-99.9 463.9,83.5 l 471.4,352.6 c 30.7,22.9 66,38.8 103.4,46.5 l 238.7,49.4 -305.8,339.8" /><path
         id="path268"
         style="fill:#c5baaa;fill-opacity:1;fill-rule:nonzero;stroke:none"
         d="m 11329,5802.1 c -34.1,0 -63.8,3.8 -87.7,8.5 23.9,-4.7 53.6,-8.5 87.7,-8.5 40.4,0 86.9,5.2 137.2,20.3 -13.7,-4.1 -27,-7.4 -40,-10.2 -35,-7.3 -67.7,-10.1 -97.2,-10.1 m 283.7,90.6 c 0.3,0.2 0.5,0.3 0.8,0.5 -0.3,-0.2 -0.5,-0.3 -0.8,-0.5 m 1.3,0.9 c 0.3,0.2 0.6,0.4 0.9,0.6 -0.3,-0.2 -0.6,-0.4 -0.9,-0.6" /><path
         id="path270"
         style="fill:#c5baaa;fill-opacity:1;fill-rule:nonzero;stroke:none"
         d="m 11615.4,5894.5 c 8.1,5.6 16.3,11.4 24.5,17.6 -0.2,-0.2 -0.4,-0.3 -0.6,-0.5 -0.3,-0.2 -0.6,-0.4 -0.9,-0.6 -0.5,-0.4 -1,-0.8 -1.4,-1.1 -1.2,-0.9 -2.4,-1.8 -3.7,-2.7 -6,-4.4 -11.9,-8.6 -17.9,-12.7" /><path
         id="path272"
         style="fill:#f2c5b4;fill-opacity:1;fill-rule:nonzero;stroke:none"
         d="m 11426.2,5812.2 c 13,2.8 26.3,6.1 40,10.2 46.3,13.9 95.7,36.1 146.5,70.3 0.3,0.2 0.5,0.3 0.8,0.5 0.1,0.1 0.3,0.2 0.5,0.4 0.3,0.2 0.6,0.4 0.9,0.6 0.1,0.1 0.3,0.2 0.5,0.3 6,4.1 11.9,8.3 17.9,12.7 1.3,0.9 2.5,1.8 3.7,2.7 0.4,0.3 0.9,0.7 1.4,1.1 0.3,0.2 0.6,0.4 0.9,0.6 0.2,0.2 0.4,0.3 0.6,0.5 0.3,0.2 0.6,0.5 1,0.7 l 471.4,352.6 c 30.7,22.9 66,38.8 103.4,46.5 l 131.5,27.2 -131.5,-27.2 c -37.4,-7.7 -72.7,-23.6 -103.4,-46.5 l -471.4,-352.6 c -75.7,-57.2 -149.3,-86.8 -214.7,-100.6" /><path
         id="path274"
         style="fill:#9daf90;fill-opacity:1;fill-rule:nonzero;stroke:none"
         d="m 11177.6,5831.4 c 0,0.1 0.1,0.2 0.1,0.3 0,-0.1 -0.1,-0.2 -0.1,-0.3 m 0.6,2.1 c 0.1,0.3 0.2,0.5 0.2,0.7 0,-0.2 -0.1,-0.4 -0.2,-0.7 m 0.6,2.1 c 14.8,51 26.1,101.2 34.6,150.3 0,0 0,0 0.1,0 -8.5,-49.1 -19.9,-99.4 -34.7,-150.3" /><path
         id="path276"
         style="fill:#eba076;fill-opacity:1;fill-rule:nonzero;stroke:none"
         d="m 11329,5802.1 c -34.1,0 -63.8,3.8 -87.7,8.5 -0.1,0 -0.1,0 -0.1,0 -0.1,0 -0.2,0 -0.3,0 -36.1,7.2 -58.8,16.5 -63.2,18.3 -0.3,0.2 -0.5,0.3 -0.6,0.3 -0.1,0 -0.1,0.1 -0.1,0.1 v 0 c 0.2,0.7 0.4,1.4 0.6,2.1 0,0.1 0.1,0.2 0.1,0.3 0.2,0.6 0.3,1.2 0.5,1.8 0.1,0.3 0.2,0.5 0.2,0.7 0.2,0.5 0.3,1 0.4,1.4 14.8,50.9 26.2,101.2 34.7,150.3 26.6,-7.2 66.6,-14.9 115.6,-14.9 84.4,0 195.6,22.9 311.8,110.7 l 471.4,352.5 1,0.7 c 26.8,19.9 58.8,29.7 91.1,29.7 26.4,0 53.1,-6.6 77.1,-19.7 l 158.8,-86.5 -93.1,-19.3 -131.5,-27.2 c -37.4,-7.7 -72.7,-23.6 -103.4,-46.5 l -471.4,-352.6 c -0.4,-0.2 -0.7,-0.5 -1,-0.7 -8.2,-6.2 -16.4,-12 -24.5,-17.6 -0.2,-0.1 -0.4,-0.2 -0.5,-0.3 -0.3,-0.2 -0.6,-0.4 -0.9,-0.6 -0.2,-0.2 -0.4,-0.3 -0.5,-0.4 -0.3,-0.2 -0.5,-0.3 -0.8,-0.5 -50.8,-34.2 -100.2,-56.4 -146.5,-70.3 -50.3,-15.1 -96.8,-20.3 -137.2,-20.3" /><path
         id="path278"
         style="fill:#d8d7d5;fill-opacity:1;fill-rule:nonzero;stroke:none"
         d="m 12299.1,6533.9 155.3,-172.6 -9.8,-2 c 355.5,23 825.3,-120.3 825.3,-120.3 -416,282.8 -831.9,298.6 -970.8,294.9" /><path
         id="path280"
         style="fill:#ffffff;fill-opacity:1;fill-rule:nonzero;stroke:none"
         d="m 10950.4,11163 c 51.4,-186.6 148,-572.6 251.4,-1165.4 -120.4,-459.8 -310.1,-666.8 -310.1,-666.8 -370.3,564 -869.9,733.9 -869.9,733.9 0,0 678.4,368.6 928.6,1098.3" /><path
         id="path282"
         style="fill:#ffffff;fill-opacity:1;fill-rule:nonzero;stroke:none"
         d="m 9124.05,11126.5 c -56.08,-208.6 -154.13,-612.6 -256.82,-1218.8 119.87,-397 284.71,-576.9 284.71,-576.9 370.34,564 869.86,733.9 869.86,733.9 0,0 -562.09,275.3 -897.75,1061.8" /><path
         id="path284"
         style="fill:#dfaa34;fill-opacity:1;fill-rule:nonzero;stroke:none"
         d="m 10092.2,5220.6 -416.31,-162.9 -466.32,-182.5 -50.73,-341.8 -50.73,-341.8 524.83,-525 291.73,-291.8 816.53,816.8 -59.6,798.3 -589.4,230.7" /><path
         id="path286"
         style="fill:#dfaa34;fill-opacity:1;fill-rule:nonzero;stroke:none"
         d="m 10377.6,9290.1 c 19.5,45 36.9,88 52.3,128.9 10.3,27.2 19.8,53.4 28.4,78.7 21.7,63.1 38.5,120.1 51.4,170.4 5.2,20.2 9.8,39.3 13.9,57.2 1.8,8 3.4,15.7 5,23.2 -194.8,170.4 -373.1,259.8 -456.8,296.2 -72.2,-31.4 -215.17,-102.4 -378.44,-231.1 15.93,-95.6 50.96,-244.7 128.12,-438.7 l 0.46,-1.1 c 5.3,-13.4 10.79,-26.9 16.5,-40.7 2.85,-6.8 5.92,-13.9 8.88,-20.9 3.13,-7.4 6.15,-14.6 9.4,-22.1 0,0 2.7,-1.3 7.6,-3.4 h -0.02 L 9498.2,6820 l 372.69,5.2 672.91,9.4 -183,2448.9 c 5.6,2.2 11.2,4.2 16.8,6.6" /><path
         id="path288"
         style="fill:#58b49e;fill-opacity:1;fill-rule:nonzero;stroke:none"
         d="m 10021.8,10064.7 c 0,0 -193.23,-65.7 -428.44,-251.1 18.18,-109 61.22,-287.8 163.36,-523.5 0,0 242.25,-115.6 520.88,0 104.1,240.4 146.9,421.6 164.4,530 -231.4,180.4 -420.2,244.6 -420.2,244.6" /><path
         id="path290"
         style="fill:#4ea28d;fill-opacity:1;fill-rule:nonzero;stroke:none"
         d="m 9721.48,9374.9 c 10.89,-27.4 22.61,-55.7 35.24,-84.8 0,0 242.25,-115.6 520.88,0 104.1,240.3 146.9,421.6 164.4,530 -17.4,13.6 -34.6,26.4 -51.5,38.7 -106.9,-271.3 -364,-466.8 -669.02,-483.9" /><path
         id="path292"
         style="fill:#58b49e;fill-opacity:1;fill-rule:nonzero;stroke:none"
         d="m 10443.8,6834.6 -183,2448.9 c -243,-93.3 -454.74,-14.4 -496.5,3.2 L 9398.2,6820 l 1045.6,14.6" /><path
         id="path294"
         style="fill:#69ccb4;fill-opacity:1;fill-rule:nonzero;stroke:none"
         d="m 9398.2,6820 850.8,11.9 c -23.7,1046.1 -214.4,1945.5 -488.05,2432.3 L 9398.2,6820" /><path
         id="path296"
         style="fill:#58b49e;fill-opacity:1;fill-rule:nonzero;stroke:none"
         d="m 10042.2,5240.1 -932.63,-364.9 -101.46,-683.6 816.56,-816.8 816.53,816.8 -62.6,838.6 -536.4,209.9" /><path
         id="path298"
         style="fill:#69ccb4;fill-opacity:1;fill-rule:nonzero;stroke:none"
         d="m 10042.2,5240.1 -932.63,-364.9 -101.46,-683.6 524.83,-525 c 264.77,217 485.16,783.3 609.36,1534.3 l -100.1,39.2" /><path
         id="path300"
         style="fill:#d8d7d5;fill-opacity:1;fill-rule:nonzero;stroke:none"
         d="m 8795.19,11101 c -64.04,-68.1 -121.31,-141.3 -176.54,-215.6 -13.68,-18.6 -27.56,-37.1 -40.99,-55.9 l -39.39,-57.1 c -13.11,-18.9 -26.47,-37.7 -38.62,-57.4 l -37.6,-58 c -99.07,-155.5 -186.95,-317.2 -268.55,-481.4 -19.42,-41.7 -38.76,-83.3 -58.55,-124.6 l -14.76,-31 -13.52,-31.6 -26.9,-63.3 -27.13,-63.2 -13.66,-31.5 c -4.44,-10.5 -8.3,-21.3 -12.48,-32 l -49.26,-128.3 c -8.13,-21.4 -17.22,-42.4 -24.56,-64.1 l -22.27,-65.1 -44.73,-129.9 c -8.04,-21.4 -13.91,-43.6 -20.75,-65.5 l -19.9,-65.8 -40,-131.4 -29.09,97.6 143.14,-121.8 c 47.82,-40.4 95.28,-81.3 142.65,-122.3 l 123.43,-106.9 -153.19,-54.1 -142.88,-50.4 c -47.57,-17 -95.45,-33.1 -143.16,-49.7 l 61.51,88.2 0.5,-30.3 c 0.15,-10.4 0.56,-21 0.95,-31.5 0.68,-21.1 1.54,-42.2 2.79,-63.4 2.05,-42.4 4.83,-84.9 7.51,-127.4 3.45,-42.5 6.59,-85.1 10.71,-127.6 4.74,-42.5 7.72,-85.2 12.89,-127.6 5.16,-42.5 9.59,-85 15.33,-127.5 l 17.16,-127.3 c 13.66,-84.5 25.91,-169.5 42.11,-253.7 l 11.37,-63.4 c 3.75,-21.2 8.46,-42.1 12.65,-63.2 l 25.9,-126.3 29.12,-125.7 c 5.08,-20.9 9.03,-42.2 14.7,-62.9 l 16.36,-62.5 c 11.26,-41.6 20.88,-83.8 32.69,-125.3 l 36.16,-124.6 c 6.15,-20.7 11.41,-41.8 18.08,-62.4 6.78,-20.6 13.44,-41.2 19.94,-61.9 13.05,-41.4 26.52,-82.7 39.07,-124.6 -83.55,152.6 -160.78,310.2 -222.94,473.8 -33.69,81 -60.28,164.4 -89.47,247.2 -13.4,41.7 -25.63,83.8 -38.51,125.8 -6.24,21 -13.01,41.9 -18.82,63.1 l -16.88,63.6 c -45.78,169.4 -82.59,341.5 -110.04,515.3 -3.86,21.6 -6.87,43.4 -10.08,65.2 l -9.33,65.3 c -5.82,43.7 -10.66,87.5 -15.8,131.3 -4.2,43.9 -9.29,87.7 -12.1,132 -1.77,22 -3.16,44.2 -4.37,66.5 -0.65,11.1 -1.32,22.2 -1.74,33.5 l -1.3,34.6 -2.43,64.8 63.95,23.5 c 47.42,17.4 94.67,35.3 142.24,52.2 l 142.51,51.5 -29.75,-160.9 c -47.77,40.5 -95.44,81.2 -142.75,122.2 l -142.26,122.9 -47.5,41 18.41,56.6 43.83,134.9 22.01,67.4 c 7.54,22.4 14.11,45.1 22.87,67.1 l 50.64,132.6 25.4,66.2 c 8.38,22.1 18.54,43.5 27.73,65.3 l 57.35,129.8 c 4.86,10.8 9.4,21.7 14.52,32.4 l 15.73,31.8 31.63,63.5 31.87,63.4 16.01,31.6 17.25,31 c 22.9,41.5 46.24,82.6 69.52,123.7 96.42,162.7 202.87,319.4 322.37,465.4 30.31,36.2 59.7,73 92.1,107.3 l 47.57,52.2 c 16.33,17 33.08,33.6 49.57,50.4 66.63,66.3 136.46,129.8 212.75,184.2" /><path
         id="path302"
         style="fill:#d8d7d5;fill-opacity:1;fill-rule:nonzero;stroke:none"
         d="m 11927,6846.4 c 12,41.2 24.9,81.8 37.3,122.6 6.3,20.3 12.6,40.6 19.1,60.8 6.4,20.3 11.4,41 17.3,61.4 l 34.5,122.4 c 11.4,40.8 20.6,82.3 31.3,123.2 l 15.7,61.4 c 5.5,20.3 9.3,41.2 14.1,61.8 l 27.9,123.4 24.8,124.1 c 4.1,20.7 8.5,41.2 12.2,62 l 10.8,62.2 11.1,62.2 5.5,31 4.7,31.2 19.2,124.7 16.4,124.9 c 5.4,41.7 9.8,83.4 14.7,125.1 8.9,83.4 16.3,166.9 22.6,250.3 2.5,41.7 5.6,83.4 7.1,125 1.2,20.8 2,41.5 2.7,62.2 0.4,10.3 0.8,20.7 0.9,30.8 l 0.5,29.8 61.2,-87.8 -143.2,49.4 -142.9,50.4 -153.6,54.3 123.9,106.5 c 47.5,40.8 94.6,82.1 142.5,122.5 l 143.1,121.8 -29.1,-97.8 c -27.7,87.3 -52.5,175.6 -80.8,262.7 -15.3,43.2 -30.1,86.5 -44.9,129.9 l -22.3,65 c -7.3,21.7 -16.4,42.7 -24.5,64.1 -16.8,42.6 -32.9,85.5 -49.4,128.3 -4.2,10.7 -8,21.5 -12.4,32 l -13.7,31.5 -27.2,63.1 -26.9,63.3 -13.5,31.6 -14.7,31.1 c -19.8,41.3 -39.3,82.8 -58.6,124.5 -81.7,164.1 -169.4,325.9 -268.4,481.4 l -37.6,58 c -12.1,19.7 -25.5,38.5 -38.6,57.5 l -39.3,57.1 c -13.4,18.8 -27.3,37.2 -40.9,56 -55.2,74.2 -112.4,147.5 -176.4,215.7 76.4,-54.3 146.3,-117.8 213,-184 16.5,-16.8 33.3,-33.4 49.6,-50.3 l 47.6,-52.2 c 32.5,-34.3 61.9,-71.1 92.2,-107.3 119.5,-146 226.2,-302.7 322.6,-465.4 23.4,-41.1 46.5,-82.3 69.4,-123.7 l 17.3,-31 16,-31.6 31.9,-63.4 31.6,-63.6 15.7,-31.8 c 5.1,-10.7 9.7,-21.6 14.5,-32.4 19.1,-43.2 38.5,-86.3 57.3,-129.8 9.2,-21.8 19.3,-43.2 27.7,-65.3 l 25.5,-66.2 c 16.9,-44.2 33.9,-88.3 50.4,-132.7 8.8,-22 15.4,-44.7 22.9,-67.1 l 22,-67.4 c 14.8,-44.9 29.5,-89.9 43.7,-135 l 18,-57.1 -47.2,-40.6 -142.2,-122.9 c -47.3,-41.1 -95.3,-81.3 -142.9,-122 l -29.7,160.7 142.5,-51.5 142.1,-52.5 63.7,-23.5 -2.4,-64.4 -1.3,-34 c -0.4,-11.1 -1.1,-21.9 -1.7,-32.8 -1.2,-21.9 -2.5,-43.6 -4.3,-65.3 -3.1,-43.3 -7.8,-86.3 -12,-129.4 -5,-43 -9.6,-85.9 -15.3,-128.7 -6.4,-42.7 -11.9,-85.6 -19.1,-128.1 -26.7,-170.4 -62.7,-339.2 -107,-505.5 l -16.5,-62.4 c -5.7,-20.8 -12.1,-41.3 -18.2,-62 -12.5,-41.2 -24.2,-82.5 -37.4,-123.4 -28.1,-81.4 -54.1,-163.2 -86.6,-242.8 -60.2,-160.7 -134.8,-315.8 -215.6,-466.2" /><path
         id="path304"
         style="fill:#ffffff;fill-opacity:1;fill-rule:nonzero;stroke:none"
         d="m 8540.37,6809.8 c 163.09,3037.5 631.96,4484.9 631.96,4484.9 L 8795.19,11101 c 0,0 -682.92,-560.6 -1080.44,-1926.5 l 285.4,-244.6 -285.4,-101.9 c 0,0 10.19,-1009.1 458.68,-2018.2 h 366.94" /><path
         id="path306"
         style="fill:#ffffff;fill-opacity:1;fill-rule:nonzero;stroke:none"
         d="m 12369.7,9174.5 c -397.5,1365.9 -1080.5,1926.5 -1080.5,1926.5 l -369.3,189.6 c 2.9,-19.9 6.2,-37.9 9.6,-53.6 85.4,-292.9 462.7,-1710.2 610.2,-4348.5 l 31.7,13.2 c 47.6,18.5 99.3,25.4 149.8,17.9 68.8,-10.3 140.9,-39.4 205.8,-73.2 432.7,996.8 442.7,1981.6 442.7,1981.6 l -285.4,101.9 285.4,244.6" /><path
         id="path308"
         style="fill:#f3b884;fill-opacity:1;fill-rule:nonzero;stroke:none"
         d="m 11430.4,13873.6 c -211.7,290.1 -282.3,807.6 -282.3,807.6 -250.9,-266.6 -689.9,-86.3 -689.9,-86.3 -603.73,-368.5 -1387.77,211.7 -1387.77,211.7 0,0 -35.28,-478.3 -387.3,-933 0,0 -98.8,-556.7 105.05,-1442.6 0,0 290.09,-109.8 415.53,-360.7 490.03,474.4 807.89,203.9 807.89,203.9 365,250.9 846.4,-203.9 846.4,-203.9 156.8,282.3 518.7,352.8 518.7,352.8 158,603.7 53.7,1450.5 53.7,1450.5" /><path
         id="path310"
         style="fill:#434244;fill-opacity:1;fill-rule:nonzero;stroke:none"
         d="m 10932.9,13231 c 0,-95.9 -48.3,-173.7 -107.8,-173.7 -59.5,0 -107.7,77.8 -107.7,173.7 0,95.9 48.2,173.6 107.7,173.6 59.5,0 107.8,-77.7 107.8,-173.6" /><path
         id="path312"
         style="fill:#434244;fill-opacity:1;fill-rule:nonzero;stroke:none"
         d="m 9452.91,13231 c 0,-95.9 -48.24,-173.7 -107.76,-173.7 -59.52,0 -107.77,77.8 -107.77,173.7 0,95.9 48.25,173.6 107.77,173.6 59.52,0 107.76,-77.7 107.76,-173.6" /><path
         id="path314"
         style="fill:#e38968;fill-opacity:1;fill-rule:nonzero;stroke:none"
         d="m 10143.5,12714.9 -58,105.1 c -9.7,17.7 -36.5,12.3 -38.7,-7.8 l -28.7,-269.9 c -1.8,-16.2 15,-27.9 29.7,-20.8 l 43.9,21.6 c 2.2,1.1 4.4,2.2 6.5,3.4 58.9,33.2 77.9,109.3 45.3,168.4" /><g
         id="g316"><g
           clip-path="url(#clipPath322)"
           id="g318"><path
             id="path324"
             style="fill:#f4a67e;fill-opacity:1;fill-rule:nonzero;stroke:none"
             d="m 8803.07,12475.5 h 623.719 v 623.727 H 8803.07 Z" /></g></g><path
         id="path326"
         style="fill:#f4a67e;fill-opacity:1;fill-rule:nonzero;stroke:none"
         d="m 11059.3,12475.5 c -172.2,0 -311.9,139.6 -311.9,311.9 0,172.2 139.7,311.8 311.9,311.8 172.2,0 311.9,-139.6 311.9,-311.8 0,-172.3 -139.7,-311.9 -311.9,-311.9" /><path
         id="path328"
         style="fill:#434244;fill-opacity:1;fill-rule:nonzero;stroke:none"
         d="m 9087.25,13540.7 c -10.05,0 -19.97,4.7 -26.28,13.5 -10.41,14.5 -7.14,34.6 7.32,45 2.73,2 275.89,194.7 514.31,-0.3 13.82,-11.3 15.86,-31.7 4.56,-45.5 -11.31,-13.8 -31.66,-15.8 -45.5,-4.5 -199.62,163.3 -426.05,4.7 -435.59,-2.1 -5.71,-4.1 -12.29,-6.1 -18.82,-6.1" /><path
         id="path330"
         style="fill:#434244;fill-opacity:1;fill-rule:nonzero;stroke:none"
         d="m 11092.4,13540.7 c -6.6,0 -13.2,2 -18.9,6.1 -9.7,6.9 -236,165.3 -435.6,2.1 -13.8,-11.3 -34.1,-9.3 -45.5,4.5 -11.3,13.8 -9.2,34.2 4.6,45.5 238.4,195 511.6,2.3 514.3,0.3 14.5,-10.4 17.8,-30.6 7.3,-45.1 -6.3,-8.7 -16.2,-13.4 -26.2,-13.4" /><path
         id="path332"
         style="fill:#6b6c6e;fill-opacity:1;fill-rule:nonzero;stroke:none"
         d="m 10818.6,12692.9 c -324.2,0 -588.1,263.4 -588.8,587.5 h 1.1 c 0,4.2 -0.4,8.3 -1,12.4 1.6,82.4 20.9,140.6 58.9,177.8 57.1,55.7 159.2,66.2 282.3,66.2 36.1,0 74.1,-0.9 113.2,-1.8 43.3,-1 88.1,-2.1 134.3,-2.1 46.3,0 91.1,1.1 134.4,2.1 172.6,4.1 321.6,7.7 395.4,-64.4 39.8,-38.8 59.1,-100.6 59.1,-188.9 0,-324.7 -264.2,-588.8 -588.9,-588.8 z m -1457.96,0 c -324.69,0 -588.85,264.1 -588.85,588.8 0,88.3 19.32,150.1 59.07,188.9 57.06,55.7 159.13,66.2 282.3,66.2 36.09,0 74.02,-0.9 113.13,-1.8 43.32,-1 88.11,-2.1 134.35,-2.1 46.24,0 91.03,1.1 134.35,2.1 172.6,4.1 321.65,7.7 395.44,-64.4 39.74,-38.8 59.07,-100.6 59.07,-188.9 0,-324.7 -264.16,-588.8 -588.86,-588.8 z m 2325.96,850.8 h -326.7 c -96,63.2 -242.1,59.9 -408.5,56 -42.9,-1.1 -87.3,-2.1 -132.8,-2.1 -45.4,0 -89.8,1 -132.8,2.1 -187.2,4.4 -348.9,8.3 -442.1,-82.8 -37.7,-36.8 -61.5,-86.5 -72.1,-150.5 -22.8,11.9 -50.7,18.8 -81.2,18.8 -31.2,0 -59.6,-7.3 -82.6,-19.6 -10.56,64.4 -34.4,114.4 -72.2,151.3 -93.26,91 -254.92,87.2 -442.15,82.8 -42.93,-1.1 -87.33,-2.1 -132.81,-2.1 -45.47,0 -89.87,1 -132.81,2.1 -166.4,3.9 -312.49,7.2 -408.44,-56 h -342.48 c -18.43,0 -33.38,-15 -33.38,-33.4 v -84 c 0,-18.5 14.95,-33.4 33.38,-33.4 h 242.03 c -7.87,-32.8 -11.81,-69.7 -11.81,-111.2 0,-360.3 293.16,-653.5 653.51,-653.5 360.35,0 653.56,293.2 653.56,653.5 0,7.3 -0.2,14.4 -0.4,21.4 14,15.7 41.7,28.2 76.6,28.2 33.8,0 60.8,-11.8 75.2,-26.7 -0.3,-7.5 -0.5,-15.1 -0.5,-22.9 0,-360.3 293.2,-653.5 653.5,-653.5 360.4,0 653.5,293.2 653.5,653.5 0,41.5 -3.9,78.4 -11.8,111.2 h 226.3 c 18.4,0 33.4,14.9 33.4,33.4 v 84 c 0,18.4 -15,33.4 -33.4,33.4" /><path
         id="path334"
         style="fill:#f3b884;fill-opacity:1;fill-rule:nonzero;stroke:none"
         d="m 10180.4,11048.9 c -25,-4 -50.3,-5.7 -75.6,-5.7 h -91.2 c -25.32,0 -50.65,1.7 -75.66,5.7 -324.04,51.4 -569.57,156.2 -755.45,282.3 0.54,-66.2 -3.79,-160.7 -20.64,-289 338.32,-721.9 859.95,-977.5 859.95,-977.5 0,0 678.4,368.6 928.6,1098.3 0,0 -21.4,73.8 -33.1,153.6 -185.3,-119.6 -425.5,-218.3 -736.9,-267.7" /><path
         id="path336"
         style="fill:#e38968;fill-opacity:1;fill-rule:nonzero;stroke:none"
         d="m 9177.23,11189.3 c 191.64,-118.5 437.22,-315.7 752.24,-365.6 26.8,-4.3 53.94,-6.1 81.03,-6.1 h 97.8 c 27.1,0 54.2,1.8 81,6.1 314.3,49.8 560.8,246.6 754.3,364.7 -7.3,28.3 -18.8,76.9 -26.3,128.2 -185.3,-119.6 -425.5,-218.3 -736.9,-267.7 -25,-4 -50.3,-5.7 -75.6,-5.7 h -91.2 c -25.32,0 -50.65,1.7 -75.66,5.7 -324.04,51.4 -569.57,156.2 -755.45,282.3 0.31,-37.7 -0.98,-84.7 -5.26,-141.9" /><path
         id="path338"
         style="fill:#f3b884;fill-opacity:1;fill-rule:nonzero;stroke:none"
         d="m 11798.4,13312.3 c -20.3,5 -40.7,8 -61.1,9.1 l -116.4,-1007.9 c 196.4,-7.3 389.2,161.3 449.7,406.9 67.4,273.3 -54.5,538.3 -272.2,591.9" /><path
         id="path340"
         style="fill:#f3b884;fill-opacity:1;fill-rule:nonzero;stroke:none"
         d="m 8405.09,13321.4 c -30.91,1.3 -62.05,-1.5 -92.92,-9.1 -217.68,-53.6 -339.54,-318.6 -272.2,-591.9 63.76,-258.7 274.22,-431.9 481.15,-404.2 l -116.03,1005.2" /><path
         id="path342"
         style="fill:#b3b3b2;fill-opacity:1;fill-rule:nonzero;stroke:none"
         d="m 9529.87,7192 c 7.58,9.9 14.06,19.6 19.61,29.1 39.03,66.5 31.69,120.8 30.41,128.5 -2.44,12.7 -8.11,32.5 -16.2,57.3 -28.93,89.1 -88.86,243.9 -143.52,381.3 -8.69,-23.7 -27.7,-43.2 -53.68,-51.2 -4.88,-1.5 -9.79,-2.3 -14.68,-2.9 67.83,-171.2 135.94,-349.8 145.95,-399 0.53,-5.7 2.76,-46.4 -36.61,-95.6 -30.67,-38.3 -88.04,-83.1 -193.79,-119.7 -66.84,-23.1 -153.25,-42.9 -264.72,-55.7 18.95,-8 32.04,-20.9 34.74,-37.2 2.61,-15.8 -5.17,-31.7 -19.64,-45.1 178.25,21 315.76,61.7 411.32,121.6 41.49,26 75.31,55.5 100.81,88.6" /><path
         id="path344"
         style="fill:#b3b3b2;fill-opacity:1;fill-rule:nonzero;stroke:none"
         d="m 8153.6,6863.6 c 2.48,-0.1 4.74,-0.2 7.24,-0.2 91.36,0 197.39,11.5 317.16,34 -17.32,8.1 -29.35,20.4 -31.9,35.8 -2.73,16.5 5.69,33.2 21.51,47 -107.51,-20.5 -196.57,-30.3 -270.78,-32.8 -150.39,-5 -239.18,20.8 -291.03,53.3 -11.09,7 -20.51,14.2 -28.51,21.5 -51.7,47.3 -46.87,101.4 -46.7,103.1 0.19,1.5 0.3,3 0.33,4.5 2.43,124.3 24.89,300.2 52.73,474.9 -3.76,-0.5 -7.51,-1 -11.39,-1 -2.3,0 -4.62,0.1 -6.95,0.2 -25.54,2.2 -47.12,15.8 -60.88,35.2 -29.63,-183.6 -54.06,-371.8 -56.85,-506.2 -1.24,-15.3 -2.72,-84 51.6,-148.8 5.94,-7.1 11.99,-14.2 19.35,-21.1 69.56,-65.3 181.86,-98.4 335.07,-99.4" /><path
         id="path346"
         style="fill:#8d8d8d;fill-opacity:1;fill-rule:nonzero;stroke:none"
         d="m 11496.6,9056.1 c -3.4,0.3 -6.5,-0.1 -9.6,-0.9 -9.9,-2.7 -17.7,-11 -19.1,-21.8 -5.2,-40.2 -15.6,-104 -31.2,-167.3 15.1,2.1 30.5,3.6 46.2,3.6 57.7,0 112,-14.8 159.3,-40.8 18,75.6 28.3,145.5 32.9,182.3 1.8,13.9 -7.8,26.3 -21.3,28.8 l -2.1,0.6 -155.1,15.5" /><path
         id="path348"
         style="fill:#b3b3b2;fill-opacity:1;fill-rule:nonzero;stroke:none"
         d="m 11317.9,8537.9 c 0,91.1 73.9,165.1 165,165.1 91.2,0 165.1,-74 165.1,-165.1 0,-91.2 -73.9,-165.1 -165.1,-165.1 -91.1,0 -165,73.9 -165,165.1 z m 165,331.8 c -15.7,0 -31.1,-1.5 -46.2,-3.6 -161.1,-22.6 -285.6,-161 -285.6,-328.2 0,-183 148.9,-331.9 331.8,-331.9 88.5,0 168.8,35 228.4,91.7 15.3,14.6 29.3,30.6 41.6,47.9 38.8,54.3 61.9,120.6 61.9,192.3 0,57.7 -14.9,112 -40.9,159.3 -11.5,20.9 -25.3,40.3 -40.9,58.1 -25.7,29.5 -56.3,54.6 -90.8,73.6 -47.3,26 -101.6,40.8 -159.3,40.8" /><path
         id="path350"
         style="fill:#6b6c6e;fill-opacity:1;fill-rule:nonzero;stroke:none"
         d="m 11359.5,8537.9 c 0,68 55.4,123.4 123.4,123.4 68.1,0 123.4,-55.4 123.4,-123.4 0,-68.1 -55.3,-123.4 -123.4,-123.4 -68,0 -123.4,55.3 -123.4,123.4 z m 288.5,0 c 0,91.1 -73.9,165.1 -165.1,165.1 -91.1,0 -165,-74 -165,-165.1 0,-91.2 73.9,-165.1 165,-165.1 91.2,0 165.1,73.9 165.1,165.1" /><path
         id="path352"
         style="fill:#b3b3b2;fill-opacity:1;fill-rule:nonzero;stroke:none"
         d="m 11606.3,8537.9 c 0,68 -55.3,123.4 -123.4,123.4 -68,0 -123.4,-55.4 -123.4,-123.4 0,-68.1 55.4,-123.4 123.4,-123.4 68.1,0 123.4,55.3 123.4,123.4" /><path
         id="path354"
         style="fill:#6b6c6e;fill-opacity:1;fill-rule:nonzero;stroke:none"
         d="m 8446.1,6933.2 c 2.55,-15.4 14.58,-27.7 31.9,-35.8 19.88,-9.2 46.81,-12.8 75.63,-8 53.91,8.9 48.53,35.6 43.05,68.7 -5.48,33.1 -8.97,60.1 -62.89,51.1 -26.99,-4.4 -50.3,-15.2 -66.18,-29 -15.82,-13.8 -24.24,-30.5 -21.51,-47" /><path
         id="path356"
         style="fill:#6b6c6e;fill-opacity:1;fill-rule:nonzero;stroke:none"
         d="m 9037.38,7026.9 c -2.7,16.3 -15.79,29.2 -34.74,37.2 -19.57,8.2 -45.4,11.1 -72.79,6.6 -53.91,-8.9 -48.53,-35.6 -43.05,-68.7 5.48,-33.1 8.98,-60.1 62.89,-51.2 28.2,4.7 52.17,16.3 68.05,31 14.47,13.4 22.25,29.3 19.64,45.1" /><path
         id="path358"
         style="fill:#6b6c6e;fill-opacity:1;fill-rule:nonzero;stroke:none"
         d="m 11522.4,10818.7 c -11.4,31 -23.9,61.5 -37.5,91.3 l -0.1,0.2 c -69.3,151.5 -167.3,288.6 -291,404.8 -36.8,34.6 -75.4,66.6 -115.3,96.3 -44.8,-34.7 -93.3,-68.3 -145.7,-100.3 105.5,-69.6 198.6,-157 275,-258.5 61.2,-81.2 111.5,-171.6 149.5,-268.9 25,-63.9 44.8,-130.6 58.3,-200.1 9.5,-48.9 19.6,-104.1 29.5,-164 58.2,-351.5 112.3,-873.3 41.9,-1364.3 3.1,0.8 6.2,1.2 9.6,0.9 l 155.1,-15.5 2.1,-0.6 c 83.5,596.8 -7.3,1229.9 -74.5,1575.4 -13.6,69.8 -32.8,137.7 -56.9,203.3" /><path
         id="path360"
         style="fill:#6b6c6e;fill-opacity:1;fill-rule:nonzero;stroke:none"
         d="m 8923.37,8764 c -40.6,40.5 -83.3,76.4 -128.18,105.2 -70.26,45.2 -150.64,67.6 -231.28,68.5 -0.11,1 -0.14,2 -0.29,3 -108.96,750.2 -32.1,1285.2 95.7,1654.9 31.68,91.6 66.45,173 102.34,245.1 19.04,38.2 38.35,73.8 57.7,106.9 4.02,6.9 8.05,13.8 12.07,20.5 l 6.17,10.1 c 26.58,43.4 56.16,84.1 87.96,122.6 v 0 c 71.37,86.4 155.04,160.4 248.32,219.8 -52.27,33.2 -100.34,67.9 -144.59,103.7 -132.34,-94.6 -246.04,-215.7 -333.83,-358.8 l -6.79,-11.2 c -14.47,-24 -28.99,-49.3 -43.43,-75.9 -11.37,-21 -22.68,-42.8 -33.9,-65.5 -191.95,-386.9 -354.33,-1021.4 -212.75,-1996.2 0.38,-2.6 0.91,-5.2 1.52,-7.7 -37,-13.8 -72.16,-33 -104.95,-56.5 -18.28,-13 -36.01,-27.1 -52.42,-43.1 l -0.4,-0.4 c -146.78,-143.6 -400.86,-479.5 -453.28,-1115.1 -1.67,-20.4 4.41,-39.4 15.37,-54.8 13.76,-19.4 35.34,-33 60.88,-35.2 2.33,-0.1 4.65,-0.2 6.95,-0.2 3.88,0 7.63,0.5 11.39,1 37.8,5.3 68.35,35.9 71.61,75.5 46.68,566 261.25,865.3 392.73,998.4 3.65,3.7 7.48,7.8 11,11.3 12.41,12.1 25.83,22.7 39.87,32.2 91.64,61.9 213.32,66.5 306.18,6.8 97.81,-62.9 185.89,-168.8 261.73,-287.3 182.85,-285.5 294.07,-644.1 295.63,-649.2 11.96,-39.1 50.14,-62.9 89.41,-58.3 4.89,0.6 9.8,1.4 14.68,2.9 25.98,8 44.99,27.5 53.68,51.2 6.04,16.5 7.24,34.8 1.74,52.9 -8.56,28 -190.64,615.6 -498.54,922.9" /><path
         id="path362"
         style="fill:#58b49e;fill-opacity:1;fill-rule:nonzero;stroke:none"
         d="m 11148.2,6734.9 c 1.8,-37.1 2.8,-74.7 2.8,-112.7 0,-425.9 -115.9,-804.1 -295.2,-1042.3 l 269.6,105.4 c 196.2,462.5 77.3,896.5 22.8,1049.6" /><path
         id="path364"
         style="fill:#d8d7d5;fill-opacity:1;fill-rule:nonzero;stroke:none"
         d="m 14023.9,3965.6 c -4.1,-0.1 -8.1,-0.2 -12.2,-0.3 -5.1,-0.1 -10.1,-0.2 -15.2,-0.3 -4.2,-0.1 -8.4,-0.1 -12.6,-0.2 -5,0 -9.9,-0.1 -14.9,-0.2 -5.3,0 -10.7,0 -16,0 -7.7,0 -15.4,0.1 -23.1,0.1 -4.9,0.1 -9.9,0.1 -14.8,0.2 -4.5,0.1 -9,0.2 -13.4,0.2 -4.8,0.1 -9.6,0.2 -14.3,0.4 -4.5,0.1 -8.9,0.2 -13.3,0.3 -4.9,0.2 -9.7,0.3 -14.6,0.5 -4.3,0.2 -8.7,0.3 -13,0.5 -4.9,0.2 -9.9,0.4 -14.8,0.6 -4.2,0.2 -8.5,0.4 -12.7,0.6 -5.1,0.3 -10.1,0.6 -15.2,0.8 -4.1,0.3 -8.2,0.5 -12.3,0.7 -5.3,0.3 -10.6,0.7 -15.8,1 -3.9,0.3 -7.7,0.5 -11.6,0.8 -5.8,0.4 -11.7,0.8 -17.5,1.2 -3.2,0.3 -6.4,0.5 -9.7,0.7 -7.6,0.6 -15.2,1.2 -22.9,1.9 -1.4,0.1 -2.9,0.2 -4.3,0.3 -9.1,0.8 -18.3,1.6 -27.4,2.5 -2,0.2 -4.1,0.4 -6.1,0.6 -7,0.7 -14.1,1.4 -21.1,2.1 -2.8,0.3 -5.6,0.6 -8.4,0.9 -6.3,0.6 -12.5,1.3 -18.7,2 -3.1,0.3 -6.2,0.6 -9.3,1 -5.9,0.7 -11.8,1.3 -17.7,2 -3.2,0.4 -6.3,0.8 -9.5,1.2 -5.9,0.7 -11.7,1.4 -17.5,2.1 -3.1,0.4 -6.2,0.8 -9.2,1.2 -6.1,0.8 -12,1.5 -18,2.3 -2.8,0.4 -5.6,0.8 -8.4,1.2 -6.5,0.8 -12.9,1.7 -19.2,2.6 -2.4,0.3 -4.7,0.7 -7,1 -7.7,1.1 -15.4,2.2 -23.1,3.3 -0.9,0.2 -1.8,0.3 -2.7,0.4 -17.7,2.7 -35.3,5.4 -52.7,8.3 l -2.7,0.4 c -7.5,1.3 -15.1,2.5 -22.6,3.8 -1.8,0.3 -3.7,0.6 -5.6,0.9 -6.6,1.2 -13.1,2.3 -19.7,3.4 -2,0.4 -4,0.8 -6.1,1.1 -6.3,1.1 -12.5,2.3 -18.7,3.4 -2.2,0.4 -4.4,0.8 -6.6,1.2 -6.2,1.1 -12.4,2.3 -18.5,3.4 -2,0.4 -3.9,0.8 -5.9,1.1 -6.4,1.3 -12.8,2.5 -19.2,3.7 -1.6,0.3 -3.3,0.7 -4.9,1 -7.1,1.3 -14.1,2.7 -21.1,4.1 l -2.5,0.5 c -24.1,4.9 -47.7,9.8 -70.6,14.8 l -1.7,0.4 c -6.9,1.5 -13.7,3 -20.5,4.5 -1.3,0.3 -2.5,0.6 -3.8,0.9 -6.1,1.3 -12.1,2.7 -18.1,4.1 -1.5,0.3 -2.9,0.6 -4.4,0.9 -5.8,1.4 -11.5,2.7 -17.2,4 -1.5,0.4 -2.9,0.7 -4.4,1.1 -5.7,1.3 -11.4,2.6 -17,4 -1.3,0.3 -2.7,0.6 -4,0.9 -5.9,1.4 -11.8,2.8 -17.6,4.3 l -2.6,0.6 c -27.3,6.7 -53.3,13.2 -77.8,19.6 l -2.1,0.6 c -5.3,1.4 -10.5,2.8 -15.7,4.2 -1,0.2 -2,0.5 -3,0.8 -4.8,1.3 -9.6,2.5 -14.3,3.8 -1.1,0.3 -2.1,0.6 -3.2,0.9 -4.6,1.2 -9.1,2.4 -13.5,3.7 -1.1,0.3 -2.3,0.6 -3.4,0.9 -4.4,1.2 -8.8,2.4 -13.1,3.6 -0.9,0.3 -1.9,0.6 -2.8,0.8 -4.7,1.3 -9.3,2.6 -13.8,3.9 l -1.4,0.4 c -15.4,4.3 -29.7,8.5 -43.1,12.4 l -0.4,0.2 c -4.1,1.2 -8.1,2.4 -12,3.5 l -2.6,0.8 c -3.2,1 -6.4,1.9 -9.4,2.9 -1,0.2 -1.9,0.5 -2.8,0.8 -2.9,0.9 -5.7,1.7 -8.5,2.6 -1,0.3 -1.9,0.6 -2.9,0.9 -2.7,0.8 -5.3,1.6 -7.9,2.4 l -2.5,0.8 c -2.5,0.8 -4.9,1.5 -7.3,2.3 l -2.6,0.8 c -2.3,0.7 -4.5,1.4 -6.6,2.1 l -2.3,0.7 c -5.7,1.8 -10.8,3.4 -15.5,4.9 l -1.7,0.6 c -1.6,0.5 -3.2,1 -4.7,1.5 l -2.4,0.8 c -1.2,0.4 -2.4,0.8 -3.5,1.2 l -2.1,0.7 c -0.9,0.3 -1.8,0.6 -2.7,0.8 l -2.3,0.8 -1.9,0.6 -1.8,0.7 -1.3,0.4 c -3.5,1.2 -5.4,1.8 -5.4,1.8 l -657.8,257.4 -393.6,154 c 4.9,-66.5 9.8,-135.3 14.6,-205.6 l 1036.8,-405.8 c 0,0 661.8,-230.4 1280.7,-202.9 v 200 c -2.3,-0.1 -4.6,-0.2 -6.9,-0.3 -3.9,-0.2 -7.9,-0.3 -11.8,-0.5 -5.2,-0.1 -10.3,-0.3 -15.5,-0.5" /><path
         id="path366"
         style="fill:#d8d7d5;fill-opacity:1;fill-rule:nonzero;stroke:none"
         d="m 7307.03,4169.8 c 0,0 -1.22,-0.4 -3.36,-1.1 l -0.14,-0.1 -2.22,-0.7 -1.02,-0.4 -2.35,-0.7 -1.9,-0.7 -2.35,-0.8 c -0.98,-0.3 -2.07,-0.7 -3.16,-1 -1.53,-0.5 -3.17,-1.1 -4.9,-1.6 -0.91,-0.3 -1.78,-0.6 -2.74,-0.9 -1.28,-0.4 -2.66,-0.9 -4.03,-1.3 -0.86,-0.3 -1.7,-0.6 -2.6,-0.9 -1.37,-0.4 -2.8,-0.9 -4.26,-1.3 -1.2,-0.4 -2.41,-0.8 -3.67,-1.2 -1.3,-0.4 -2.63,-0.9 -4,-1.3 -1.51,-0.5 -3.08,-1 -4.68,-1.5 -1.35,-0.4 -2.68,-0.8 -4.09,-1.3 -1.8,-0.5 -3.68,-1.1 -5.57,-1.7 -1.32,-0.4 -2.6,-0.8 -3.96,-1.3 -2.85,-0.8 -5.81,-1.8 -8.84,-2.7 -1.69,-0.5 -3.44,-1.1 -5.18,-1.6 -2.22,-0.7 -4.44,-1.3 -6.75,-2 -1.72,-0.6 -3.51,-1.1 -5.28,-1.7 -2.18,-0.6 -4.37,-1.3 -6.62,-1.9 -1.84,-0.6 -3.73,-1.2 -5.63,-1.7 -2.16,-0.7 -4.35,-1.3 -6.58,-2 -2.08,-0.6 -4.17,-1.2 -6.3,-1.9 -2.35,-0.7 -4.75,-1.4 -7.17,-2.1 -2.04,-0.6 -4.06,-1.2 -6.14,-1.8 -2.64,-0.7 -5.35,-1.5 -8.06,-2.3 -2.05,-0.6 -4.06,-1.2 -6.16,-1.8 -4.59,-1.3 -9.28,-2.7 -14.07,-4 -1.75,-0.5 -3.58,-1 -5.35,-1.5 -3.28,-1 -6.55,-1.9 -9.91,-2.8 -2.41,-0.7 -4.89,-1.4 -7.35,-2.1 -2.79,-0.8 -5.57,-1.5 -8.42,-2.3 -2.65,-0.7 -5.34,-1.5 -8.04,-2.2 -2.88,-0.8 -5.79,-1.6 -8.72,-2.4 -2.7,-0.7 -5.41,-1.5 -8.16,-2.2 -2.93,-0.8 -5.9,-1.6 -8.89,-2.4 -2.89,-0.8 -5.76,-1.6 -8.7,-2.3 -3.12,-0.9 -6.31,-1.7 -9.49,-2.5 -2.79,-0.8 -5.55,-1.5 -8.38,-2.2 -5.76,-1.6 -11.6,-3.1 -17.52,-4.6 -2.83,-0.7 -5.72,-1.5 -8.58,-2.2 -3.42,-0.9 -6.81,-1.7 -10.28,-2.6 -3.27,-0.8 -6.59,-1.7 -9.9,-2.5 -3.19,-0.8 -6.37,-1.6 -9.6,-2.4 -3.38,-0.8 -6.79,-1.7 -10.22,-2.5 -3.3,-0.8 -6.62,-1.6 -9.96,-2.4 -3.4,-0.9 -6.82,-1.7 -10.26,-2.5 -3.45,-0.9 -6.93,-1.7 -10.42,-2.5 -3.48,-0.9 -6.94,-1.7 -10.46,-2.5 -3.57,-0.9 -7.18,-1.7 -10.79,-2.5 -3.5,-0.9 -6.97,-1.7 -10.51,-2.5 -6.66,-1.5 -13.39,-3.1 -20.18,-4.6 -3.61,-0.8 -7.29,-1.6 -10.94,-2.5 -3.7,-0.8 -7.4,-1.6 -11.14,-2.4 -3.88,-0.9 -7.8,-1.8 -11.72,-2.6 -3.53,-0.8 -7.05,-1.6 -10.61,-2.3 -4.05,-0.9 -8.12,-1.8 -12.21,-2.6 -3.58,-0.8 -7.17,-1.6 -10.77,-2.3 -4.09,-0.9 -8.19,-1.7 -12.31,-2.6 -3.64,-0.8 -7.3,-1.5 -10.96,-2.3 -4.19,-0.8 -8.37,-1.7 -12.6,-2.5 -3.54,-0.8 -7.11,-1.5 -10.68,-2.2 -10.7,-2.1 -21.5,-4.2 -32.42,-6.3 -0.99,-0.2 -1.96,-0.4 -2.96,-0.6 -4.73,-0.9 -9.53,-1.8 -14.3,-2.7 -3.37,-0.6 -6.72,-1.3 -10.1,-1.9 -4.66,-0.8 -9.35,-1.7 -14.04,-2.6 -3.6,-0.6 -7.2,-1.3 -10.82,-1.9 -4.7,-0.8 -9.42,-1.7 -14.15,-2.5 -3.57,-0.6 -7.15,-1.3 -10.74,-1.9 -4.86,-0.8 -9.72,-1.7 -14.61,-2.5 -3.43,-0.6 -6.88,-1.1 -10.33,-1.7 -5.09,-0.9 -10.18,-1.7 -15.3,-2.5 -3.03,-0.5 -6.09,-1 -9.14,-1.5 -18.81,-3 -37.83,-5.9 -57.04,-8.7 -3.05,-0.5 -6.09,-0.9 -9.15,-1.3 -5.43,-0.8 -10.89,-1.6 -16.34,-2.3 -3.36,-0.5 -6.71,-1 -10.07,-1.4 -5.41,-0.8 -10.83,-1.5 -16.26,-2.2 -3.4,-0.4 -6.81,-0.9 -10.23,-1.3 -5.49,-0.7 -11,-1.4 -16.52,-2.1 -3.21,-0.4 -6.44,-0.8 -9.66,-1.2 -5.8,-0.7 -11.6,-1.4 -17.42,-2.1 -2.09,-0.2 -4.18,-0.4 -6.27,-0.7 -21.22,-2.4 -42.59,-4.6 -64.1,-6.7 -2.72,-0.3 -5.44,-0.5 -8.17,-0.8 -5.98,-0.5 -11.98,-1.1 -17.99,-1.6 -3.13,-0.3 -6.26,-0.5 -9.39,-0.8 -6.01,-0.5 -12.02,-1 -18.04,-1.5 -3,-0.2 -6.01,-0.4 -9.01,-0.7 -6.21,-0.4 -12.41,-0.9 -18.63,-1.3 -2.63,-0.2 -5.27,-0.4 -7.91,-0.6 -6.62,-0.4 -13.24,-0.9 -19.87,-1.3 l -2.2,-0.1 c -23.54,-1.4 -47.17,-2.5 -70.85,-3.4 -2.22,-0.1 -4.44,-0.1 -6.67,-0.2 -6.54,-0.2 -13.09,-0.4 -19.64,-0.6 -2.72,-0.1 -5.43,-0.1 -8.15,-0.2 -6.45,-0.1 -12.9,-0.3 -19.36,-0.4 -2.67,0 -5.34,0 -8.01,-0.1 -6.65,-0.1 -13.29,-0.1 -19.93,-0.2 -2.07,0 -4.14,0 -6.21,0 -31.91,-0.1 -63.82,0.5 -95.64,1.7 -1.8,0 -3.61,0.1 -5.41,0.2 -6.88,0.2 -13.76,0.6 -20.64,0.9 -2.29,0.1 -4.58,0.2 -6.86,0.3 -6.79,0.4 -13.57,0.8 -20.34,1.2 -2.21,0.1 -4.42,0.3 -6.63,0.4 -6.98,0.5 -13.96,1 -20.93,1.5 -1.42,0.1 -2.83,0.2 -4.24,0.3 -6.24,0.5 -12.5,1 -18.73,1.5 v -200 c 642.58,-55.8 1369.23,197.2 1369.23,197.2 l 1126.04,440.7 c 3.06,66.6 6.21,134.5 9.44,203.7 L 7307.03,4169.8" /><path
         id="path368"
         style="fill:#d8d7d5;fill-opacity:1;fill-rule:nonzero;stroke:none"
         d="m 10823.6,5545.9 -370.1,-144.8 -411.3,-161 255.6,-100 525.8,205.8 c 3.6,8.5 7,17 10.5,25.4 l 291.3,114 c 20.5,48.4 37.5,96.5 51.6,144 0,0 221.2,-99.9 463.9,83.5 l 471.4,352.6 c 30.7,22.9 66,38.8 103.4,46.5 l 741.7,202.4 -581.5,134.3 78.5,-87.3 -238.7,-49.4 c -37.4,-7.7 -72.7,-23.6 -103.4,-46.5 l -471.4,-352.6 c -1.9,-1.4 -3.8,-2.7 -5.7,-4.1 -5.7,-4.2 -11.3,-8.4 -17,-12.3 -3.3,-2.2 -6.6,-4.3 -9.9,-6.5 -4.2,-2.7 -8.4,-5.6 -12.6,-8.2 -3.2,-2.1 -6.5,-3.9 -9.7,-5.8 -4.2,-2.5 -8.4,-5.1 -12.6,-7.5 -3,-1.7 -5.9,-3.1 -8.8,-4.7 -4.4,-2.4 -8.9,-4.9 -13.3,-7.1 -2.5,-1.3 -5,-2.4 -7.5,-3.6 -4.8,-2.3 -9.6,-4.7 -14.3,-6.9 -1.8,-0.8 -3.6,-1.5 -5.3,-2.2 -5.5,-2.4 -10.9,-4.8 -16.2,-6.9 -1.6,-0.6 -3.2,-1.2 -4.8,-1.8 -5.5,-2.1 -11,-4.2 -16.4,-6.1 -1,-0.4 -2,-0.6 -3.1,-1 -5.9,-2 -11.8,-4 -17.7,-5.7 -0.9,-0.3 -1.8,-0.5 -2.8,-0.8 -5.9,-1.7 -11.7,-3.4 -17.5,-4.9 l -2.6,-0.5 c -5.8,-1.5 -11.6,-2.9 -17.4,-4.1 l -1.1,-0.2 c -6.2,-1.2 -12.3,-2.4 -18.3,-3.4 l -1.2,-0.2 c -5.9,-0.9 -11.9,-1.8 -17.7,-2.5 l -0.2,-0.1 c -12.3,-1.5 -24.3,-2.5 -35.8,-3.1 h -0.2 c -75.3,-3.5 -132.7,11.9 -158.8,20.8 l -0.3,0.1 c -3.9,1.3 -7,2.5 -9.4,3.4 l -0.6,0.3 c -2.2,0.8 -3.7,1.5 -4.5,1.8 l -0.6,0.3 c -14.1,-47.5 -31.1,-95.6 -51.6,-144 l -291.3,-113.9 c -3.4,-8.5 -6.9,-17 -10.5,-25.5" /><path
         id="path370"
         style="fill:#d8d7d5;fill-opacity:1;fill-rule:nonzero;stroke:none"
         d="m 13421.9,9877.1 c 0,0 -449.3,-43.7 -415.4,-1048.2 l -31.4,-2466.9 -136.7,49.3 30.6,2417.6 c 19.3,1043.1 552.9,1048.2 552.9,1048.2" /><path
         id="path372"
         style="fill:#eea87b;fill-opacity:1;fill-rule:nonzero;stroke:none"
         d="m 11430.4,13873.6 c -334.5,244.5 -363.6,652.5 -363.6,652.5 -118.4,-109.6 -248.6,-139.5 -355.6,-139.5 -128.3,0 -223,43.1 -223,43.1 -176.6,-75.4 -349.3,-105.3 -510.59,-105.3 -383.38,0 -701.58,169.1 -850.39,298.9 0,0 -75.79,-415.4 -444.09,-749.7 352.02,454.7 387.3,933 387.3,933 0,0 451.59,-334.3 933.27,-334.2 152.9,0 309,33.7 454.5,122.5 0,0 145.1,-59.6 316.2,-59.6 126.5,0 267.1,32.6 373.7,145.9 0,0 70.6,-517.5 282.3,-807.6" /><path
         id="path374"
         style="fill:#ffffff;fill-opacity:1;fill-rule:nonzero;stroke:none"
         d="m 11376.7,12423.1 c 0,0 -361.9,-70.5 -518.7,-352.8 0,0 -481.4,454.8 -846.4,203.9 0,0 -317.86,270.5 -807.88,-203.9 -125.45,250.9 -415.54,360.7 -415.54,360.7 -203.85,885.9 -105.05,1442.6 -105.05,1442.6 352.02,454.7 387.3,933 387.3,933 0,0 784.03,-580.2 1387.77,-211.7 0,0 439,-180.3 689.9,86.3 0,0 70.6,-517.5 282.3,-807.6 0,0 104.3,-846.8 -53.7,-1450.5 z m -126.7,2477.6 c -243,713.5 -1136.8,697.8 -1136.8,697.8 -917.32,7.8 -1160.38,-580.2 -1160.38,-580.2 -713.47,-352.8 -567.13,-1528.9 -567.13,-1528.9 L 8528.31,12254 c 0,0 116.25,-1000.8 1402.9,-1204.8 26.45,-4.2 53.22,-6 79.99,-6 h 96.4 c 26.8,0 53.6,1.8 80,6 1286.7,204 1426.4,1204.8 1426.4,1204.8 l 142.7,1235.4 c 98.9,1285.8 -506.7,1411.3 -506.7,1411.3" /><path
         id="path376"
         style="fill:#69ccb4;fill-opacity:1;fill-rule:nonzero;stroke:none"
         d="m 6928.13,14068.5 -212.83,602.6 c 99.04,147.3 156.85,324.5 156.85,515.3 v 0 c 0,510.5 -413.82,924.3 -924.3,924.3 H 2254.59 c -510.48,0 -924.3,-413.8 -924.3,-924.3 v 0 c 0,-510.5 413.82,-924.3 924.3,-924.3 h 3693.26 c 166.21,0 322.15,43.9 456.92,120.7 l 523.36,-314.3" /><path
         id="path378"
         style="fill:#58b49e;fill-opacity:1;fill-rule:nonzero;stroke:none"
         d="m 6715.3,14671.1 c 99.04,147.3 156.85,324.5 156.85,515.3 v 0 c 0,224.2 -79.88,429.8 -212.71,589.9 -298.16,-789.9 -2026.13,-1395.8 -4113.26,-1395.8 -271.45,0 -536.81,10.3 -793.76,29.8 144.59,-93.7 317.01,-148.2 502.17,-148.2 h 3693.26 c 166.21,0 322.15,43.9 456.92,120.7 l 523.36,-314.3 -212.83,602.6" /><path
         id="path380"
         style="fill:#69ccb4;fill-opacity:1;fill-rule:nonzero;stroke:none"
         d="M 6266.22,12439.8 H 2894.7 c -345.26,0 -625.16,279.9 -625.16,625.2 v 0 c 0,345.3 279.9,625.2 625.16,625.2 h 3371.52 c 345.26,0 625.16,-279.9 625.16,-625.2 v 0 c 0,-345.3 -279.9,-625.2 -625.16,-625.2" /><path
         id="path382"
         style="fill:#58b49e;fill-opacity:1;fill-rule:nonzero;stroke:none"
         d="m 6735.95,13477.3 c -393.21,-585.9 -1963.2,-1026 -3850.96,-1037.2 3.25,-0.1 6.46,-0.3 9.71,-0.3 h 3371.52 c 345.26,0 625.16,279.9 625.16,625.2 v 0 c 0,158 -58.75,302.2 -155.43,412.3" /><path
         id="path384"
         style="fill:#ffffff;fill-opacity:1;fill-rule:nonzero;stroke:none"
         d="M 6133.41,15718.8 H 2075.88 c -35.2,0 -63.74,28.6 -63.74,63.8 0,35.2 28.54,63.7 63.74,63.7 h 4057.53 c 35.2,0 63.73,-28.5 63.73,-63.7 0,-35.2 -28.53,-63.8 -63.73,-63.8" /><path
         id="path386"
         style="fill:#ffffff;fill-opacity:1;fill-rule:nonzero;stroke:none"
         d="M 6133.41,15318.8 H 2075.88 c -35.2,0 -63.74,28.6 -63.74,63.8 0,35.2 28.54,63.7 63.74,63.7 h 4057.53 c 35.2,0 63.73,-28.5 63.73,-63.7 0,-35.2 -28.53,-63.8 -63.73,-63.8" /><path
         id="path388"
         style="fill:#ffffff;fill-opacity:1;fill-rule:nonzero;stroke:none"
         d="M 6133.41,14918.8 H 2075.88 c -35.2,0 -63.74,28.6 -63.74,63.8 0,35.2 28.54,63.7 63.74,63.7 h 4057.53 c 35.2,0 63.73,-28.5 63.73,-63.7 0,-35.2 -28.53,-63.8 -63.73,-63.8" /><path
         id="path390"
         style="fill:#ffffff;fill-opacity:1;fill-rule:nonzero;stroke:none"
         d="M 6133.41,14518.8 H 2075.88 c -35.2,0 -63.74,28.6 -63.74,63.8 0,35.2 28.54,63.7 63.74,63.7 h 4057.53 c 35.2,0 63.73,-28.5 63.73,-63.7 0,-35.2 -28.53,-63.8 -63.73,-63.8" /><path
         id="path392"
         style="fill:#ffffff;fill-opacity:1;fill-rule:nonzero;stroke:none"
         d="M 6262.05,13341.9 H 2898.88 c -29.18,0 -52.83,23.6 -52.83,52.8 0,29.2 23.65,52.8 52.83,52.8 h 3363.17 c 29.17,0 52.82,-23.6 52.82,-52.8 0,-29.2 -23.65,-52.8 -52.82,-52.8" /><path
         id="path394"
         style="fill:#ffffff;fill-opacity:1;fill-rule:nonzero;stroke:none"
         d="M 6262.05,13010.3 H 2898.88 c -29.18,0 -52.83,23.6 -52.83,52.8 0,29.2 23.65,52.8 52.83,52.8 h 3363.17 c 29.17,0 52.82,-23.6 52.82,-52.8 0,-29.2 -23.65,-52.8 -52.82,-52.8" /><path
         id="path396"
         style="fill:#ffffff;fill-opacity:1;fill-rule:nonzero;stroke:none"
         d="M 6262.05,12678.8 H 2898.88 c -29.18,0 -52.83,23.6 -52.83,52.8 0,29.2 23.65,52.8 52.83,52.8 h 3363.17 c 29.17,0 52.82,-23.6 52.82,-52.8 0,-29.2 -23.65,-52.8 -52.82,-52.8" /><path
         id="path398"
         style="fill:#9f505b;fill-opacity:1;fill-rule:nonzero;stroke:none"
         d="m 9859.03,12007.7 c 0,0 204.47,-77.5 416.07,9.1 20.5,8.4 43.2,14.4 66.7,16.4 44.6,3.8 86.2,-6.3 74.4,-78 0,0 -0.7,-96.7 -194.7,-154.7 -120.2,-35.9 -292.87,-26.2 -397.59,22.9 -65.98,30.9 -118.59,78.5 -99.6,150.7 3.85,14.6 16.2,28.1 35,36.2 21.02,9 53.58,13.9 99.72,-2.6" /></g></g></svg>