<?xml version="1.0" encoding="UTF-8" standalone="no"?>
<svg
   xmlns:dc="http://purl.org/dc/elements/1.1/"
   xmlns:cc="http://creativecommons.org/ns#"
   xmlns:rdf="http://www.w3.org/1999/02/22-rdf-syntax-ns#"
   xmlns:svg="http://www.w3.org/2000/svg"
   xmlns="http://www.w3.org/2000/svg"
   xmlns:sodipodi="http://sodipodi.sourceforge.net/DTD/sodipodi-0.dtd"
   xmlns:inkscape="http://www.inkscape.org/namespaces/inkscape"
   version="1.1"
   id="svg2"
   xml:space="preserve"
   width="3090.6667"
   height="2589.3333"
   viewBox="0 0 3090.6667 2589.3333"
   sodipodi:docname="2390_SkVNQSBGQU1PIDEwMzYtMjU.eps"><metadata
     id="metadata8"><rdf:RDF><cc:Work
         rdf:about=""><dc:format>image/svg+xml</dc:format><dc:type
           rdf:resource="http://purl.org/dc/dcmitype/StillImage" /></cc:Work></rdf:RDF></metadata><defs
     id="defs6"><clipPath
       clipPathUnits="userSpaceOnUse"
       id="clipPath24"><path
         d="m 1804.24,9258.4 c -134.54,1258.4 -534.33,2646.1 206.18,3660 552.05,755.8 1570.7,1008.3 2506.52,1019.8 1378.74,17 2727.37,-367.6 4094.9,-544 1367.53,-176.4 2857.36,-113.5 3979.46,687.9 732.2,523 1260.2,1328.7 2075.8,1708.6 2511.9,1169.7 3756.5,-1856.9 4130.1,-3721.2 423.2,-2111.76 448.6,-4541.6 1960.2,-6237.6 C 21160.9,5379.2 21672,4974 21870,4380.3 22226.4,3311.7 21181.4,2616.6 20300.5,2346.9 18843.9,1900.9 17247.3,1925.3 15805,2415.5 14556.6,2839.8 13437.6,3596 12176.8,3981.8 10877.9,4379.3 9455.17,4360.5 8167.24,3929 7090.84,3568.3 6072.34,2921.9 4937.16,2918.5 c -972.7,-3 -1931.92,513 -2465.56,1326.3 -916.85,1397.2 -499.89,3236.1 -655.92,4899.9 -3.54,37.8 -7.36,75.7 -11.44,113.7 z"
         id="path22" /></clipPath></defs><sodipodi:namedview
     pagecolor="#ffffff"
     bordercolor="#666666"
     borderopacity="1"
     objecttolerance="10"
     gridtolerance="10"
     guidetolerance="10"
     inkscape:pageopacity="0"
     inkscape:pageshadow="2"
     inkscape:window-width="640"
     inkscape:window-height="480"
     id="namedview4" /><g
     id="g10"
     inkscape:groupmode="layer"
     inkscape:label="ink_ext_XXXXXX"
     transform="matrix(1.3333333,0,0,-1.3333333,0,2589.3333)"><g
       id="g12"
       transform="scale(0.1)"><path
         d="M 23178.9,19420 H 0.00390625 V 5.80078 H 23178.9 V 19420"
         style="fill:#ffffff;fill-opacity:1;fill-rule:nonzero;stroke:none"
         id="path14" /><path
         d="m 1804.24,9258.4 c -134.54,1258.4 -534.33,2646.1 206.18,3660 552.05,755.8 1570.7,1008.3 2506.52,1019.8 1378.74,17 2727.37,-367.6 4094.9,-544 1367.53,-176.4 2857.36,-113.5 3979.46,687.9 732.2,523 1260.2,1328.7 2075.8,1708.6 2511.9,1169.7 3756.5,-1856.9 4130.1,-3721.2 423.2,-2111.76 448.6,-4541.6 1960.2,-6237.6 C 21160.9,5379.2 21672,4974 21870,4380.3 22226.4,3311.7 21181.4,2616.6 20300.5,2346.9 18843.9,1900.9 17247.3,1925.3 15805,2415.5 14556.6,2839.8 13437.6,3596 12176.8,3981.8 10877.9,4379.3 9455.17,4360.5 8167.24,3929 7090.84,3568.3 6072.34,2921.9 4937.16,2918.5 c -972.7,-3 -1931.92,513 -2465.56,1326.3 -916.85,1397.2 -499.89,3236.1 -655.92,4899.9 -3.54,37.8 -7.36,75.7 -11.44,113.7"
         style="fill:#efb2d6;fill-opacity:1;fill-rule:nonzero;stroke:none"
         id="path16" /><g
         id="g18"><g
           id="g20"
           clip-path="url(#clipPath24)"><path
             d="m 15090.4,10804.1 36.3,-659.1 1322.9,223.6 -156.3,562.4 -1202.9,-126.9"
             style="fill:#080909;fill-opacity:1;fill-rule:nonzero;stroke:none"
             id="path26" /><path
             d="m 5792.92,8104.2 v 0 c -233.65,0 -423.07,189.5 -423.07,423.1 v 2261.1 h 846.14 V 8527.3 c 0,-233.6 -189.41,-423.1 -423.07,-423.1"
             style="fill:#f8a298;fill-opacity:1;fill-rule:nonzero;stroke:none"
             id="path28" /><path
             d="m 16028.2,8559.8 -1529.9,-4257.6 -6.6,-18.3 c -83.8,-233 -271.3,-402.6 -489.4,-475.3 L 10608.7,2699.7 10103.6,3797 13153,5653.9 l -496,-493.6 2276.3,3909.8 1094.9,-510.3"
             style="fill:#f1463b;fill-opacity:1;fill-rule:nonzero;stroke:none"
             id="path30" /><path
             d="m 13154.6,1937.6 h 6660.7 l -897.9,6154.3 c -252.1,998.3 -1187.8,1701.74 -2263.4,1701.74 h -162.5 c -1075.6,0 -2011.2,-703.44 -2263.4,-1701.74 L 13154.6,1937.6"
             style="fill:#f1463b;fill-opacity:1;fill-rule:nonzero;stroke:none"
             id="path32" /><path
             d="m 16485,9065.2 v 0 c 233.6,0 423,189.4 423,423.06 v 2261.04 h -846.1 V 9488.26 c 0,-233.66 189.4,-423.06 423.1,-423.06"
             style="fill:#f8a298;fill-opacity:1;fill-rule:nonzero;stroke:none"
             id="path34" /><path
             d="m 14885.5,11435.7 c 0,-770.4 526.1,-1025.5 1142.4,-1025.5 616.3,0 901.1,255.1 901.1,1025.5 0,770.3 -405.5,1394.9 -1021.7,1394.9 -616.3,0 -1021.8,-624.6 -1021.8,-1394.9"
             style="fill:#f8a298;fill-opacity:1;fill-rule:nonzero;stroke:none"
             id="path36" /><path
             d="m 16807.8,11449.2 c -47.8,-193.6 12.4,-375 134.5,-405.2 122.1,-30.1 259.8,102.3 307.6,295.9 47.9,193.6 -12.4,374.9 -134.5,405.1 -122.1,30.1 -259.8,-102.3 -307.6,-295.8"
             style="fill:#f8a298;fill-opacity:1;fill-rule:nonzero;stroke:none"
             id="path38" /><path
             d="m 15510.2,11753.1 -168.1,-493 1.6,-10.8 9.7,-5 h 235.3 c 6.5,0 11.9,5.4 11.9,11.9 0,6.6 -5.4,11.9 -11.9,11.9 H 15370 l 162.7,477.3 c 2.1,6.3 -1.2,13 -7.4,15.2 -6.2,2.1 -13,-1.2 -15.1,-7.5 v 0"
             style="fill:#080909;fill-opacity:1;fill-rule:nonzero;stroke:none"
             id="path40" /><path
             d="m 15775.3,11004.1 c 0,-0.1 -6.5,-2 -18.3,-5.1 -35.6,-9.3 -118.7,-27.8 -209.8,-27.8 -86,-0.1 -178.5,16.7 -245.4,71.1 l -16.7,-1.7 1.7,-16.8 c 73.7,-59.6 171.6,-76.4 260.4,-76.4 125.7,0 234.5,33.8 235.1,33.9 6.3,2 9.8,8.6 7.9,14.9 -2,6.3 -8.6,9.8 -14.9,7.8 v 0.1"
             style="fill:#080909;fill-opacity:1;fill-rule:nonzero;stroke:none"
             id="path42" /><path
             d="m 16054.7,11783.4 -2.7,-1.8 c -13.2,-9.2 -73.8,-47.1 -154.9,-47 -34.5,0 -72.8,6.8 -113.3,25.5 -6,2.8 -13.1,0.2 -15.8,-5.8 -2.8,-6 -0.2,-13.1 5.8,-15.8 43.7,-20.3 85.7,-27.8 123.3,-27.7 101.2,0.1 170.9,52.9 171.9,53.6 l 2.3,16.7 -16.6,2.3 v 0"
             style="fill:#080909;fill-opacity:1;fill-rule:nonzero;stroke:none"
             id="path44" /><path
             d="m 15310.4,11784.4 -2.6,-1.9 c -13.2,-9.1 -73.8,-47.1 -154.9,-47 -34.5,0 -72.8,6.8 -113.3,25.6 -6,2.7 -13.1,0.1 -15.8,-5.8 -2.8,-6 -0.2,-13.1 5.8,-15.9 43.7,-20.2 85.7,-27.7 123.3,-27.7 101.2,0.2 170.8,53 171.9,53.7 l 2.3,16.7 -16.6,2.3 h -0.1"
             style="fill:#080909;fill-opacity:1;fill-rule:nonzero;stroke:none"
             id="path46" /><path
             d="m 18635.6,8699.6 825.1,-4096.3 c 100.6,-499.6 -222.8,-986.1 -722.4,-1086.8 -36.1,-7.3 -72.2,-12.3 -108,-15.3 l -9.1,-0.5 -4344.9,-325.1 -203.6,1190.6 4206.2,1136.8 -839.4,-1102.7 -5.9,4178.7 1202,120.6"
             style="fill:#f1463b;fill-opacity:1;fill-rule:nonzero;stroke:none"
             id="path48" /><path
             d="m 17061.6,11586 3.4,-1.9 c 16.5,-10.4 84.3,-58.6 84.2,-157.9 0,-17 -1.9,-35.5 -6.5,-55.8 -14.2,-62.1 -43.7,-94.3 -74,-112.3 -30.3,-18 -62.4,-21.2 -80.5,-21.2 l -10.8,0.4 -3.6,0.4 c -6.5,0.9 -12.5,-3.6 -13.4,-10.1 -1,-6.6 3.6,-12.6 10.1,-13.5 0.4,-0.1 7,-1 17.7,-1 20.7,0.1 57,3.5 92.6,24.5 35.7,20.9 69.9,60.1 85.1,127.5 4.9,21.9 7.1,42.3 7.1,61.1 0.1,63.4 -24.9,108.9 -49.8,138 -24.8,29.2 -49.5,42.4 -50.4,42.9 -5.8,3.1 -13,0.8 -16.1,-5 -3.1,-5.8 -0.9,-13 4.9,-16.1 v 0"
             style="fill:#080909;fill-opacity:1;fill-rule:nonzero;stroke:none"
             id="path50" /><path
             d="M 14173.9,1937.6 H 5099.23 L 5348.83,6554 13966.8,5551.7 c 324.1,-37.7 557.4,-329.5 522.7,-653.9 l -315.6,-2960.2"
             style="fill:#6671c0;fill-opacity:1;fill-rule:nonzero;stroke:none"
             id="path52" /><path
             d="m 11642.9,5746.1 -1552.1,95.1 v 1525.4 l 1552.1,-28.4 V 5746.1"
             style="fill:#4c8cd1;fill-opacity:1;fill-rule:nonzero;stroke:none"
             id="path54" /><path
             d="m 14302,6845.3 -6352.19,187.4 c -156.71,4.6 -282.7,133.8 -282.7,288.6 v 2835.6 c 0,154.8 125.99,289.6 282.7,301 l 6352.19,463.6 c 224.3,16.4 408,-122.4 408,-310.1 V 7173.1 c 0,-187.7 -183.7,-334.4 -408,-327.8"
             style="fill:#4c8cd1;fill-opacity:1;fill-rule:nonzero;stroke:none"
             id="path56" /><path
             d="m 13925.4,7059.5 -5704.96,138.9 c -143.3,3.5 -258.59,120.1 -258.59,260.6 v 2573.1 c 0,140.5 115.29,262.2 258.59,271.9 l 5704.96,386.9 c 197.8,13.5 359.6,-110.9 359.6,-278 V 7353.2 c 0,-167 -161.8,-298.6 -359.6,-293.7"
             style="fill:#afdeea;fill-opacity:1;fill-rule:nonzero;stroke:none"
             id="path58" /><path
             d="m 11589.7,9031.8 -280.7,-7.6 v 52.6 l 280.7,8.1 z m 122.1,-28.6 -122.1,158.7 v 45.2 l -280.7,-9 v 52.7 l 280.7,9.3 v 122.3 l -280.7,-10.3 v 52.6 l 280.7,10.73 v 122.27 l -280.7,-11.69 v 52.66 l 280.7,12.04 v 122.22 l -280.7,-12.95 v 52.61 l 280.7,13.41 v 122.21 l -280.7,-14.32 v 52.66 l 280.7,14.67 v 122.28 l -280.7,-15.6 v 52.6 l 280.7,16 v 78.9 c 0,18.8 -17,33 -38.1,31.7 l -205,-12.3 c -20.8,-1.2 -37.6,-17.4 -37.6,-36.1 V 9163.9 l -122.9,-168.6 c 39.7,-65.7 57.6,-146 43.4,-232.4 0,0 -5.5,-31.5 -14.5,-83.6 l 221.9,302.4 15.8,0.4 235.4,-308.3 c -10.7,60.8 -17.3,98.1 -17.3,98.1 -14.1,84.1 2.7,163.9 41,231.3"
             style="fill:#4c8cd1;fill-opacity:1;fill-rule:nonzero;stroke:none"
             id="path60" /><path
             d="m 12986.4,8327.9 c -3.2,-0.4 -27.7,-3.2 -61.1,-3.5 -76.6,-0.7 -199.6,12.2 -217.7,99.3 -23,110.9 -101.6,133.5 -104.9,134.4 l -6.3,10.7 12.3,5.7 c 3.8,-1 93.2,-25.8 118.4,-147.6 22.6,-108.8 254.3,-82.2 256.7,-81.9 5.5,0.6 10.5,-2.7 11.2,-7.4 0.8,-4.7 -3.1,-9.1 -8.6,-9.7 z m 34.5,-134.5 c -21.9,486.2 -389.9,895.3 -886.3,995.9 -178.8,36.3 -345.3,-49.7 -422.8,-186.1 -38.3,-67.4 -55.1,-147.2 -41,-231.3 0,0 6.6,-37.3 17.3,-98.1 25.3,-143.3 73.8,-417.9 113.8,-644.1 18.5,5.4 248.7,76 242.5,262.9 -4,119.8 28.9,149.4 60.8,178.1 22.6,20.3 42.1,37.9 47.6,89.9 0.5,4.7 5,8.2 10.4,7.8 5.4,-0.3 9.3,-4.4 8.7,-9.1 -6.1,-58.1 -30,-79.6 -53.1,-100.4 -29,-26.1 -59,-53.1 -55.3,-165.6 6.9,-207 -254.8,-279.3 -257.4,-280 l -1.3,-0.2 c 33.9,-191.6 60.9,-344.3 60.9,-344.3 20.5,-116.3 92.8,-224.1 206.8,-289.1 140.3,-80.2 312.5,-103.6 422.4,19.6 67.1,75.3 124.9,161.1 190.5,239.9 -20.9,8.5 -210.8,87.8 -223.4,162.4 -3.3,19.7 5.2,37.3 25.2,52.4 97.5,73.6 16.3,158.3 12.8,161.8 l 1.1,12.1 13.8,-0.9 c 1,-1.1 97.6,-101.1 -14.8,-185.9 -14.9,-11.3 -21,-23.4 -18.7,-37.1 9.5,-56.5 157.4,-127.3 213.8,-149.9 l 1.7,-1.1 c 24.3,28.3 49.7,55.6 77.2,80.9 91.5,84 207.4,169.1 244.2,285.9 17.5,55.8 5.1,116.6 2.6,173.6"
             style="fill:#4c8cd1;fill-opacity:1;fill-rule:nonzero;stroke:none"
             id="path62" /><path
             d="m 11186.1,8995.3 c -76.4,126.3 -233.3,197.3 -398.5,152.1 -365.1,-99.9 -643.7,-379.2 -745.7,-719.4 20.2,3.3 130.1,24.8 226.9,113.3 107.2,98.3 135.6,224.7 135.9,225.9 l 10.3,6.6 6.8,-9.4 c -1.1,-5.4 -29.6,-132.5 -141,-234.4 -110.8,-101.5 -235.2,-117.8 -240.4,-118.4 l -1,-0.1 -2.1,0.3 c -21,-74.8 -33.9,-152.5 -37.2,-232.1 -2.16,-52.5 -12.69,-108.6 2.3,-160 31.3,-107.8 130.6,-187.5 209.9,-266.8 91.7,-91.7 158.1,-210.4 240.1,-312.2 8.3,21.3 43.3,98.1 145.6,176.9 111.8,86.1 59.4,221.9 58.8,223.3 l 5.3,10.4 11.4,-4.9 c 0.6,-1.4 57.2,-148 -64,-241.3 -113.8,-87.5 -142,-174 -142.2,-174.9 l -2.8,-3.8 c 99.2,-113.5 253.1,-97 381.1,-25.8 107.2,59.6 176,162.8 195.6,275.9 0,0 17.3,100.2 41.5,239.6 l -5,2.2 c -10.9,9.9 -263.4,240.9 -163.6,337.9 43.5,42.2 16,90.4 -13.1,141.3 -30,52.3 -60.9,106.4 -7.6,153 l 12.7,-0.1 -0.4,-11.6 c -43.5,-38.1 -18.1,-82.3 11.2,-133.6 29.4,-51.2 62.6,-109.4 10.3,-160.2 -81.4,-79.1 125,-279.1 158.6,-310.8 41.8,241.1 101.9,587.5 129.2,745.1 9,52.1 14.5,83.6 14.5,83.6 14.2,86.4 -3.7,166.7 -43.4,232.4"
             style="fill:#4c8cd1;fill-opacity:1;fill-rule:nonzero;stroke:none"
             id="path64" /><path
             d="m 10609.5,7605.1 c 121.2,93.3 64.6,239.9 64,241.3 l -11.4,4.9 -5.3,-10.4 c 0.6,-1.4 53,-137.2 -58.8,-223.3 -102.3,-78.8 -137.3,-155.6 -145.6,-176.9 l -2,-5.8 6,-10.1 2.4,-0.3 5.7,1.9 2.8,3.8 c 0.2,0.9 28.4,87.4 142.2,174.9"
             style="fill:#4c8cd1;fill-opacity:1;fill-rule:nonzero;stroke:none"
             id="path66" /><path
             d="m 9404.9,9837.52 -1195.24,-62.31 v 144.64 l 1195.24,67.5 v -149.83"
             style="fill:#e4e4f5;fill-opacity:1;fill-rule:nonzero;stroke:none"
             id="path68" /><path
             d="m 9404.9,9370.6 -1195.24,-46.3 v 144.67 l 1195.24,51.47 V 9370.6"
             style="fill:#e4e4f5;fill-opacity:1;fill-rule:nonzero;stroke:none"
             id="path70" /><path
             d="m 9404.9,8903.7 -1195.24,-30.3 v 144.7 l 1195.24,35.4 v -149.8"
             style="fill:#e4e4f5;fill-opacity:1;fill-rule:nonzero;stroke:none"
             id="path72" /><path
             d="m 12202.3,5269.1 -2610.39,190.5 c -70.46,5.2 -115.91,78.7 -84.02,135.8 l 125.78,224.9 c 16.21,29 48.88,45.9 84.63,43.7 l 2339.2,-143.3 c 40.7,-2.4 78.1,-24.9 96.7,-58.2 l 145.6,-260.5 c 37.3,-66.7 -15.8,-138.8 -97.5,-132.9"
             style="fill:#4c8cd1;fill-opacity:1;fill-rule:nonzero;stroke:none"
             id="path74" /><path
             d="M 8775.71,1937.6 H 2115.02 l 985.66,5390.3 c 252.2,998.4 1187.8,1701.8 2263.41,1701.8 h 162.51 c 1075.62,0 2011.24,-703.4 2263.42,-1701.8 l 985.69,-5390.3"
             style="fill:#ffffff;fill-opacity:1;fill-rule:nonzero;stroke:none"
             id="path76" /><path
             d="m 7392.4,10474.8 c 0,-770.4 -526.14,-1025.51 -1142.44,-1025.51 -616.29,0 -901.13,255.11 -901.13,1025.51 0,770.3 405.53,1394.8 1021.79,1394.8 616.29,0 1021.78,-624.5 1021.78,-1394.8"
             style="fill:#f8a298;fill-opacity:1;fill-rule:nonzero;stroke:none"
             id="path78" /><path
             d="m 11398.4,6692.5 402.3,-92.7 165.1,717 c 25.6,111.1 -43.7,221.9 -154.8,247.5 -111.1,25.5 -221.9,-43.8 -247.5,-154.9 l -165.1,-716.9"
             style="fill:#f8a298;fill-opacity:1;fill-rule:nonzero;stroke:none"
             id="path80" /><path
             d="M 12049.5,7202.2 C 11640,6789 10803.8,6426.8 11046.7,6186 c 243,-240.7 1303.4,-214.3 1712.9,198.9 409.5,413.3 715.5,921.8 472.5,1162.6 -242.9,240.7 -773.1,67.9 -1182.6,-345.3"
             style="fill:#f8a298;fill-opacity:1;fill-rule:nonzero;stroke:none"
             id="path82" /><path
             d="m 13063.4,7630.8 c 0,0 -16.3,-33.1 -43.2,-83.4 -40.5,-75.5 -104.7,-189.7 -173.2,-288 -34.1,-49.2 -69.4,-94.3 -102.9,-128.6 -33.5,-34.2 -65.5,-57.2 -91.1,-62.9 -5.4,-1.3 -8.7,-6.6 -7.5,-12 1.3,-5.4 6.6,-8.8 12,-7.5 43.2,10.3 88.8,51.7 135.9,107.2 140.4,166.5 287.7,466.1 288,466.4 l -4.6,13.4 -13.4,-4.6 v 0"
             style="fill:#080909;fill-opacity:1;fill-rule:nonzero;stroke:none"
             id="path84" /><path
             d="m 13200.8,7563 c 0,-0.1 -14.4,-33 -37.9,-83.9 -35.3,-76.3 -91.2,-192.6 -149.8,-296.7 -58.1,-103.9 -120.7,-196.2 -163.3,-221.8 l -3.3,-13.8 13.7,-3.3 c 33.9,21 71.4,69.1 111,130 118,182.6 247.8,481.3 248,481.6 l -5.2,13.1 -13.2,-5.2 v 0"
             style="fill:#080909;fill-opacity:1;fill-rule:nonzero;stroke:none"
             id="path86" /><path
             d="m 13287.1,7407 c 0,0 -14.3,-33 -37.9,-83.9 -35.3,-76.3 -91.2,-192.6 -149.8,-296.7 -58.1,-103.9 -120.7,-196.2 -163.3,-221.8 l -3.3,-13.8 13.7,-3.3 c 33.9,21.1 71.4,69.1 111,130 118,182.7 247.9,481.3 248,481.6 l -5.2,13.1 -13.2,-5.2 v 0"
             style="fill:#080909;fill-opacity:1;fill-rule:nonzero;stroke:none"
             id="path88" /><path
             d="M 6780.67,8371.5 10193.9,5960.9 9013.33,6068 11142.6,6845.3 11756,5804.7 10044.9,4318.1 c -331.88,-288.3 -829.95,-262 -1129.85,53.5 l -50.76,53.6 -2874.28,3033.1 790.66,913.2"
             style="fill:#ffffff;fill-opacity:1;fill-rule:nonzero;stroke:none"
             id="path90" /><path
             d="M 6490.62,1837 H 1582.77 c -305.04,0 -552.33,247.3 -552.33,552.3 v 3635.3 c 0,305 247.29,552.3 552.33,552.3 h 4907.85 c 305.03,0 552.29,-247.3 552.29,-552.3 V 2389.3 c 0,-305 -247.26,-552.3 -552.29,-552.3"
             style="fill:#4c8cd1;fill-opacity:1;fill-rule:nonzero;stroke:none"
             id="path92" /><path
             d="m 5629.13,9537.84 c 99.41,18.72 196.32,84.45 277.51,171.29 105.42,112.7 344.81,382.37 344.78,538.07 0,172 -214.49,173.5 -74.86,444.8 139.65,271.2 414.39,52.3 380.64,-32.6 -33.75,-84.8 212.34,-84.8 212.34,-84.8 0,0 -168.38,440.4 0,531.1 168.35,90.6 621.5,198.2 725.28,396.9 138.03,264.1 -117.09,659.5 -366.4,748 -313.28,111.3 -804.07,-49.4 -1087.92,-192.5 -269.66,-136 -412.96,-349.3 -607.08,-568.5 -260.41,-294.1 -125.32,-752.8 -298.84,-1099.9 -96.01,-192 74.17,-599.71 201.98,-741.33 91.27,-101.06 193.18,-129.3 292.57,-110.53"
             style="fill:#080909;fill-opacity:1;fill-rule:nonzero;stroke:none"
             id="path94" /><path
             d="m 14782.3,11999.5 c 77.7,0 1790.5,0 1790.5,0 l 290.6,-1541.5 1092.4,201.4 c 0,0 -627.3,2415.2 -1893.9,2337.5 -1266.7,-77.8 -1279.6,-997.4 -1279.6,-997.4"
             style="fill:#080909;fill-opacity:1;fill-rule:nonzero;stroke:none"
             id="path96" /><path
             d="m 6306.75,7097.4 1889.59,-1994 c 6.97,-7.4 18.58,-7.7 25.94,-0.7 7.35,7 7.66,18.6 0.69,25.9 l -1889.59,1994 c -6.97,7.4 -18.59,7.7 -25.94,0.7 -7.35,-7 -7.66,-18.6 -0.69,-25.9"
             style="fill:#080909;fill-opacity:1;fill-rule:nonzero;stroke:none"
             id="path98" /><path
             d="m 7032.33,8171.3 578.3,-408.4 c 8.27,-5.9 19.72,-3.9 25.56,4.4 5.84,8.3 3.88,19.7 -4.4,25.6 l -578.29,408.4 c -8.28,5.8 -19.72,3.9 -25.57,-4.4 -5.85,-8.3 -3.88,-19.7 4.4,-25.6"
             style="fill:#080909;fill-opacity:1;fill-rule:nonzero;stroke:none"
             id="path100" /><path
             d="m 13806.7,5569.5 c 0.1,0.2 11.6,72.6 29.6,183.4 26.9,166.1 68.2,418.1 106.4,639.7 19,110.8 37.3,214.1 52.6,295.1 15.2,80.8 27.8,140.4 34.3,160.6 3.1,9.6 -2.2,19.9 -11.9,23 -9.6,3.1 -19.9,-2.2 -23,-11.9 -10.4,-32.7 -28.8,-126.8 -51.7,-253.1 -68.3,-377.6 -172.5,-1030.9 -172.5,-1031 -1.6,-10 5.2,-19.4 15.2,-21 10,-1.6 19.4,5.2 21,15.2 v 0"
             style="fill:#080909;fill-opacity:1;fill-rule:nonzero;stroke:none"
             id="path102" /><path
             d="M 14448.3,4448.8 17417,5251 c 8,2.2 13.5,9.4 13.6,17.6 l 21.9,2917.6 c 0.1,10.1 -8.1,18.4 -18.2,18.4 -10.1,0.1 -18.4,-8 -18.5,-18.2 L 17394,5282.8 14438.8,4484.2 c -9.8,-2.6 -15.6,-12.7 -13,-22.5 2.7,-9.8 12.7,-15.6 22.5,-12.9 v 0"
             style="fill:#080909;fill-opacity:1;fill-rule:nonzero;stroke:none"
             id="path104" /><path
             d="m 14277.6,3157.3 4354,325.6 0.7,0.1 c 1.4,0.2 207.9,23.3 419.8,145.3 211.9,121.7 429.8,345.6 445.3,741 0.4,10.2 -7.5,18.7 -17.6,19.1 -10.2,0.4 -18.7,-7.5 -19.1,-17.6 -15.6,-381.7 -222.1,-592.1 -426.9,-710.7 -102.3,-59 -204.1,-94.3 -280.1,-114.7 -38,-10.2 -69.5,-16.7 -91.5,-20.6 -11,-2 -19.6,-3.4 -25.4,-4.2 -5.8,-0.8 -8.6,-1.1 -8.6,-1.1 l 2.1,-18.3 -1.4,18.3 -4354,-325.6 c -10.1,-0.8 -17.7,-9.6 -17,-19.7 0.8,-10.1 9.6,-17.7 19.7,-16.9 v 0"
             style="fill:#080909;fill-opacity:1;fill-rule:nonzero;stroke:none"
             id="path106" /></g></g><path
         d="m 10091.6,14354.6 h -322.41 v 322.4 h -286.57 v -322.4 H 9160.18 V 14068 h 322.44 v -322.4 h 286.57 v 322.4 h 322.41 v 286.6"
         style="fill:#efb2d6;fill-opacity:1;fill-rule:nonzero;stroke:none"
         id="path108" /><path
         d="m 20281,13734 h -322.4 v 322.5 H 19672 V 13734 h -322.5 v -286.6 H 19672 V 13125 h 286.6 v 322.4 h 322.4 v 286.6"
         style="fill:#efb2d6;fill-opacity:1;fill-rule:nonzero;stroke:none"
         id="path110" /><path
         d="m 20833.7,8761.3 h -190.4 v 190.4 h -169.2 v -190.4 h -190.4 v -169.2 h 190.4 v -190.4 h 169.2 v 190.4 h 190.4 v 169.2"
         style="fill:#efb2d6;fill-opacity:1;fill-rule:nonzero;stroke:none"
         id="path112" /><path
         d="m 6138.79,16357.8 h -190.38 v 190.4 H 5779.2 v -190.4 h -190.4 v -169.2 h 190.4 v -190.4 h 169.21 v 190.4 h 190.38 v 169.2"
         style="fill:#efb2d6;fill-opacity:1;fill-rule:nonzero;stroke:none"
         id="path114" /><path
         d="m 12934.3,16385.7 h -253.2 v 253.1 h -225 v -253.1 H 12203 v -225 h 253.1 v -253.2 h 225 v 253.2 h 253.2 v 225"
         style="fill:#efb2d6;fill-opacity:1;fill-rule:nonzero;stroke:none"
         id="path116" /><path
         d="m 2598.22,14923.1 h -253.14 v 253.1 H 2120.1 v -253.1 h -253.15 v -225 H 2120.1 V 14445 h 224.98 v 253.1 h 253.14 v 225"
         style="fill:#efb2d6;fill-opacity:1;fill-rule:nonzero;stroke:none"
         id="path118" /><path
         d="m 17218.8,17168.6 h -227.9 v 227.9 h -202.5 v -227.9 h -227.9 v -202.5 h 227.9 v -227.9 h 202.5 v 227.9 h 227.9 v 202.5"
         style="fill:#efb2d6;fill-opacity:1;fill-rule:nonzero;stroke:none"
         id="path120" /></g></g></svg>
