<?xml version="1.0" encoding="UTF-8" standalone="no"?>
<svg
   xmlns:dc="http://purl.org/dc/elements/1.1/"
   xmlns:cc="http://creativecommons.org/ns#"
   xmlns:rdf="http://www.w3.org/1999/02/22-rdf-syntax-ns#"
   xmlns:svg="http://www.w3.org/2000/svg"
   xmlns="http://www.w3.org/2000/svg"
   viewBox="0 0 4666.6665 3066.6667"
   height="3066.6667"
   width="4666.6665"
   xml:space="preserve"
   id="svg2"
   version="1.1"><metadata
     id="metadata8"><rdf:RDF><cc:Work
         rdf:about=""><dc:format>image/svg+xml</dc:format><dc:type
           rdf:resource="http://purl.org/dc/dcmitype/StillImage" /></cc:Work></rdf:RDF></metadata><defs
     id="defs6"><clipPath
       id="clipPath32"
       clipPathUnits="userSpaceOnUse"><path
         id="path30"
         d="M 32930.5,2633.5 H 642.664 V 21520.4 H 32930.5 Z" /></clipPath></defs><g
     transform="matrix(1.3333333,0,0,-1.3333333,0,3066.6667)"
     id="g10"><g
       transform="scale(0.1)"
       id="g12"><g
         transform="scale(2.14724)"
         id="g14"><path
           id="path16"
           style="fill:#ffffff;fill-opacity:1;fill-rule:nonzero;stroke:none"
           d="M 16300,0 H 0 V 10711.4 H 16300 V 0" /></g><g
         transform="scale(1.94514)"
         id="g18"><path
           id="path20"
           style="fill:#d9f3ff;fill-opacity:1;fill-rule:nonzero;stroke:none"
           d="M 1045.7,1311.37 C 2436.78,1883.73 3805.39,4176.16 3166.39,6046.68 2057.49,9292.71 6360.54,11259.9 8658.32,8962.15 10116.1,7504.42 13641.7,9775.77 15302.8,7301.02 16190.5,5978.56 14907.6,3870.68 14960.9,2848.08 15011.4,1880.49 16300,1311.37 16300,1311.37 H 1045.7" /></g><g
         transform="scale(2.04695)"
         id="g22"><path
           id="path24"
           style="fill:#000000;fill-opacity:1;fill-rule:nonzero;stroke:none"
           d="M 16275,1232.22 H 929.08 c -13.791,0 -24.974,11.19 -24.974,24.97 v 0 c 0,13.82 11.183,25.01 24.974,25.01 H 16275 c 13.8,0 25,-11.19 25,-25.01 v 0 c 0,-13.78 -11.2,-24.97 -25,-24.97" /></g><g
         id="g26"><g
           clip-path="url(#clipPath32)"
           id="g28"><g
             transform="scale(1.59556)"
             id="g34"><path
               id="path36"
               style="fill:#ffa46e;fill-opacity:1;fill-rule:nonzero;stroke:none"
               d="m 16300,7028.17 -374.9,-414.15 -657.5,713.23 445,169.6 587.4,-468.68" /></g><g
             transform="scale(1.55805)"
             id="g38"><path
               id="path40"
               style="fill:#545454;fill-opacity:1;fill-rule:nonzero;stroke:none"
               d="m 16213.7,7081.29 -23.3,-12.19 -232.6,-121.31 c -62.7,-33.57 -140.7,-10.01 -174.3,52.63 -198.6,499.98 -433.8,959.85 -726.7,1356.72 -33.5,62.63 -10,140.63 52.7,174.2 l 243,126.86 12.9,6.74 c 62.7,33.58 140.7,9.98 174.2,-52.71 289,-413.39 528.2,-868.06 726.8,-1356.68 33.6,-62.65 10,-140.69 -52.7,-174.26" /></g><g
             transform="scale(1.49512)"
             id="g42"><path
               id="path44"
               style="fill:#333333;fill-opacity:1;fill-rule:nonzero;stroke:none"
               d="m 16218.5,8616.55 -308.9,-161.79 c -59.3,-31.71 -133,-9.43 -164.7,49.83 l -105.8,197.53 c -31.8,59.26 -9.5,133.01 49.8,164.75 l 308.8,161.76 c 59.2,31.74 133,9.44 164.8,-49.82 l 105.8,-197.53 c 31.7,-59.25 9.4,-133.03 -49.8,-164.73" /></g><g
             transform="scale(1.48786)"
             id="g46"><path
               id="path48"
               style="fill:#6e6e6e;fill-opacity:1;fill-rule:nonzero;stroke:none"
               d="m 16229.4,8657.54 -243.5,-126.69 c -51.3,-27.49 -115.2,-8.2 -142.7,43.15 l -95.7,178.75 c -27.5,51.32 -8.2,115.21 43.1,142.71 l 243.4,126.71 c 51.4,27.49 115.3,8.17 142.8,-43.15 l 95.7,-178.76 c 27.5,-51.33 8.2,-115.23 -43.1,-142.72" /></g><g
             transform="scale(1.55603)"
             id="g50"><path
               id="path52"
               style="fill:#333333;fill-opacity:1;fill-rule:nonzero;stroke:none"
               d="m 16221.7,7088.23 -296.8,-155.46 c -57,-30.46 -127.8,-9.06 -158.3,47.88 l -101.7,189.78 c -30.5,56.93 -9.1,127.82 47.8,158.35 l 296.8,155.39 c 57,30.53 127.8,9.06 158.3,-47.88 l 101.7,-189.77 c 30.5,-56.95 9,-127.83 -47.8,-158.29" /></g><g
             transform="scale(1.54898)"
             id="g54"><path
               id="path56"
               style="fill:#6e6e6e;fill-opacity:1;fill-rule:nonzero;stroke:none"
               d="m 16232.1,7115.26 -233.8,-121.7 c -49.3,-26.4 -110.7,-7.81 -137.1,41.45 l -92,171.73 c -26.4,49.32 -7.8,110.65 41.4,137.05 l 233.9,121.7 c 49.3,26.47 110.7,7.87 137.1,-41.45 l 92,-171.66 c 26.4,-49.32 7.8,-110.65 -41.5,-137.12" /></g><g
             transform="scale(1.50507)"
             id="g58"><path
               id="path60"
               style="fill:#ffa46e;fill-opacity:1;fill-rule:nonzero;stroke:none"
               d="m 16197,7570.39 c -24.1,5.32 -242.9,133.42 -50.7,469.68 138.7,10.63 153.7,-167.3 128.1,-213.54 -80.1,-144.05 -77.4,-256.14 -77.4,-256.14" /></g><g
             transform="scale(1.55805)"
             id="g62"><path
               id="path64"
               style="fill:#333333;fill-opacity:1;fill-rule:nonzero;stroke:none"
               d="m 16213.7,7081.29 -23.3,-12.19 c 5,12.45 18.9,46.72 32.6,86.45 17.5,50.06 -204.7,392.09 -204.7,392.09 0,0 -237.5,32.74 -348.6,250.57 -111.1,217.84 -24,427.01 -24,427.01 0,0 -115.4,202.57 -167.7,318.05 -29.5,64.98 -83.7,98.21 -125.5,114.93 l 12.9,6.74 c 62.7,33.58 140.7,9.98 174.2,-52.71 289,-413.39 528.2,-868.06 726.8,-1356.68 33.6,-62.65 10,-140.69 -52.7,-174.26" /></g><g
             transform="scale(1.55593)"
             id="g66"><path
               id="path68"
               style="fill:#ffa46e;fill-opacity:1;fill-rule:nonzero;stroke:none"
               d="m 15928.3,7612.06 c 62.6,-32.97 129.7,12.79 185.8,0 29,-6.62 34.4,-50.39 59.4,-67.1 126.5,178.09 -117.2,631.2 -328.1,729.02 -13.7,6.36 -158.7,-7.59 -151.1,-230.6 4.6,-139.73 171.4,-398.29 234,-431.32" /></g><g
             transform="scale(1.76577)"
             id="g70"><path
               id="path72"
               style="fill:#ffffff;fill-opacity:1;fill-rule:nonzero;stroke:none"
               d="m 16268.6,5088.14 c -0.1,-0.17 -0.1,-0.34 -0.1,-0.45 -5.4,-29.62 -14.1,-58.79 -26.5,-87.1 -58,-132.64 -197,-245.96 -455.1,-289.17 -400.3,-30.35 -986,-55.1 -1507.2,-92.37 -149.8,-10.7 -294.3,-22.42 -427.5,-35.62 -551.3,142.2 -882.1,984.73 -235.9,1163.4 73.1,20.22 376,26.05 747.1,16.31 674.9,-17.61 1575.5,-86.53 1730.8,-213.45 122.4,-99.95 205.8,-287.46 174.4,-461.55" /></g><g
             transform="scale(1.45445)"
             id="g74"><path
               id="path76"
               style="fill:#ffa46e;fill-opacity:1;fill-rule:nonzero;stroke:none"
               d="m 16300,6893.17 c -400.7,-323.14 -967.5,-408.33 -1388.6,-27.36 4.1,211.28 62.6,841.07 48.3,1046.57 L 16266,7736.17 c 9.9,-247.72 24,-594.32 34,-843" /></g><g
             transform="scale(1.45429)"
             id="g78"><path
               id="path80"
               style="fill:#d46c42;fill-opacity:1;fill-rule:nonzero;stroke:none"
               d="m 16271.6,7680.8 c -0.8,18.91 -1.4,38.3 -2.1,56.25 h -964.8 l -291.7,-61.41 c 0,0 413.7,-682.74 1287,-783.2 -10.3,288.05 -23,641.97 -28.4,788.36" /></g><g
             transform="scale(1.48256)"
             id="g82"><path
               id="path84"
               style="fill:#ffa46e;fill-opacity:1;fill-rule:nonzero;stroke:none"
               d="m 15979.5,8592.11 c 5.4,-110.29 80.4,-196.15 167.4,-191.83 87,4.31 153.1,97.26 147.6,207.54 -5.4,110.29 -80.4,196.16 -167.4,191.84 -87.1,-4.32 -153.2,-97.27 -147.6,-207.55" /></g><g
             transform="scale(1.48193)"
             id="g86"><path
               id="path88"
               style="fill:#ffa46e;fill-opacity:1;fill-rule:nonzero;stroke:none"
               d="m 16030.2,9211.68 c -6.3,-21.7 269.8,-1014.78 235.7,-1262.77 -288.2,-743.09 -775.4,-1008.21 -1567.4,-442.53 -116.7,135.7 -478.1,890.66 -484.4,897.81 -526,1019.46 1422.4,1877.01 1816.1,807.49" /></g><g
             transform="scale(1.47056)"
             id="g90"><path
               id="path92"
               style="fill:#000000;fill-opacity:1;fill-rule:nonzero;stroke:none"
               d="m 15967.1,9514.81 c 171.1,-40.04 230.8,-500.95 280.4,-641.55 l 9.4,26.66 c 43.1,1919.68 -3148.8,961.96 -1845.8,-603.28 94.4,-57.66 195.9,-247.45 252.9,-384.68 -15.2,93.37 94.6,378.36 56.1,589.44 0,0 -226.6,286.21 -157,561.03 42.6,168.44 403.5,117.1 710.6,228.9 312.5,113.77 570.4,269.83 693.4,223.48" /></g><g
             transform="scale(1.37699)"
             id="g94"><path
               id="path96"
               style="fill:#000000;fill-opacity:1;fill-rule:nonzero;stroke:none"
               d="m 16258.9,9086.75 c 41.1,-113.65 -76.2,-156.65 -118.3,-43.43 -41.1,113.58 76.2,156.65 118.3,43.43" /></g><g
             transform="scale(1.45482)"
             id="g98"><path
               id="path100"
               style="fill:#000000;fill-opacity:1;fill-rule:nonzero;stroke:none"
               d="m 16261.1,8916.76 c 38.9,-107.5 -72.2,-148.26 -112,-41.1 -39,107.53 72.1,148.28 112,41.1" /></g><g
             transform="scale(1.44881)"
             id="g102"><path
               id="path104"
               style="fill:#c75038;fill-opacity:1;fill-rule:nonzero;stroke:none"
               d="m 16081.4,8222.54 c 218.6,69.65 -93.5,321.51 -157.9,386.6 l -52.7,143.7 c -3.6,9.52 -14.1,14.43 -23.7,10.97 -9.5,-3.52 -14.4,-14.14 -10.9,-23.67 l 55.9,-152.47 c 99.6,-86.83 240.6,-236.54 230.9,-286.3 -23.2,-82.28 -231.6,-46.8 -223.7,-85.39 -1.6,-36.65 114.9,-13.39 182.1,6.56" /></g><g
             transform="scale(1.44012)"
             id="g106"><path
               id="path108"
               style="fill:#c75038;fill-opacity:1;fill-rule:nonzero;stroke:none"
               d="m 16175.7,7928.87 c 58.1,21.32 96.8,38.54 102.4,41.04 21.9,9.58 6.7,44.02 -15.2,33.82 -5.1,-2.29 -513.9,-228.53 -713.1,-79.86 -8.3,6.11 -19.9,4.38 -26,-3.82 81.3,-170.19 513.2,-43.12 651.9,8.82" /></g><g
             transform="scale(1.37724)"
             id="g110"><path
               id="path112"
               style="fill:#000000;fill-opacity:1;fill-rule:nonzero;stroke:none"
               d="m 15975.9,9167.62 c -172.4,6.75 118.8,268.72 289.6,203.81 21,-4.21 34.5,-24.69 30.3,-45.67 -4.3,-20.98 -24.7,-34.56 -45.8,-30.28 -198.6,29.99 -233,-109.06 -274.1,-127.86" /></g><g
             transform="scale(1.45398)"
             id="g114"><path
               id="path116"
               style="fill:#000000;fill-opacity:1;fill-rule:nonzero;stroke:none"
               d="m 15988.8,9007.89 c -142.5,-5.74 53.6,233.97 278.5,181.76 19.8,-4.02 32.7,-23.4 28.6,-43.28 -4,-19.88 -23.4,-32.73 -43.2,-28.7 -187.8,29.33 -227.1,-92.95 -263.9,-109.78" /></g><g
             transform="scale(1.50071)"
             id="g118"><path
               id="path120"
               style="fill:#000000;fill-opacity:1;fill-rule:nonzero;stroke:none"
               d="m 13857.7,9117.19 c 0,0 363.3,789.86 1095.5,986.51 732.3,196.7 577.2,-268.23 577.2,-268.23 769.6,120.53 -399.4,-720.13 -707.8,-782.51 -278.4,-76.52 -982.1,-166.57 -964.9,64.23" /></g><g
             transform="scale(1.33624)"
             id="g122"><path
               id="path124"
               style="fill:#ffa46e;fill-opacity:1;fill-rule:nonzero;stroke:none"
               d="m 16191.8,9084 c 108.2,-141.29 105.6,-325.01 -5.9,-410.48 -111.5,-85.39 -289.6,-40.04 -397.8,101.25 -108.3,141.3 -105.7,325.1 5.9,410.48 111.4,85.39 289.5,40.04 397.8,-101.25" /></g><g
             transform="scale(1.31987)"
             id="g126"><path
               id="path128"
               style="fill:#c75038;fill-opacity:1;fill-rule:nonzero;stroke:none"
               d="m 16281.7,8878.33 c -10.5,-3.86 -22.6,0.61 -28,10.84 -82.6,157.14 -144.9,186 -174.6,189.26 -30.8,3.33 -48.4,-17.2 -49.2,-18.03 -8,-9.63 -22.4,-10.99 -32.1,-3.11 -9.6,7.96 -11.2,22.05 -3.4,31.82 1.4,1.67 32.9,40.16 88.2,34.85 69.4,-6.66 140.5,-78.49 211.5,-213.58 5.9,-11.14 1.6,-24.93 -9.6,-30.76 -0.9,-0.53 -1.8,-0.91 -2.8,-1.29" /></g><g
             transform="scale(1.50634)"
             id="g130"><path
               id="path132"
               style="fill:#9eddff;fill-opacity:1;fill-rule:nonzero;stroke:none"
               d="m 13207.8,1354.88 c -16.6,-193.79 -33.5,-396.331 -49.9,-598.542 h 3119.7 l 22.4,5874.182 c -159.7,33.72 -374,116.51 -590.6,134.43 -136.1,-145.98 -217.9,-247.95 -449.5,-253.13 -143.2,-3.12 -354.8,70.77 -493.7,265.01 -1111.3,-109.47 -1688.4,-498.62 -1688.4,-498.62 l 512.5,-3559.3 c 0,0 -320.2,-634.72 -382.5,-1364.03" /></g><g
             transform="scale(1.44154)"
             id="g134"><path
               id="path136"
               style="fill:#3086b3;fill-opacity:1;fill-rule:nonzero;stroke:none"
               d="m 16089,6282.45 211,272.35 -341,242.03 -365.1,-232.81 215.8,-281.57 h 279.3" /></g><g
             transform="scale(1.47446)"
             id="g138"><path
               id="path140"
               style="fill:#3086b3;fill-opacity:1;fill-rule:nonzero;stroke:none"
               d="m 16300,2271.48 -414,-681.2 -396.9,659.63 c 94.8,1215.7 51.4,2784.88 -29.7,4063.59 l 282.2,-1.83 c 267.1,-1300.68 489.6,-2840.64 558.4,-4040.19" /></g><g
             transform="scale(1.46729)"
             id="g142"><path
               id="path144"
               style="fill:#5bb9eb;fill-opacity:1;fill-rule:nonzero;stroke:none"
               d="m 16300,6923.9 -148,153.96 c -12.6,-156.41 -302.4,-359.03 -473.1,-400.33 153.5,-130.72 272,-229.74 426.3,-467.8 l 194.8,714.17" /></g><g
             transform="scale(1.41139)"
             id="g146"><path
               id="path148"
               style="fill:#5bb9eb;fill-opacity:1;fill-rule:nonzero;stroke:none"
               d="m 15176.3,7173.09 231.5,292.05 c 0,0 464.1,-346.89 892.2,-523.1 -191.7,-144.4 -279.2,-293.05 -394.2,-486.33 l -729.5,717.38" /></g><g
             transform="scale(1.38045)"
             id="g150"><path
               id="path152"
               style="fill:#ffffff;fill-opacity:1;fill-rule:nonzero;stroke:none"
               d="m 14128.9,825.309 h 1914.7 C 16300,3073.56 16045.2,5244.87 15489.1,7319.41 14434.8,7161.92 14262,6850.72 14262,6850.72 l 455.3,-3969.93 -588.4,-2055.481" /></g><g
             transform="scale(1.57799)"
             id="g154"><path
               id="path156"
               style="fill:#ffffff;fill-opacity:1;fill-rule:nonzero;stroke:none"
               d="m 15433.6,721.993 h 866.4 l -225.3,2448.557 -149.2,3009.7 c -422.7,202.47 -556.8,225.03 -782.7,272.06 309.2,-2003.05 417,-3901.86 290.8,-5730.317" /></g><g
             transform="scale(1.38102)"
             id="g158"><path
               id="path160"
               style="fill:#276c9c;fill-opacity:1;fill-rule:nonzero;stroke:none"
               d="m 16074.9,2042.54 c 0.9,0.22 1.9,0.44 2.7,0.66 222.4,53.72 54.2,1189.47 54.2,1189.47 -340.7,-71.68 -714,-1189.47 -714,-1189.47 0,0 1.8,-0.3 5.3,-0.66 h 651.8" /></g><g
             transform="scale(1.36491)"
             id="g162"><path
               id="path164"
               style="fill:#d9f1ff;fill-opacity:1;fill-rule:nonzero;stroke:none"
               d="M 15515.3,5905.23 14955.6,4022.32 16300,3246.3 c -576.4,-166.83 -785.8,-742.83 -1023.3,-1287.56 l -1628,1300.67 999.8,3047.97 866.8,-402.15" /></g><g
             transform="scale(1.45747)"
             id="g166"><path
               id="path168"
               style="fill:#ffa46e;fill-opacity:1;fill-rule:nonzero;stroke:none"
               d="m 16300,1922.99 -1213.8,3.36 -325.9,0.96 c -79.7,170.36 -123,354.17 85.1,631.57 0,0 51.3,4.87 130.2,11.74 179.7,15.64 501.9,41.44 683.5,42.47 421.5,2.33 640.9,-690.1 640.9,-690.1" /></g><g
             transform="scale(1.34894)"
             id="g170"><path
               id="path172"
               style="fill:#d17743;fill-opacity:1;fill-rule:nonzero;stroke:none"
               d="m 16300,2081.34 -352.1,1.04 c -86.1,184.07 -132.9,382.67 91.9,682.39 0,0 55.5,5.26 140.7,12.67 -18.3,-116.31 -59.7,-489.42 119.5,-696.1" /></g><g
             transform="scale(1.46986)"
             id="g174"><path
               id="path176"
               style="fill:#ffa46e;fill-opacity:1;fill-rule:nonzero;stroke:none"
               d="m 15562.2,2588.75 c 12.8,0 375.3,21.3 499,-72.52 123.6,-93.82 238.8,-311.32 238.8,-311.32 0,0 -21.3,-46.88 -123.7,-12.79 -102.3,34.15 -200.4,191.92 -200.4,191.92 l -366.8,25.58 -46.9,179.13" /></g><g
             transform="scale(1.44437)"
             id="g178"><path
               id="path180"
               style="fill:#d66d2d;fill-opacity:1;fill-rule:nonzero;stroke:none"
               d="m 16295.8,1938.9 c -1.9,0 -3.5,1.32 -3.9,3.19 -75.1,389.37 -395.7,474.46 -399,475.29 -2.1,0.55 -3.3,2.63 -2.8,4.71 0.5,2.14 2.7,3.39 4.7,2.84 3.3,-0.76 328.7,-87.17 404.8,-481.39 0.4,-2.14 -1,-4.15 -3.1,-4.57 -0.2,-0.07 -0.5,-0.07 -0.7,-0.07" /></g><g
             transform="scale(1.42968)"
             id="g182"><path
               id="path184"
               style="fill:#d66d2d;fill-opacity:1;fill-rule:nonzero;stroke:none"
               d="m 16295.5,1961.07 c -1.6,0 -3.1,0.98 -3.7,2.52 -64.1,164.44 -356.6,278.59 -359.6,279.78 -2.1,0.77 -3.1,3.01 -2.3,5.03 0.8,2.1 3.1,3.08 5.1,2.31 3,-1.12 298.8,-116.53 364.2,-284.26 0.8,-2.03 -0.2,-4.26 -2.3,-5.1 -0.4,-0.14 -0.9,-0.28 -1.4,-0.28" /></g><g
             transform="scale(1.36696)"
             id="g186"><path
               id="path188"
               style="fill:#ffffff;fill-opacity:1;fill-rule:nonzero;stroke:none"
               d="m 14402.8,6899.92 c -28,-8.63 -2040.2,-2970.1 -1428.7,-3899.09 222,-337.18 2814.8,-1049.12 2814.8,-1049.12 -121.3,335.49 3.6,756.57 511.1,1310.57 -48.4,0 -1748,626.94 -1748,626.94 0,0 1003.6,1898.09 1019.8,2398.18 16.1,500.16 -595.6,789.49 -1169,612.52" /></g><g
             transform="scale(1.77382)"
             id="g190"><path
               id="path192"
               style="fill:#ffffff;fill-opacity:1;fill-rule:nonzero;stroke:none"
               d="m 14553.1,6535.6 c 0,0 1468,-904.48 1593.7,-1133.48 153.2,-279 18.7,-710.16 -499.3,-676.05 -518,34.16 -1502.8,1181.74 -1502.8,1181.74 l 408.4,627.79" /></g><g
             transform="scale(1.6427)"
             id="g194"><path
               id="path196"
               style="fill:#d9f1ff;fill-opacity:1;fill-rule:nonzero;stroke:none"
               d="m 16285.8,5428.87 c -396.8,236.2 -1007.6,931.45 -1013.7,938.46 l 20.8,18.26 c 6.1,-6.94 614,-698.91 1007.1,-932.86 l -14.2,-23.86" /></g><g
             transform="scale(1.75948)"
             id="g198"><path
               id="path200"
               style="fill:#f2faff;fill-opacity:1;fill-rule:nonzero;stroke:none"
               d="m 16300,5018.46 c -58.2,-133.11 -197.7,-246.83 -456.7,-290.2 -401.7,-30.46 -989.5,-55.3 -1512.6,-92.7 -24.5,140.38 -58.7,342.89 -58.7,342.89 0,0 716.1,-196.08 1330.4,-170.85 276,11.31 531.4,67.35 691.9,205.86 1.9,1.64 3.8,3.29 5.7,5" /></g><g
             transform="scale(1.54579)"
             id="g202"><path
               id="path204"
               style="fill:#333333;fill-opacity:1;fill-rule:nonzero;stroke:none"
               d="m 16300,6966.75 -80.2,-43.08 -92.8,115.6 127.8,68.7 45.2,-141.22" /></g><g
             transform="scale(1.55843)"
             id="g206"><path
               id="path208"
               style="fill:#333333;fill-opacity:1;fill-rule:nonzero;stroke:none"
               d="m 16191.3,6455.41 c -3.2,0 -6.4,1.15 -9,3.4 -5.6,5 -6,13.48 -1.1,19.06 72.1,81.17 -52.6,397.58 -106.7,512.69 -3.2,6.74 -0.3,14.76 6.4,17.9 6.8,3.21 14.8,0.33 18,-6.41 8.2,-17.58 201.1,-431.07 102.5,-542.08 -2.7,-3.02 -6.4,-4.56 -10.1,-4.56" /></g><g
             transform="scale(1.56077)"
             id="g210"><path
               id="path212"
               style="fill:#333333;fill-opacity:1;fill-rule:nonzero;stroke:none"
               d="m 16154.4,6391.45 c -4.5,0 -8.8,2.11 -11.4,6.15 -4,6.21 -2.2,14.54 4,18.58 l 130.3,84.44 c 6.2,4.04 14.6,2.31 18.7,-3.97 4,-6.21 2.2,-14.54 -4.1,-18.58 l -130.2,-84.51 c -2.3,-1.41 -4.8,-2.11 -7.3,-2.11" /></g><g
             transform="scale(1.5617)"
             id="g214"><path
               id="path216"
               style="fill:#333333;fill-opacity:1;fill-rule:nonzero;stroke:none"
               d="m 16154.5,6344.05 c -4.5,0 -8.8,2.18 -11.4,6.15 -4,6.27 -2.2,14.6 4,18.63 l 130.2,84.4 c 6.2,4.03 14.6,2.24 18.7,-3.97 4,-6.21 2.2,-14.54 -4,-18.64 l -130.2,-84.39 c -2.3,-1.47 -4.9,-2.18 -7.3,-2.18" /></g><g
             transform="scale(1.56263)"
             id="g218"><path
               id="path220"
               style="fill:#333333;fill-opacity:1;fill-rule:nonzero;stroke:none"
               d="m 16154.5,6296.77 c -4.4,0 -8.7,2.18 -11.2,6.15 -4.1,6.2 -2.3,14.52 3.9,18.62 l 130.1,84.34 c 6.3,4.04 14.6,2.24 18.7,-3.96 4,-6.27 2.2,-14.59 -4,-18.63 l -130.2,-84.34 c -2.2,-1.47 -4.8,-2.18 -7.3,-2.18" /></g><g
             transform="scale(1.56355)"
             id="g222"><path
               id="path224"
               style="fill:#333333;fill-opacity:1;fill-rule:nonzero;stroke:none"
               d="m 16154.6,6249.55 c -4.4,0 -8.7,2.18 -11.2,6.14 -4.1,6.21 -2.3,14.52 3.9,18.55 l 130.1,84.29 c 6.2,4.1 14.5,2.31 18.6,-3.96 4,-6.21 2.2,-14.52 -4,-18.55 l -130.1,-84.29 c -2.2,-1.47 -4.8,-2.18 -7.3,-2.18" /></g><g
             transform="scale(1.56448)"
             id="g226"><path
               id="path228"
               style="fill:#333333;fill-opacity:1;fill-rule:nonzero;stroke:none"
               d="m 16154.7,6202.39 c -4.3,0 -8.7,2.11 -11.2,6.13 -4.1,6.2 -2.3,14.51 3.9,18.54 l 130,84.25 c 6.2,4.02 14.5,2.3 18.6,-3.97 4,-6.2 2.2,-14.51 -4,-18.54 l -130,-84.3 c -2.2,-1.41 -4.7,-2.11 -7.3,-2.11" /></g><g
             transform="scale(1.56541)"
             id="g230"><path
               id="path232"
               style="fill:#333333;fill-opacity:1;fill-rule:nonzero;stroke:none"
               d="m 16154.9,6155.21 c -4.4,0 -8.8,2.17 -11.3,6.13 -4.1,6.27 -2.3,14.57 3.9,18.6 l 129.9,84.19 c 6.2,4.02 14.5,2.23 18.6,-3.96 4,-6.2 2.3,-14.5 -4,-18.59 l -129.9,-84.2 c -2.3,-1.47 -4.7,-2.17 -7.2,-2.17" /></g><g
             transform="scale(1.56634)"
             id="g234"><path
               id="path236"
               style="fill:#333333;fill-opacity:1;fill-rule:nonzero;stroke:none"
               d="m 16154.9,6108.14 c -4.4,0 -8.7,2.17 -11.3,6.12 -4,6.2 -2.3,14.5 3.9,18.58 l 129.9,84.15 c 6.2,4.02 14.5,2.23 18.6,-3.96 4,-6.26 2.2,-14.56 -4,-18.58 l -129.8,-84.14 c -2.3,-1.47 -4.8,-2.17 -7.3,-2.17" /></g><g
             transform="scale(1.56726)"
             id="g238"><path
               id="path240"
               style="fill:#333333;fill-opacity:1;fill-rule:nonzero;stroke:none"
               d="m 16155,6061.14 c -4.4,0 -8.7,2.17 -11.3,6.12 -4,6.19 -2.3,14.49 3.9,18.51 l 129.8,84.16 c 6.2,4.01 14.5,2.23 18.6,-4.02 4,-6.19 2.2,-14.49 -4,-18.51 l -129.8,-84.09 c -2.2,-1.47 -4.7,-2.17 -7.2,-2.17" /></g><g
             transform="scale(1.56819)"
             id="g242"><path
               id="path244"
               style="fill:#333333;fill-opacity:1;fill-rule:nonzero;stroke:none"
               d="m 16155.1,6014.2 c -4.4,0 -8.7,2.1 -11.3,6.05 -4,6.25 -2.3,14.54 4,18.56 l 129.6,84.04 c 6.3,4.02 14.6,2.3 18.6,-3.95 4,-6.19 2.2,-14.47 -4,-18.49 l -129.7,-84.11 c -2.2,-1.4 -4.8,-2.1 -7.2,-2.1" /></g><g
             transform="scale(1.56912)"
             id="g246"><path
               id="path248"
               style="fill:#333333;fill-opacity:1;fill-rule:nonzero;stroke:none"
               d="m 16155.1,5967.24 c -4.4,0 -8.6,2.17 -11.2,6.12 -4,6.25 -2.3,14.53 4,18.55 l 129.5,83.99 c 6.3,4.02 14.6,2.23 18.6,-3.95 4,-6.18 2.2,-14.53 -4,-18.54 l -129.6,-84 c -2.2,-1.47 -4.8,-2.17 -7.3,-2.17" /></g><g
             transform="scale(1.57004)"
             id="g250"><path
               id="path252"
               style="fill:#333333;fill-opacity:1;fill-rule:nonzero;stroke:none"
               d="m 16155.2,5920.41 c -4.3,0 -8.6,2.17 -11.2,6.12 -4,6.18 -2.2,14.46 4,18.53 l 129.5,83.95 c 6.2,4.01 14.5,2.23 18.5,-3.95 4,-6.24 2.3,-14.52 -4,-18.54 l -129.5,-83.94 c -2.2,-1.47 -4.7,-2.17 -7.3,-2.17" /></g><g
             transform="scale(1.57097)"
             id="g254"><path
               id="path256"
               style="fill:#333333;fill-opacity:1;fill-rule:nonzero;stroke:none"
               d="m 16155.4,5873.64 c -4.4,0 -8.7,2.16 -11.3,6.1 -4,6.18 -2.2,14.46 4,18.46 l 129.4,83.9 c 6.2,4.08 14.5,2.29 18.5,-3.94 4,-6.18 2.3,-14.45 -4,-18.46 l -129.4,-83.9 c -2.3,-1.47 -4.7,-2.16 -7.2,-2.16" /></g><g
             transform="scale(1.5719)"
             id="g258"><path
               id="path260"
               style="fill:#333333;fill-opacity:1;fill-rule:nonzero;stroke:none"
               d="m 16155.4,5826.89 c -4.4,0 -8.7,2.1 -11.3,6.04 -4,6.24 -2.2,14.51 4,18.52 l 129.4,83.84 c 6.2,4.01 14.4,2.23 18.5,-3.94 4,-6.17 2.2,-14.44 -4,-18.45 l -129.3,-83.91 c -2.3,-1.46 -4.8,-2.1 -7.3,-2.1" /></g><g
             transform="scale(1.57283)"
             id="g262"><path
               id="path264"
               style="fill:#333333;fill-opacity:1;fill-rule:nonzero;stroke:none"
               d="m 16155.5,5780.16 c -4.4,0 -8.7,2.16 -11.3,6.1 -4,6.24 -2.2,14.5 4,18.51 l 129.3,83.79 c 6.2,4.01 14.5,2.23 18.5,-3.94 4,-6.16 2.2,-14.43 -3.9,-18.5 l -129.4,-83.8 c -2.2,-1.46 -4.7,-2.16 -7.2,-2.16" /></g><g
             transform="scale(1.57375)"
             id="g266"><path
               id="path268"
               style="fill:#333333;fill-opacity:1;fill-rule:nonzero;stroke:none"
               d="m 16155.6,5733.55 c -4.4,0 -8.7,2.16 -11.3,6.1 -4,6.16 -2.2,14.42 4,18.49 l 129.2,83.75 c 6.2,4 14.5,2.22 18.5,-3.94 4,-6.23 2.2,-14.49 -3.9,-18.49 l -129.3,-83.75 c -2.2,-1.46 -4.8,-2.16 -7.2,-2.16" /></g><g
             transform="scale(1.57468)"
             id="g270"><path
               id="path272"
               style="fill:#333333;fill-opacity:1;fill-rule:nonzero;stroke:none"
               d="m 16155.7,5686.99 c -4.4,0 -8.7,2.16 -11.2,6.1 -4,6.16 -2.3,14.42 3.9,18.42 l 129.1,83.7 c 6.2,4.06 14.5,2.28 18.5,-3.94 4,-6.16 2.2,-14.42 -3.9,-18.42 l -129.2,-83.7 c -2.2,-1.46 -4.8,-2.16 -7.2,-2.16" /></g><g
             transform="scale(1.59261)"
             id="g274"><path
               id="path276"
               style="fill:#333333;fill-opacity:1;fill-rule:nonzero;stroke:none"
               d="m 16129.3,3996.72 c -0.8,0 -1.7,0.06 -2.5,0.25 -7.1,1.38 -11.8,8.35 -10.4,15.44 149.8,765.92 82.8,1449.51 -3.7,1566.56 -35.8,48.47 -90.5,18.52 -92.9,17.2 -6.3,-3.58 -14.3,-1.32 -17.9,5.02 -3.6,6.34 -1.3,14.38 5,17.96 26.6,14.95 87.4,29.07 127,-24.55 85.6,-115.78 166.1,-780.98 8.4,-1587.21 -1.2,-6.28 -6.7,-10.67 -13,-10.67" /></g><path
             id="path278"
             style="fill:#c95138;fill-opacity:1;fill-rule:nonzero;stroke:none"
             d="m 11300.8,13177.5 c 0,0 20.7,-2076.4 1601.2,-2272.7 1415.2,-41.3 2158.2,-118.5 1579.4,2678 -351.2,1250 -3159.9,937.6 -3180.6,-405.3" /><path
             id="path280"
             style="fill:#9eddff;fill-opacity:1;fill-rule:nonzero;stroke:none"
             d="m 15805,1925.5 h -5709.9 l 393,7817.6 c 1581.3,657.1 3212.5,561.7 4923.9,0 l 393,-7817.6" /><path
             id="path282"
             style="fill:#66c2f5;fill-opacity:1;fill-rule:nonzero;stroke:none"
             d="m 11824.9,9023.1 c 0,-68.2 -215.3,-3076 590.1,-4277.3 805.4,-1201.2 -1051.1,-2880.3 -1051.1,-2880.3 -1733.71,587 -672,7608.1 461,7157.6" /><path
             id="path284"
             style="fill:#f7a594;fill-opacity:1;fill-rule:nonzero;stroke:none"
             d="m 13844,9884.7 c 0,0 -167,-631.7 -844.4,-660.1 -677.2,-28.5 -885,660.1 -885,660.1 l 144.6,1139.6 86.7,683.2 h 1266.8 l 141.9,-1118.6 89.4,-704.2" /><path
             id="path286"
             style="fill:#de7964;fill-opacity:1;fill-rule:nonzero;stroke:none"
             d="m 13754.6,10588.9 c -612.6,-105.1 -1164.6,145 -1495.4,435.4 l 86.7,683.2 h 1266.8 l 141.9,-1118.6" /><path
             id="path288"
             style="fill:#80d3ff;fill-opacity:1;fill-rule:nonzero;stroke:none"
             d="m 12166.2,10640.4 c 0,-43.8 788.4,-1392.8 788.4,-1392.8 0,0 -683.3,-464.3 -683.3,-429.2 0,35 -324.1,1287.7 -324.1,1287.7 l 219,534.3" /><path
             id="path290"
             style="fill:#80d3ff;fill-opacity:1;fill-rule:nonzero;stroke:none"
             d="m 13795.5,10570.4 c 0,-43.8 -858.4,-1340.3 -858.4,-1340.3 0,0 630.7,-516.9 630.7,-481.8 0,35 446.7,1287.7 446.7,1287.7 l -219,534.4" /><path
             id="path292"
             style="fill:#ffffff;fill-opacity:1;fill-rule:nonzero;stroke:none"
             d="m 11430.8,1171.1 -1989.62,124.8 765.52,3944.6 -1.1,19.8 -60.3,1043.5 -24.1,415.6 -69.3,1200.9 -63.61,1100.5 -26.52,459.2 c 0,0 382.13,243.4 897.73,444.6 300,117.1 645.1,220.1 986.5,252.6 -83.9,-3907.3 134.1,-6090.7 -415.2,-9006.1" /><path
             id="path294"
             style="fill:#ffffff;fill-opacity:1;fill-rule:nonzero;stroke:none"
             d="m 11249.2,7222.8 c -200.6,-201.7 -427.8,-419 -700.2,-631.8 -124.6,-97.3 -258.5,-193.7 -403.7,-287.2 -423.07,-272.4 -941.15,-520.2 -1597.89,-696 -72.56,-27.7 -141.47,-39.9 -206.05,-38.4 -510.79,11.5 -752.85,874.6 -439.53,1622.4 100.06,238.9 256.8,466.1 479.57,649.9 l 1606.9,1179.1 717.5,526.5 c 0.7,0.4 1.4,0.7 2.1,1.1 757.5,387.3 1447.4,-1542.8 541.3,-2325.6" /><path
             id="path296"
             style="fill:#d9f1ff;fill-opacity:1;fill-rule:nonzero;stroke:none"
             d="m 10667,7048.3 -118,-457.3 -343.4,-1330.7 -60.3,1043.5 c -423.07,-272.4 -941.15,-520.2 -1597.89,-696 -72.56,-27.7 -141.47,-39.9 -206.05,-38.4 -510.79,11.5 -752.85,874.6 -439.53,1622.4 27.51,-468.4 141.17,-877.6 437.86,-969.9 257.63,-80.1 608.57,-10.6 959.73,116.1 291.53,105.3 583.2,250 821.88,381.4 320.7,176.5 545.7,328.9 545.7,328.9" /><g
             transform="scale(1.00764)"
             id="g298"><path
               id="path300"
               style="fill:#ffffff;fill-opacity:1;fill-rule:nonzero;stroke:none"
               d="m 14018.7,10025.2 c 921.1,-87.77 1757.8,-542.29 1757.8,-542.29 L 15540.3,5200.74 16300,1286.07 h -2592.2 c 177.1,1558.19 640.1,5073.42 310.9,8739.13" /></g><g
             transform="scale(1.05859)"
             id="g302"><path
               id="path304"
               style="fill:#ffffff;fill-opacity:1;fill-rule:nonzero;stroke:none"
               d="m 14993.3,9037.13 c 0,0 1076.7,-1633.88 1256.9,-4280.8 49.8,-730.4 -1604.5,-3262.64 -1604.5,-3262.64 h -1905.6 l 1875.3,2888.65 c 0,0 -1328,2689.34 -949.9,3566.54 378.1,877.21 900,1293.24 1327.8,1088.25" /></g><path
             id="path306"
             style="fill:#d9f1ff;fill-opacity:1;fill-rule:nonzero;stroke:none"
             d="m 13535.8,1622.1 -30.4,19.1 2088.7,3318.1 -666.7,1844.9 33.8,12.2 672.6,-1861.4 -4.7,-7.4 -2093.3,-3325.5" /><path
             id="path308"
             style="fill:#d9f1ff;fill-opacity:1;fill-rule:nonzero;stroke:none"
             d="m 12192.9,10639 c -98.1,-969.9 -369.9,-4890.3 -369.9,-4890.3 -600.2,1314.1 -869.5,2267.9 -869.5,2267.9 l 435.9,468.6 -699.1,1163.6 c 481.5,666.3 1502.6,990.2 1502.6,990.2" /><path
             id="path310"
             style="fill:#d9f1ff;fill-opacity:1;fill-rule:nonzero;stroke:none"
             d="m 13763.2,10631.9 c 49.3,-1056.2 537.4,-2482.6 441.3,-4848.6 600.2,1314 779.7,2245.4 779.7,2245.4 l -435.9,468.5 699.1,1163.7 c -371.4,555 -1484.2,971 -1484.2,971" /><path
             id="path312"
             style="fill:#c95138;fill-opacity:1;fill-rule:nonzero;stroke:none"
             d="m 14213.6,6435.6 c 0,0 -1708.9,484.2 -1289.1,1951.1 207.1,723.7 1439.6,1070.1 765.8,2177 -2.9,4.9 -6,9.9 -9.1,14.9 l -92,815.2 c 0,0 638.2,151.2 873.3,461.8 -175.6,-470.2 25.1,-705.6 128.4,-804.1 405.7,-387.3 832.9,-796.8 839,-1493.7 11.6,-1324 -1334.2,-1293.9 -1216.3,-3122.2" /><path
             id="path314"
             style="fill:#f7a594;fill-opacity:1;fill-rule:nonzero;stroke:none"
             d="m 14295.1,12539.7 c 303.1,-397.9 -292.4,-1522.5 -1309.5,-1526 -641.7,25.5 -1654.2,631.2 -1392.2,1895 -183.4,1054.6 466.3,2050.9 1392.2,2050.9 925.8,0 1515.8,-1308.1 1309.5,-2419.9" /><path
             id="path316"
             style="fill:#f7a594;fill-opacity:1;fill-rule:nonzero;stroke:none"
             d="m 14736,12595.6 c 0,-167.7 -135.9,-303.7 -303.6,-303.7 -167.7,0 -303.7,136 -303.7,303.7 0,167.7 136,303.6 303.7,303.6 167.7,0 303.6,-135.9 303.6,-303.6" /><path
             id="path318"
             style="fill:#c95138;fill-opacity:1;fill-rule:nonzero;stroke:none"
             d="m 13683.5,14202.7 c -435.5,-870.9 -2032.4,-1272.6 -2032.4,-1272.6 l -252.3,-36.5 -70.3,-10.2 c 0,0 -133.5,763.9 352.4,1464.9 485.9,701 1259.3,637.3 1259.3,637.3 0,0 155.2,5.2 329.8,-32.4 288.2,-61.9 629.5,-240.3 413.5,-750.5" /><path
             id="path320"
             style="fill:#f56245;fill-opacity:1;fill-rule:nonzero;stroke:none"
             d="m 13270,14953.2 c -523.2,-75.1 -1022.2,-246.8 -1393.4,-636.9 -336,-353.1 -445.1,-1086.2 -477.8,-1422.7 l -70.3,-10.2 c 0,0 -133.5,763.9 352.4,1464.9 485.9,701 1259.3,637.3 1259.3,637.3 0,0 155.2,5.2 329.8,-32.4" /><path
             id="path322"
             style="fill:#c95138;fill-opacity:1;fill-rule:nonzero;stroke:none"
             d="m 13017.9,14230.7 c -257.4,583.1 -50.7,748.5 -50.7,748.5 0,0 773.3,63.7 1259.3,-637.3 485.9,-701 187.3,-1437.6 187.3,-1437.6 0,0 -1171.8,-203.6 -1395.9,1326.4" /><path
             id="path324"
             style="fill:#f7a594;fill-opacity:1;fill-rule:nonzero;stroke:none"
             d="m 11812.2,12612.1 c 0,-167.7 -135.9,-303.6 -303.6,-303.6 -167.7,0 -303.7,135.9 -303.7,303.6 0,167.7 136,303.7 303.7,303.7 167.7,0 303.6,-136 303.6,-303.7" /><path
             id="path326"
             style="fill:#000000;fill-opacity:1;fill-rule:nonzero;stroke:none"
             d="m 11618.7,12171.9 c 0,0 251.4,-452.2 739.3,-573.5 26.9,-6.7 43.3,-33.9 37.2,-60.9 v 0 c -6.2,-27.7 -33.9,-45.1 -61.5,-38.6 -142,33.2 -541.7,172.1 -799.2,618.6 l 84.2,54.4" /><path
             id="path328"
             style="fill:#000000;fill-opacity:1;fill-rule:nonzero;stroke:none"
             d="m 11701.8,12423.8 c 44.1,-140 -2.9,-279.6 -105.1,-311.7 -102.1,-32.2 -220.6,55.2 -264.7,195.2 -44.1,140 2.9,279.6 105,311.8 102.1,32.1 220.7,-55.3 264.8,-195.3" /><path
             id="path330"
             style="fill:#ffffff;fill-opacity:1;fill-rule:nonzero;stroke:none"
             d="m 11640.8,12404.6 c 46.6,-148 -3.1,-295.6 -111.1,-329.6 -108,-34 -233.3,58.4 -280,206.5 -46.6,148 3.1,295.6 111.1,329.6 108,34.1 233.3,-58.4 280,-206.5" /><path
             id="path332"
             style="fill:#b8e5ff;fill-opacity:1;fill-rule:nonzero;stroke:none"
             d="m 11525.2,12359.6 c 26.9,-85.3 -1.8,-170.4 -64,-190 -62.2,-19.6 -134.5,33.7 -161.4,119 -26.9,85.4 1.8,170.4 64,190 62.3,19.6 134.5,-33.6 161.4,-119" /><path
             id="path334"
             style="fill:#000000;fill-opacity:1;fill-rule:nonzero;stroke:none"
             d="m 11688.2,12244.2 c -1.2,0 -2.4,0.1 -3.6,0.3 -11.8,2 -19.8,13.2 -17.8,25 34.7,208.4 -42,435.7 -132.9,526.7 -106,106 -237.5,21.5 -243,17.8 -10,-6.5 -23.4,-3.8 -30,6.2 -6.6,9.9 -3.9,23.3 6,29.9 1.7,1.1 166.3,107.9 297.6,-23.3 100.7,-100.7 182.5,-339.4 145,-564.5 -1.8,-10.5 -10.9,-18.1 -21.3,-18.1" /><path
             id="path336"
             style="fill:#a33a23;fill-opacity:1;fill-rule:nonzero;stroke:none"
             d="m 11580.8,12926.1 c 0,0 1423.7,351.7 1765.8,1174.6 215.7,567 -132.5,866 -132.5,866 0,0 350.7,-137.6 339,-724.3 -18.4,-919.7 -1972.3,-1316.3 -1972.3,-1316.3" /><path
             id="path338"
             style="fill:#ba4228;fill-opacity:1;fill-rule:nonzero;stroke:none"
             d="m 12927.8,12140 c -48.9,0 -155.7,5.7 -171.6,54.8 -18.9,58.5 149.5,516.2 183.5,607.4 2.9,7.9 11.7,11.9 19.5,8.9 7.9,-2.9 11.9,-11.6 9,-19.5 -98,-263.1 -193.3,-554.8 -183.1,-587.4 8.6,-26.3 101,-35.6 161,-33.5 0.1,0 0.3,0 0.5,0 8.1,0 14.9,-6.4 15.2,-14.6 0.3,-8.4 -6.3,-15.5 -14.7,-15.8 -4.2,-0.1 -10.9,-0.3 -19.3,-0.3" /><path
             id="path340"
             style="fill:#a33a23;fill-opacity:1;fill-rule:nonzero;stroke:none"
             d="m 12644.1,11700.5 c 0,0 520.4,-56 956.9,190.2 -117.5,-481.2 -649.1,-733 -956.9,-190.2" /><path
             id="path342"
             style="fill:#000000;fill-opacity:1;fill-rule:nonzero;stroke:none"
             d="m 12235.3,12580.2 v 0 c -38,0 -69,31.1 -69,69 v 138 c 0,37.9 31,69 69,69 v 0 c 37.9,0 69,-31.1 69,-69 v -138 c 0,-37.9 -31.1,-69 -69,-69" /><path
             id="path344"
             style="fill:#000000;fill-opacity:1;fill-rule:nonzero;stroke:none"
             d="m 13702.1,12569 v 0 c -37.9,0 -69,31 -69,69 v 137.9 c 0,38 31.1,69 69,69 v 0 c 37.9,0 69,-31 69,-69 V 12638 c 0,-38 -31.1,-69 -69,-69" /><path
             id="path346"
             style="fill:#f79985;fill-opacity:1;fill-rule:nonzero;stroke:none"
             d="m 13868.4,12415 c 0,-31.8 -77.4,-57.6 -172.8,-57.6 -95.3,0 -172.7,25.8 -172.7,57.6 0,31.8 77.4,57.6 172.7,57.6 95.4,0 172.8,-25.8 172.8,-57.6" /><path
             id="path348"
             style="fill:#f79985;fill-opacity:1;fill-rule:nonzero;stroke:none"
             d="m 12416.5,12415 c 0,-31.8 -77.3,-57.6 -172.7,-57.6 -95.4,0 -172.8,25.8 -172.8,57.6 0,31.8 77.4,57.6 172.8,57.6 95.4,0 172.7,-25.8 172.7,-57.6" /><path
             id="path350"
             style="fill:#ba4228;fill-opacity:1;fill-rule:nonzero;stroke:none"
             d="m 14361.3,12428.8 v 0 c -8.4,0 -15.1,6.8 -15.1,15.2 0,9.6 1.6,234.7 141.6,272.2 8.1,2.2 16.4,-2.6 18.6,-10.7 2.2,-8.1 -2.7,-16.5 -10.8,-18.6 -117.5,-31.6 -119.1,-240.8 -119.1,-242.9 0,-8.4 -6.8,-15.2 -15.2,-15.2" /><path
             id="path352"
             style="fill:#f7a594;fill-opacity:1;fill-rule:nonzero;stroke:none"
             d="m 10187,9045.7 -561.31,637.9 986.01,929.1 455.3,-286.2 -880,-1280.8" /><path
             id="path354"
             style="fill:#f7a594;fill-opacity:1;fill-rule:nonzero;stroke:none"
             d="m 10586.9,10576.7 c 4.8,54.8 208.6,1036.3 194.4,1013.1 202.6,257.4 644.2,-63.1 661.2,-478.5 0,0 -187.5,-705.9 -434.3,-851.3 -445.3,-259.3 -421.3,316.7 -421.3,316.7" /><path
             id="path356"
             style="fill:#f7a594;fill-opacity:1;fill-rule:nonzero;stroke:none"
             d="m 10780.6,11591.9 c 0,0 360.7,998.4 371.3,993.4 10.6,-5.1 101.7,-24 86.9,-171.8 -14.7,-147.7 -259.3,-960.9 -259.3,-960.9 l -198.9,139.3" /><path
             id="path358"
             style="fill:#f7a594;fill-opacity:1;fill-rule:nonzero;stroke:none"
             d="m 10945.8,11510.3 c 0,0 531.6,897.9 541.6,890.6 10,-7.2 101,-44.2 57.4,-194.6 -43.5,-150.4 -382.5,-811.4 -382.5,-811.4 l -216.5,115.4" /><path
             id="path360"
             style="fill:#f7a594;fill-opacity:1;fill-rule:nonzero;stroke:none"
             d="m 10986.5,11346.5 c 16,28.7 347,291.8 422.3,326.1 75.4,34.3 492.7,41.4 492.7,41.4 0,0 21.2,-118.1 -138.5,-132.8 -159.8,-14.8 -274.7,-85.2 -274.7,-85.2 l -261.7,-431.4 -240.1,281.9" /><path
             id="path362"
             style="fill:#f7a594;fill-opacity:1;fill-rule:nonzero;stroke:none"
             d="m 11217,11072.7 c 0,0 92.2,313.5 296.2,331.7 195.2,17.4 417.9,-181.9 417.9,-181.9 0,0 -4.8,-69.6 -140.8,-44.8 -136,24.9 -171,59.9 -171,59.9 l -139,-41.1 -110.2,-319.5 -153.1,195.7" /><path
             id="path364"
             style="fill:#ffffff;fill-opacity:1;fill-rule:nonzero;stroke:none"
             d="m 10219.5,10687.8 c -89.1,47.4 -179,94.5 -270.82,136.9 L 8438.92,8014.9 7966.87,7369.8 c -605.76,-980.9 204.55,-2376.1 1571.65,-1095 258.14,241.9 330.91,551.5 330.91,551.5 l 380.97,945.3 620.5,1540.3 497.3,678.5 c -366.3,258.8 -752.7,487.1 -1148.7,697.4" /><path
             id="path366"
             style="fill:#d9f1ff;fill-opacity:1;fill-rule:nonzero;stroke:none"
             d="m 9524.69,6413.1 -28.91,21.3 c 109.68,148.4 191.85,316.1 271.31,478.2 16.84,34.4 33.65,68.6 50.68,102.7 104.77,202.1 196.33,392.5 288.33,599.5 53.2,122.2 106.4,243.7 159.4,364.8 177.9,406.5 346,790.5 509,1192.2 l 1.7,3.2 c 128.6,192.9 266.1,384 399.2,568.7 55.3,76.9 112.6,156.4 167.8,234.2 l 29.3,-20.8 c -55.3,-77.9 -112.6,-157.4 -168,-234.4 -132.5,-184 -269.4,-374.3 -397.4,-566.1 -163,-401.6 -338.7,-803.1 -508.7,-1191.4 -53,-121 -106.2,-242.5 -159.4,-364.9 -92.3,-207.8 -184.22,-398.8 -289.2,-601.3 -16.88,-33.7 -33.64,-68 -50.44,-102.2 -80.17,-163.6 -163.06,-332.7 -274.67,-483.7" /></g></g><g
         transform="scale(1.14419)"
         id="g368"><path
           id="path370"
           style="fill:#5fb38c;fill-opacity:1;fill-rule:nonzero;stroke:none"
           d="m 15729.6,3747.72 c -75.2,-135.21 -172.2,-271.11 -295.7,-405.79 0,0 -257.9,427.37 -303.9,993.01 -35.3,433.93 54,949.24 479.8,1415.33 0,0 690.2,-977.37 119.8,-2002.55" /></g><g
         transform="scale(1.10415)"
         id="g372"><path
           id="path374"
           style="fill:#379168;fill-opacity:1;fill-rule:nonzero;stroke:none"
           d="m 16300,3883.63 c -77.9,-140.11 -178.4,-280.94 -306.4,-420.5 0,0 -267.3,442.87 -314.9,1029.02 l 621.3,-608.52" /></g><g
         transform="scale(1.10991)"
         id="g376"><path
           id="path378"
           style="fill:#379168;fill-opacity:1;fill-rule:nonzero;stroke:none"
           d="m 15903,3461.8 c -15.2,239.39 -15.7,486.7 -7.9,723.93 l -214.4,267.32 7.4,6.04 207.5,-258.59 c 7.1,202.45 20.1,397.24 35.5,573.29 l -3.7,-2.88 -216.2,269.48 7.5,6.04 213,-265.43 c 9.1,104.24 18.9,201.91 28.7,290.56 0.1,0.9 0.3,1.81 0.4,2.8 v 0 0.09 c 50.1,451.11 109.4,771.05 109.9,774.2 l 9.5,-1.71 c -0.7,-3.15 -59.1,-318.49 -108.9,-764.47 l 293.4,222.44 5.7,-7.65 -300.5,-228.04 c -16.3,-147.49 -32.8,-320.02 -45.7,-506.71 l 370.8,225.97 5,-8.2 -376.6,-229.48 c -23,-338.58 -34,-722.66 -10.8,-1088.37 l -9.6,-0.63" /></g><g
         transform="scale(1.17924)"
         id="g380"><path
           id="path382"
           style="fill:#74c9a2;fill-opacity:1;fill-rule:nonzero;stroke:none"
           d="m 15350.1,3213.68 c -125.3,-82.76 -269.7,-156.37 -436.2,-217 0,0 -30.7,483.36 182.8,990.89 163.8,389.4 471.3,792.97 1046.6,1003.7 0,0 156.7,-1150.32 -793.2,-1777.59" /></g><g
         transform="scale(1.11052)"
         id="g384"><path
           id="path386"
           style="fill:#379168;fill-opacity:1;fill-rule:nonzero;stroke:none"
           d="m 16300,3412.56 c -133,-87.89 -286.4,-166.05 -463.2,-230.43 0,0 -32.6,513.27 194.1,1052.21 l 269.1,-821.78" /></g><g
         transform="scale(1.16465)"
         id="g388"><path
           id="path390"
           style="fill:#379168;fill-opacity:1;fill-rule:nonzero;stroke:none"
           d="m 16219.3,4442.02 -1.6,9.02 -345.8,-59.16 c 238.2,355.21 426.2,596.23 428.1,598.63 l -7.2,5.58 c -1.9,-2.4 -192.7,-246.85 -433.4,-606.36 v 0 0 c -0.5,-0.77 -1,-1.46 -1.5,-2.23 -47.2,-70.58 -98.6,-148.89 -152.1,-233.03 l -63.3,318.03 -9.1,-1.8 64.4,-322.84 4.3,0.85 c -90.3,-142.19 -187,-301.2 -281.9,-469.24 l -6.9,-12.27 c -111,-197.14 -219.2,-406.48 -311.6,-615.64 l 8.3,-3.69 c 141.2,319.49 319.4,639.42 487.6,915.55 l 419.3,28.51 -0.6,9.1 -412.8,-27.99 c 92.9,152.15 182.7,290.82 261.3,408.36 l 354.5,60.62" /></g><g
         transform="scale(1.10853)"
         id="g392"><path
           id="path394"
           style="fill:#74c9a2;fill-opacity:1;fill-rule:nonzero;stroke:none"
           d="m 16180.7,3123.96 c 0,0 119.3,1878.26 -1530,2482.3 0,0 -249.8,-1833.87 1530,-2482.3" /></g><g
         transform="scale(1.10033)"
         id="g396"><path
           id="path398"
           style="fill:#379168;fill-opacity:1;fill-rule:nonzero;stroke:none"
           d="m 16300,3168.86 c -114.4,258.93 -248.4,518.12 -385.8,762.23 l 79,396.7 -11.1,2.18 -76.4,-383.71 c -117.5,208.12 -237.3,404.98 -349.2,581.01 l 5.4,-1 79.7,399.79 -11.2,2.27 -78.4,-393.88 c -66.4,104.24 -129.8,201.12 -188.4,288.55 -0.6,0.91 -1.2,1.82 -1.8,2.73 v 0.09 h -0.1 c -298,445.14 -534.2,747.87 -536.5,750.86 l -8.9,-6.99 c 2.2,-3 235.1,-301.37 530,-741.23 l -428.2,73.24 -2,-11.17 438.9,-75.07 c 97.4,-145.59 208.6,-317.27 323.7,-505.67 l -511.2,34.72 -0.8,-11.27 519.2,-35.26 c 208.4,-341.99 429,-738.14 603.7,-1133.75 l 10.4,4.63" /></g><g
         transform="scale(1.14075)"
         id="g400"><path
           id="path402"
           style="fill:#e3733f;fill-opacity:1;fill-rule:nonzero;stroke:none"
           d="m 16300,3594.92 -161.5,-1294.41 h -1196.9 l -141,1129.96 -20.5,164.45 H 16300" /></g><g
         transform="scale(1.14075)"
         id="g404"><path
           id="path406"
           style="fill:#db542e;fill-opacity:1;fill-rule:nonzero;stroke:none"
           d="M 16300,3594.92 16138.5,2300.51 H 15521 c 388.9,173.04 626.6,594.96 583,837.17 -48.8,270.52 -1197.3,291.47 -1303.4,292.79 l -20.5,164.45 H 16300" /></g><g
         transform="scale(1.14375)"
         id="g408"><path
           id="path410"
           style="fill:#e3733f;fill-opacity:1;fill-rule:nonzero;stroke:none"
           d="m 16300,3449.01 h -1601.4 v 144.96 H 16300 v -144.96" /></g><g
         transform="scale(1.14488)"
         id="g412"><path
           id="path414"
           style="fill:#db542e;fill-opacity:1;fill-rule:nonzero;stroke:none"
           d="m 16246,2288.62 h -1554.4 l -54,106.56 H 16300 l -54,-106.56" /></g><g
         transform="scale(1.55279)"
         id="g416"><path
           id="path418"
           style="fill:#33ace6;fill-opacity:1;fill-rule:nonzero;stroke:none"
           d="m 16145.9,4569.96 -880.6,-2771 h -2364.8 v -117.21 h 2327.6 134.6 c 256,801.71 833.7,2606.08 937.3,2888.21 h -154.1" /></g><g
         transform="scale(1.90482)"
         id="g420"><path
           id="path422"
           style="fill:#2786b4;fill-opacity:1;fill-rule:nonzero;stroke:none"
           d="m 13289.2,3725.4 -765,-2354.45 h 528.7 2499 L 16300,3725.4 h -3010.8" /></g><g
         transform="scale(1.72565)"
         id="g424"><path
           id="path426"
           style="fill:#ffffff;fill-opacity:1;fill-rule:nonzero;stroke:none"
           d="m 16051.5,2430.27 h -246.9 l 248.5,820.97 h 246.9 l -248.5,-820.97" /></g><g
         transform="scale(1.74684)"
         id="g428"><path
           id="path430"
           style="fill:#ffffff;fill-opacity:1;fill-rule:nonzero;stroke:none"
           d="m 15415.1,2684.39 73.9,243.81 h 811 l -73.8,-243.81 h -811.1" /></g><path
         id="path432"
         style="fill:#33ace6;fill-opacity:1;fill-rule:nonzero;stroke:none"
         d="m 10968.3,7096.2 1367.2,-4302.8 h 3672.1 v -182 h -3614.2 -209 C 11786.8,3856.3 10889.7,6658.1 10729,7096.2 h 239.3" /><path
         id="path434"
         style="fill:#2786b4;fill-opacity:1;fill-rule:nonzero;stroke:none"
         d="M 10726.1,7096.2 12183.2,2611.4 H 6415.98 L 4990.92,7096.2 h 5735.18" /><path
         id="path436"
         style="fill:#ffffff;fill-opacity:1;fill-rule:nonzero;stroke:none"
         d="m 8340.27,4193.8 h 425.96 l -428.91,1416.7 h -425.97 l 428.92,-1416.7" /><path
         id="path438"
         style="fill:#ffffff;fill-opacity:1;fill-rule:nonzero;stroke:none"
         d="m 9111.64,4689.2 -128.97,425.9 H 7565.95 l 128.97,-425.9 h 1416.72" /><path
         id="path440"
         style="fill:#b3e4ff;fill-opacity:1;fill-rule:nonzero;stroke:none"
         d="m 8961.08,11079.5 h -3806.4 c -203.03,0 -367.61,164.6 -367.61,367.6 v 4233.8 c 0,203.1 164.58,367.7 367.61,367.7 h 3806.4 c 203.03,0 367.62,-164.6 367.62,-367.7 v -4233.8 c 0,-203 -164.59,-367.6 -367.62,-367.6" /><path
         id="path442"
         style="fill:#ffffff;fill-opacity:1;fill-rule:nonzero;stroke:none"
         d="M 6687.61,14041.9 H 5456.1 v 1344.6 h 1231.51 v -1344.6" /><path
         id="path444"
         style="fill:#296acc;fill-opacity:1;fill-rule:nonzero;stroke:none"
         d="m 6079.26,14696.7 c 76.48,0 147.12,37.2 192.23,94.1 33.33,41.2 52.96,94.2 52.96,153 0,135.4 -109.85,247.2 -245.19,247.2 -137.29,0 -247.15,-111.8 -247.15,-247.2 0,-58.8 19.59,-111.8 52.97,-153 45.11,-56.9 115.7,-94.1 194.18,-94.1" /><path
         id="path446"
         style="fill:#296acc;fill-opacity:1;fill-rule:nonzero;stroke:none"
         d="m 6513.56,14230.2 0.15,207.8 c -70.95,258.9 -836.44,248.5 -870.86,0 l -0.25,-207.8 h 870.96" /><path
         id="path448"
         style="fill:#80b2ff;fill-opacity:1;fill-rule:nonzero;stroke:none"
         d="M 8595.19,15194.5 H 7054.6 c -36.25,0 -65.64,29.4 -65.64,65.6 v 37.8 c 0,36.3 29.39,65.7 65.64,65.7 h 1540.59 c 36.25,0 65.64,-29.4 65.64,-65.7 v -37.8 c 0,-36.2 -29.39,-65.6 -65.64,-65.6" /><path
         id="path450"
         style="fill:#80b2ff;fill-opacity:1;fill-rule:nonzero;stroke:none"
         d="M 8595.19,14740.2 H 7054.6 c -36.25,0 -65.64,29.3 -65.64,65.6 v 37.8 c 0,36.2 29.39,65.6 65.64,65.6 h 1540.59 c 36.25,0 65.64,-29.4 65.64,-65.6 v -37.8 c 0,-36.3 -29.39,-65.6 -65.64,-65.6" /><path
         id="path452"
         style="fill:#80b2ff;fill-opacity:1;fill-rule:nonzero;stroke:none"
         d="M 8595.19,14239.6 H 7054.6 c -36.25,0 -65.64,29.4 -65.64,65.7 v 37.8 c 0,36.2 29.39,65.6 65.64,65.6 h 1540.59 c 36.25,0 65.64,-29.4 65.64,-65.6 v -37.8 c 0,-36.3 -29.39,-65.7 -65.64,-65.7" /><path
         id="path454"
         style="fill:#80b2ff;fill-opacity:1;fill-rule:nonzero;stroke:none"
         d="M 6951.51,13392 H 5475.22 c -25.35,0 -45.9,20.5 -45.9,45.9 v 77.3 c 0,25.3 20.55,45.9 45.9,45.9 h 1476.29 c 25.35,0 45.9,-20.6 45.9,-45.9 v -77.3 c 0,-25.4 -20.55,-45.9 -45.9,-45.9" /><path
         id="path456"
         style="fill:#80b2ff;fill-opacity:1;fill-rule:nonzero;stroke:none"
         d="M 6951.51,12863.1 H 5475.22 c -25.35,0 -45.9,20.5 -45.9,45.9 v 77.2 c 0,25.4 20.55,45.9 45.9,45.9 h 1476.29 c 25.35,0 45.9,-20.5 45.9,-45.9 v -77.2 c 0,-25.4 -20.55,-45.9 -45.9,-45.9" /><path
         id="path458"
         style="fill:#80b2ff;fill-opacity:1;fill-rule:nonzero;stroke:none"
         d="M 6951.51,12334.2 H 5475.22 c -25.35,0 -45.9,20.5 -45.9,45.8 v 77.3 c 0,25.4 20.55,45.9 45.9,45.9 h 1476.29 c 25.35,0 45.9,-20.5 45.9,-45.9 v -77.3 c 0,-25.3 -20.55,-45.8 -45.9,-45.8" /><path
         id="path460"
         style="fill:#80b2ff;fill-opacity:1;fill-rule:nonzero;stroke:none"
         d="M 6951.51,11805.2 H 5475.22 c -25.35,0 -45.9,20.6 -45.9,45.9 v 77.3 c 0,25.3 20.55,45.9 45.9,45.9 h 1476.29 c 25.35,0 45.9,-20.6 45.9,-45.9 v -77.3 c 0,-25.3 -20.55,-45.9 -45.9,-45.9" /><path
         id="path462"
         style="fill:#ffffff;fill-opacity:1;fill-rule:nonzero;stroke:none"
         d="M 8719.95,11768.1 H 7289.19 v 1847.6 h 1430.76 v -1847.6" /><g
         transform="scale(1.15193)"
         id="g464"><path
           id="path466"
           style="fill:#80b2ff;fill-opacity:1;fill-rule:nonzero;stroke:none"
           d="m 12773.5,12937.7 h 3305.1 c 122.3,0 221.4,99.1 221.4,221.3 v 1417.6 c 0,122.3 -99.1,221.4 -221.4,221.4 h -3305.1 c -122.3,0 -221.5,-99.1 -221.5,-221.4 V 13159 c 0,-122.2 99.2,-221.3 221.5,-221.3" /></g><path
         id="path468"
         style="fill:#80b2ff;fill-opacity:1;fill-rule:nonzero;stroke:none"
         d="m 15171.7,15249.5 v -966.8 l 985.4,985.4 z" /><g
         transform="scale(1.1128)"
         id="g470"><path
           id="path472"
           style="fill:#ffffff;fill-opacity:1;fill-rule:nonzero;stroke:none"
           d="m 15961.9,14337.5 c 0,-93.3 75.7,-169 169.1,-169 93.3,0 169,75.7 169,169 0,93.4 -75.7,169.1 -169,169.1 -93.4,0 -169.1,-75.7 -169.1,-169.1" /></g><g
         transform="scale(1.0741)"
         id="g474"><path
           id="path476"
           style="fill:#ffffff;fill-opacity:1;fill-rule:nonzero;stroke:none"
           d="m 15949.8,14854.1 c 0,-96.7 78.3,-175.1 175.1,-175.1 96.7,0 175.1,78.4 175.1,175.1 0,96.8 -78.4,175.2 -175.1,175.2 -96.8,0 -175.1,-78.4 -175.1,-175.2" /></g><g
         transform="scale(1.03541)"
         id="g478"><path
           id="path480"
           style="fill:#ffffff;fill-opacity:1;fill-rule:nonzero;stroke:none"
           d="m 15936.6,15409.2 c 0,-100.3 81.3,-181.7 181.6,-181.7 100.4,0 181.8,81.4 181.8,181.7 0,100.4 -81.4,181.7 -181.8,181.7 -100.3,0 -181.6,-81.3 -181.6,-181.7" /></g><path
         id="path482"
         style="fill:#ffffff;fill-opacity:1;fill-rule:nonzero;stroke:none"
         d="m 15870,15954.8 c 0,-103.9 84.2,-188.1 188.1,-188.1 103.9,0 188.2,84.2 188.2,188.1 0,103.9 -84.3,188.1 -188.2,188.1 -103.9,0 -188.1,-84.2 -188.1,-188.1" /><path
         id="path484"
         style="fill:#ffffff;fill-opacity:1;fill-rule:nonzero;stroke:none"
         d="m 15239.2,15954.8 c 0,-103.9 84.2,-188.1 188.1,-188.1 103.9,0 188.2,84.2 188.2,188.1 0,103.9 -84.3,188.1 -188.2,188.1 -103.9,0 -188.1,-84.2 -188.1,-188.1" /><g
         transform="scale(1.14009)"
         id="g486"><path
           id="path488"
           style="fill:#80b2ff;fill-opacity:1;fill-rule:nonzero;stroke:none"
           d="M 11880.6,15034.2 H 9631.75 c -83.15,0 -150.61,67.4 -150.61,150.6 v 964.6 c 0,83.2 67.46,150.6 150.61,150.6 h 2248.85 c 83.2,0 150.7,-67.4 150.7,-150.6 v -964.6 c 0,-83.2 -67.5,-150.6 -150.7,-150.6" /></g><g
         transform="scale(1.06663)"
         id="g490"><path
           id="path492"
           style="fill:#80b2ff;fill-opacity:1;fill-rule:nonzero;stroke:none"
           d="m 12410,16288.3 v -610.4 l -622.1,622.1 622.1,-11.7" /></g><g
         transform="scale(1.10277)"
         id="g494"><path
           id="path496"
           style="fill:#ffffff;fill-opacity:1;fill-rule:nonzero;stroke:none"
           d="m 10421.2,16185.1 c 0,-63.4 -51.4,-114.9 -114.9,-114.9 -63.4,0 -114.9,51.5 -114.9,114.9 0,63.5 51.5,114.9 114.9,114.9 63.5,0 114.9,-51.4 114.9,-114.9" /></g><g
         transform="scale(1.10277)"
         id="g498"><path
           id="path500"
           style="fill:#ffffff;fill-opacity:1;fill-rule:nonzero;stroke:none"
           d="m 10806.4,16185.1 c 0,-63.4 -51.4,-114.9 -114.9,-114.9 -63.4,0 -114.9,51.5 -114.9,114.9 0,63.5 51.5,114.9 114.9,114.9 63.5,0 114.9,-51.4 114.9,-114.9" /></g><g
         transform="scale(1.10277)"
         id="g502"><path
           id="path504"
           style="fill:#ffffff;fill-opacity:1;fill-rule:nonzero;stroke:none"
           d="m 11191.6,16185.1 c 0,-63.4 -51.4,-114.9 -114.9,-114.9 -63.4,0 -114.9,51.5 -114.9,114.9 0,63.5 51.5,114.9 114.9,114.9 63.5,0 114.9,-51.4 114.9,-114.9" /></g><g
         transform="scale(1.10277)"
         id="g506"><path
           id="path508"
           style="fill:#ffffff;fill-opacity:1;fill-rule:nonzero;stroke:none"
           d="m 11576.8,16185.1 c 0,-63.4 -51.4,-114.9 -114.9,-114.9 -63.5,0 -114.9,51.5 -114.9,114.9 0,63.5 51.4,114.9 114.9,114.9 63.5,0 114.9,-51.4 114.9,-114.9" /></g><g
         transform="scale(1.10277)"
         id="g510"><path
           id="path512"
           style="fill:#ffffff;fill-opacity:1;fill-rule:nonzero;stroke:none"
           d="m 11962,16185.1 c 0,-63.4 -51.4,-114.9 -114.9,-114.9 -63.5,0 -114.9,51.5 -114.9,114.9 0,63.5 51.4,114.9 114.9,114.9 63.5,0 114.9,-51.4 114.9,-114.9" /></g><g
         transform="scale(1.7931)"
         id="g514"><path
           id="path516"
           style="fill:#80b2ff;fill-opacity:1;fill-rule:nonzero;stroke:none"
           d="m 16070.7,6517.75 h -877.6 c -100.9,0 -183.1,82.14 -183.1,183.14 v 776.68 h 1243.8 v -776.68 c 0,-101 -82.2,-183.14 -183.1,-183.14 z m 0,1290.04 h -877.6 c -126.4,0 -229.3,-102.87 -229.3,-229.31 v -877.59 c 0,-126.48 102.9,-229.38 229.3,-229.38 h 877.6 c 126.4,0 229.3,102.9 229.3,229.38 v 877.59 c 0,126.44 -102.9,229.31 -229.3,229.31" /></g><g
         transform="scale(1.70414)"
         id="g518"><path
           id="path520"
           style="fill:#80b2ff;fill-opacity:1;fill-rule:nonzero;stroke:none"
           d="m 16300,7520 h -191.7 v 184.87 H 16300 V 7520" /></g><g
         transform="scale(1.73044)"
         id="g522"><path
           id="path524"
           style="fill:#ffffff;fill-opacity:1;fill-rule:nonzero;stroke:none"
           d="m 16300,7405.71 h -188.8 v 182.06 h 188.8 v -182.06" /></g><g
         transform="scale(1.75512)"
         id="g526"><path
           id="path528"
           style="fill:#ffffff;fill-opacity:1;fill-rule:nonzero;stroke:none"
           d="m 16300,7301.54 h -186.1 v 179.5 h 186.1 v -179.5" /></g><g
         transform="scale(1.78142)"
         id="g530"><path
           id="path532"
           style="fill:#ffffff;fill-opacity:1;fill-rule:nonzero;stroke:none"
           d="m 16300,7193.74 h -183.4 v 176.85 h 183.4 v -176.85" /></g><g
         transform="scale(1.67783)"
         id="g534"><path
           id="path536"
           style="fill:#ffffff;fill-opacity:1;fill-rule:nonzero;stroke:none"
           d="m 16300,7384.52 h -194.7 v 187.8 h 194.7 v -187.8" /></g><g
         transform="scale(1.70414)"
         id="g538"><path
           id="path540"
           style="fill:#ffffff;fill-opacity:1;fill-rule:nonzero;stroke:none"
           d="m 16300,7270.55 h -191.7 v 184.9 h 191.7 v -184.9" /></g><g
         transform="scale(1.73044)"
         id="g542"><path
           id="path544"
           style="fill:#ffffff;fill-opacity:1;fill-rule:nonzero;stroke:none"
           d="m 16300,7160.05 h -188.8 v 182.09 h 188.8 v -182.09" /></g><g
         transform="scale(1.75512)"
         id="g546"><path
           id="path548"
           style="fill:#ffffff;fill-opacity:1;fill-rule:nonzero;stroke:none"
           d="m 16300,7059.34 h -186.1 v 179.53 h 186.1 v -179.53" /></g><g
         transform="scale(1.78142)"
         id="g550"><path
           id="path552"
           style="fill:#ffffff;fill-opacity:1;fill-rule:nonzero;stroke:none"
           d="m 16300,6955.11 h -183.4 V 7132 h 183.4 v -176.89" /></g><g
         transform="scale(1.67783)"
         id="g554"><path
           id="path556"
           style="fill:#ffffff;fill-opacity:1;fill-rule:nonzero;stroke:none"
           d="m 16300,7131.16 h -194.7 v 187.8 h 194.7 v -187.8" /></g><g
         transform="scale(1.70414)"
         id="g558"><path
           id="path560"
           style="fill:#ffffff;fill-opacity:1;fill-rule:nonzero;stroke:none"
           d="m 16300,7021.1 h -191.7 V 7206 h 191.7 v -184.9" /></g><g
         transform="scale(1.73044)"
         id="g562"><path
           id="path564"
           style="fill:#ffffff;fill-opacity:1;fill-rule:nonzero;stroke:none"
           d="m 16300,6914.39 h -188.8 v 182.09 h 188.8 v -182.09" /></g><g
         transform="scale(1.75512)"
         id="g566"><path
           id="path568"
           style="fill:#ffffff;fill-opacity:1;fill-rule:nonzero;stroke:none"
           d="m 16300,6817.13 h -186.1 v 179.53 h 186.1 v -179.53" /></g><g
         transform="scale(1.17583)"
         id="g570"><path
           id="path572"
           style="fill:#a6dfff;fill-opacity:1;fill-rule:nonzero;stroke:none"
           d="m 16300,10102.8 c 0,-662.53 -537.2,-1199.67 -1199.7,-1199.67 -662.6,0 -1199.7,537.14 -1199.7,1199.67 0,662.6 537.1,1199.7 1199.7,1199.7 662.5,0 1199.7,-537.1 1199.7,-1199.7" /></g><g
         transform="scale(1.14415)"
         id="g574"><path
           id="path576"
           style="fill:#ffffff;fill-opacity:1;fill-rule:nonzero;stroke:none"
           d="m 15007.9,11058.2 -25.4,-25.4 -3.3,3.3 -266.4,-266.3 323.2,-323.2 144.1,144 c 175.1,-147.5 370.4,-342.7 518.9,-518.1 l -144.4,-144.46 323.2,-323.21 53.3,53.4 c -1.7,-3.06 -3.8,-5.85 -6.2,-8.3 l 245.7,245.69 c 129.4,129.48 -1033.2,1292.08 -1162.7,1162.58" /></g><g
         transform="scale(1.63546)"
         id="g578"><path
           id="path580"
           style="fill:#a6dfff;fill-opacity:1;fill-rule:nonzero;stroke:none"
           d="m 16300,9323.44 c 0,-255.75 -207.3,-463.07 -463.1,-463.07 -255.7,0 -463.1,207.32 -463.1,463.07 0,255.74 207.4,463.07 463.1,463.07 255.8,0 463.1,-207.33 463.1,-463.07" /></g><g
         transform="scale(1.61737)"
         id="g582"><path
           id="path584"
           style="fill:#ffffff;fill-opacity:1;fill-rule:nonzero;stroke:none"
           d="m 16300,9337.32 h -343.7 v 421.54 h 64.9 v -356.6 h 278.8 v -64.94" /></g><g
         transform="scale(1.37985)"
         id="g586"><path
           id="path588"
           style="fill:#a6dfff;fill-opacity:1;fill-rule:nonzero;stroke:none"
           d="m 16300,13035.7 c 0,-287.1 -232.7,-519.8 -519.8,-519.8 -287.2,0 -519.9,232.7 -519.9,519.8 0,287.1 232.7,519.9 519.9,519.9 287.1,0 519.8,-232.8 519.8,-519.9" /></g><g
         transform="scale(1.34834)"
         id="g590"><path
           id="path592"
           style="fill:#ffffff;fill-opacity:1;fill-rule:nonzero;stroke:none"
           d="m 16074.7,13075.9 v 125.1 h 113 v -125.1 z m 0,163.6 v 14.3 c 0,49.8 20.3,87.4 76.1,137.2 30.9,27.9 40.7,50.5 40.7,76.9 0,28.6 -16.6,52 -52.7,52 -43.1,0 -57.4,-29.4 -61.1,-65.6 h -106.3 c 3.8,63.3 43.7,149.2 168.8,148.5 123.7,0 159.8,-79.9 159.8,-138.7 0,-47.5 -15.1,-79.9 -69.3,-130.4 -32.5,-30.1 -43,-55 -43,-85.9 v -8.3 h -113" /></g></g></g></svg>