<?xml version="1.0" encoding="UTF-8" standalone="no"?>
<svg
   xmlns:dc="http://purl.org/dc/elements/1.1/"
   xmlns:cc="http://creativecommons.org/ns#"
   xmlns:rdf="http://www.w3.org/1999/02/22-rdf-syntax-ns#"
   xmlns:svg="http://www.w3.org/2000/svg"
   xmlns="http://www.w3.org/2000/svg"
   viewBox="0 0 3054.6667 2620"
   height="2620"
   width="3054.6667"
   xml:space="preserve"
   id="svg2"
   version="1.1"><metadata
     id="metadata8"><rdf:RDF><cc:Work
         rdf:about=""><dc:format>image/svg+xml</dc:format><dc:type
           rdf:resource="http://purl.org/dc/dcmitype/StillImage" /></cc:Work></rdf:RDF></metadata><defs
     id="defs6" /><g
     transform="matrix(1.3333333,0,0,-1.3333333,0,2620)"
     id="g10"><g
       transform="scale(0.1)"
       id="g12"><g
         transform="scale(1.2968)"
         id="g14"><path
           id="path16"
           style="fill:#b7d0d9;fill-opacity:1;fill-rule:nonzero;stroke:none"
           d="m 1364.02,2113.5 c 0,-211.82 171.69,-383.48 383.49,-383.48 H 15916.6 c 211.8,0 383.4,171.66 383.4,383.48 V 11781 c 0,211.7 -171.6,383.4 -383.4,383.4 H 1747.51 c -211.8,0 -383.49,-171.7 -383.49,-383.4 V 2113.5" /></g><g
         transform="scale(1.24231)"
         id="g18"><path
           id="path20"
           style="fill:#ffffff;fill-opacity:1;fill-rule:nonzero;stroke:none"
           d="m 2138.98,2476.68 c 0,-200.83 162.75,-363.52 363.58,-363.52 H 15936.4 c 200.8,0 363.6,162.69 363.6,363.52 v 9165.82 c 0,200.8 -162.8,363.6 -363.6,363.6 H 2502.56 c -200.83,0 -363.58,-162.8 -363.58,-363.6 V 2476.68" /></g><g
         transform="scale(1.24231)"
         id="g22"><path
           id="path24"
           style="fill:#71c2ad;fill-opacity:1;fill-rule:nonzero;stroke:none"
           d="m 2138.98,2476.68 c 0,-200.83 162.75,-363.52 363.58,-363.52 H 15936.4 c 200.8,0 363.6,162.69 363.6,363.52 v 9165.82 c 0,200.8 -162.8,363.6 -363.6,363.6 H 2502.56 c -200.83,0 -363.58,-162.8 -363.58,-363.6 V 2476.68" /></g><g
         transform="scale(1.24231)"
         id="g26"><path
           id="path28"
           style="fill:#58b09c;fill-opacity:1;fill-rule:nonzero;stroke:none"
           d="M 16300,2476.68 V 6402.93 C 14947.6,8476.2 12284.1,9886.41 9219.46,9886.41 6154.88,9886.41 3491.39,8476.2 2138.98,6402.93 V 2476.68 c 0,-200.83 162.75,-363.52 363.58,-363.52 H 15936.4 c 200.8,0 363.6,162.69 363.6,363.52" /></g><g
         transform="scale(1.2968)"
         id="g30"><path
           id="path32"
           style="fill:#b7d0d9;fill-opacity:1;fill-rule:nonzero;stroke:none"
           d="M 16300,10754.3 V 11781 c 0,211.7 -171.6,383.4 -383.4,383.4 H 1747.51 c -211.8,0 -383.49,-171.7 -383.49,-383.4 V 10754.3 H 16300" /></g><path
         id="path34"
         style="fill:#ffffff;fill-opacity:1;fill-rule:nonzero;stroke:none"
         d="m 2657.27,14860.5 c 0,-351.5 285,-636.5 636.48,-636.5 351.52,0 636.52,285 636.52,636.5 0,351.6 -285,636.5 -636.52,636.5 -351.48,0 -636.48,-284.9 -636.48,-636.5" /><path
         id="path36"
         style="fill:#ffffff;fill-opacity:1;fill-rule:nonzero;stroke:none"
         d="m 4339.96,14860.5 c 0,-351.5 285,-636.5 636.52,-636.5 351.53,0 636.49,285 636.49,636.5 0,351.6 -284.96,636.5 -636.49,636.5 -351.52,0 -636.52,-284.9 -636.52,-636.5" /><path
         id="path38"
         style="fill:#ffffff;fill-opacity:1;fill-rule:nonzero;stroke:none"
         d="m 6022.73,14860.5 c 0,-351.5 284.93,-636.5 636.49,-636.5 351.52,0 636.48,285 636.48,636.5 0,351.6 -284.96,636.5 -636.48,636.5 -351.56,0 -636.49,-284.9 -636.49,-636.5" /><g
         transform="scale(1.08137)"
         id="g40"><path
           id="path42"
           style="fill:#ffffff;fill-opacity:1;fill-rule:nonzero;stroke:none"
           d="m 7039.22,13549.9 c 0,-82.7 67.05,-149.7 149.7,-149.7 h 8961.38 c 82.7,0 149.7,67 149.7,149.7 v 437.7 c 0,82.7 -67,149.7 -149.7,149.7 H 7188.92 c -82.65,0 -149.7,-67 -149.7,-149.7 v -437.7" /></g><g
         transform="scale(1.15285)"
         id="g44"><path
           id="path46"
           style="fill:#56ab5c;fill-opacity:1;fill-rule:nonzero;stroke:none"
           d="m 15701.4,12911.7 c 0,-165.3 134,-299.3 299.3,-299.3 165.3,0 299.3,134 299.3,299.3 0,165.3 -134,299.3 -299.3,299.3 -165.3,0 -299.3,-134 -299.3,-299.3" /></g><g
         transform="scale(1.21059)"
         id="g48"><path
           id="path50"
           style="fill:#fbc43c;fill-opacity:1;fill-rule:nonzero;stroke:none"
           d="m 15729.9,12295.9 c 0,-157.5 127.7,-285.1 285,-285.1 157.5,0 285.1,127.6 285.1,285.1 0,157.4 -127.6,285 -285.1,285 -157.3,0 -285,-127.6 -285,-285" /></g><g
         transform="scale(1.26833)"
         id="g52"><path
           id="path54"
           style="fill:#ef3140;fill-opacity:1;fill-rule:nonzero;stroke:none"
           d="m 15755.8,11736.1 c 0,-150.3 121.8,-272.1 272.2,-272.1 150.2,0 272,121.8 272,272.1 0,150.2 -121.8,272.1 -272,272.1 -150.4,0 -272.2,-121.9 -272.2,-272.1" /></g><path
         id="path56"
         style="fill:#b7d0d9;fill-opacity:1;fill-rule:nonzero;stroke:none"
         d="m 3406.56,15325.6 -520.08,-424.3 c -10.74,-8.8 -16.91,-21.7 -16.99,-35.6 -0.08,-13.9 5.94,-26.9 16.6,-35.8 l 520.04,-434.2 c 19.61,-16.4 48.79,-13.7 65.2,5.9 16.33,19.6 13.71,48.8 -5.9,65.2 l -477.03,398.2 476.64,389 c 19.8,16.1 22.73,45.3 6.6,65.1 -16.17,19.7 -45.27,22.7 -65.08,6.5" /><path
         id="path58"
         style="fill:#b7d0d9;fill-opacity:1;fill-rule:nonzero;stroke:none"
         d="m 4736.72,15254 476.64,-389 -477.07,-398.2 c -19.57,-16.4 -22.23,-45.6 -5.86,-65.2 16.41,-19.6 45.59,-22.3 65.16,-5.9 l 520.07,434.2 c 10.67,8.9 16.68,21.9 16.61,35.8 -0.08,13.9 -6.25,26.8 -17,35.6 l -520.07,424.3 c -19.81,16.2 -48.91,13.2 -65.08,-6.5 -16.14,-19.8 -13.21,-49 6.6,-65.1" /><path
         id="path60"
         style="fill:#b7d0d9;fill-opacity:1;fill-rule:nonzero;stroke:none"
         d="m 6953.67,15182.8 c -84.92,80.2 -199.84,129.4 -325.82,129.4 -262.38,-0.1 -475,-212.7 -475.04,-475.1 0.04,-262.4 212.66,-475.1 475.04,-475.1 127.15,0 243.05,50.1 328.2,131.6 18.48,17.6 19.15,46.9 1.49,65.4 -17.66,18.4 -46.95,19.1 -65.39,1.4 -68.79,-65.6 -161.64,-105.9 -264.3,-105.9 -105.78,0 -201.09,42.8 -270.47,112.1 -69.33,69.3 -112.03,164.7 -112.07,270.5 0.04,105.8 42.74,201.1 112.07,270.5 69.38,69.3 164.69,112 270.47,112.1 101.72,-0.1 193.75,-39.5 262.38,-104.1 18.56,-17.6 47.86,-16.7 65.36,1.9 17.54,18.5 16.68,47.8 -1.92,65.3" /><path
         id="path62"
         style="fill:#b7d0d9;fill-opacity:1;fill-rule:nonzero;stroke:none"
         d="m 6856.41,15282.3 35.23,-105.9 -103.83,-10.3 c -25.43,-2.6 -43.98,-25.2 -41.44,-50.7 2.58,-25.4 25.23,-44 50.66,-41.4 l 161.33,16.2 c 14.02,1.4 26.6,9.1 34.26,20.9 7.61,11.8 9.49,26.4 5.04,39.7 l -53.48,160.7 c -8.05,24.2 -34.22,37.3 -58.48,29.3 -24.22,-8.1 -37.34,-34.3 -29.25,-58.5 h -0.04" /><path
         id="path64"
         style="fill:#f9a882;fill-opacity:1;fill-rule:nonzero;stroke:none"
         d="m 5960.23,7249.6 c 0,0 -316.05,330 -344.14,394.3 -28.16,64.4 163.71,333.4 106.8,563.6 -56.99,230.3 152.7,600.8 262.54,721.5 0,0 45.08,148 -74.92,156.4 -120,8.3 -208.36,-7.7 -306.41,-116 -98.01,-108.3 -49.33,-467.8 -122.85,-514.4 0,0 -725.66,862.2 -919.73,907 0,0 -138.47,8.3 -174.64,-102.7 0,0 -130,119.1 -231.68,146 -101.65,27 -239.93,7.6 -276.37,-57.2 -36.45,-64.9 1.01,-147.6 1.33,-193.8 0,0 -150.55,-28.6 -131.21,-148.4 19.29,-119.7 170.97,-257.3 170.97,-257.3 0,0 -138.51,8.2 -137.73,-102.5 0.78,-110.7 986.72,-1247.9 1346.68,-1263.9 l 299.1,-551.5 532.26,418.9" /><path
         id="path66"
         style="fill:#f9a882;fill-opacity:1;fill-rule:nonzero;stroke:none"
         d="m 9371.64,13118.7 c 78.09,-416.3 -26.76,-785.4 -434.18,-861.8 -407.38,-76.4 -638.79,229.6 -716.87,646 -78.13,416.3 26.71,785.3 434.14,861.8 407.42,76.4 638.86,-229.6 716.91,-646" /><path
         id="path68"
         style="fill:#d98368;fill-opacity:1;fill-rule:nonzero;stroke:none"
         d="m 9285.7,13083.4 c 52.07,-277.7 -17.85,-523.9 -289.57,-574.8 -271.75,-51 -426.09,153.1 -478.2,430.8 -52.07,277.7 17.85,523.8 289.57,574.8 271.76,51 426.09,-153.1 478.2,-430.8" /><path
         id="path70"
         style="fill:#ba5f4b;fill-opacity:1;fill-rule:nonzero;stroke:none"
         d="m 8503.79,13048.8 c -8.87,39.8 -12.89,81.1 -11.09,122.4 1.83,41.2 6.91,83 19.37,123.6 12.58,40.3 31.02,80.1 58.44,114.1 25.47,35.6 60.58,63.5 97.81,86.6 18.71,11.4 39.26,18.9 59.02,28.5 20.24,8 41.33,12.8 62.15,19.1 6.25,1.5 8.17,3.2 17.97,4.3 l 15.08,2 30.19,4 c 18.75,4.1 44.22,1.3 66.65,1.3 45.93,-2.2 89.25,-14.1 131.17,-32.3 40,-21 77.85,-46.7 108.2,-79.2 32.23,-31 56.33,-67.8 78.95,-104.7 20.27,-38.1 38.71,-77.1 51.87,-117.6 13.71,-40.5 24.81,-81.1 31.68,-124.4 4.65,-47.8 2.7,-85.5 1.25,-128.4 -3.95,-83.3 -16.25,-167.1 -45.35,-247.5 -13.52,-40.3 -34.61,-79 -61.21,-113.6 -26.33,-35.4 -64.46,-61.6 -105.2,-77.7 l 2.11,1 c -35.9,-16.8 -72.03,-27 -109.53,-33.2 -18.79,-2.4 -37.5,-4.6 -56.41,-3.1 -18.75,-0.8 -37.22,5.1 -55.27,7.5 18.63,0.8 36.84,-1.9 54.88,2.1 18.09,2 35.75,5.7 53.13,10.6 34.26,10.1 68.16,25 97.03,43.5 l 2.07,1 c 32.3,19.1 60.78,42.7 80.7,74.9 20.04,31.6 34.65,67 44.85,104.3 11.36,36.7 16.79,75.7 21.87,114.4 3.32,39.1 6.92,78.3 6.84,117.8 0,38.1 -0.74,82 -5.35,114.7 -6.49,36.8 -17.15,74.7 -30.04,110.9 -12.39,36.6 -29.49,71 -47.62,104.3 -19.65,32 -39.73,64.4 -66.09,89.9 -24.81,27.5 -54.85,47.9 -86.18,65.3 -32.3,14.6 -67.57,26.5 -102.81,29.4 -18.08,0.2 -33.36,4.8 -54.84,1.3 l -30.31,-2.7 -15.16,-1.4 -11.68,-2.4 c -18.24,-4.4 -37.3,-7.2 -55.2,-12.9 -17.14,-7.2 -35.58,-12.3 -52.03,-20.9 -32.46,-17.9 -64.41,-38.4 -89.1,-66.9 -26.8,-26.8 -45.31,-60.9 -62.19,-95.8 -31.44,-71.6 -43.04,-152.9 -40.62,-234.1" /><path
         id="path72"
         style="fill:#ba5f4b;fill-opacity:1;fill-rule:nonzero;stroke:none"
         d="m 8743.75,13086.9 c 0,0 0.55,11.7 3.75,31.9 3.28,20.1 9.06,48.9 21.41,82.2 12.46,33 31.72,71.4 65.58,103.4 16.92,15.8 37.42,29.8 60.71,38.8 11.6,4.4 23.9,8.1 36.13,10.4 11.33,2.3 22.54,4.7 35.31,6 49.06,6.8 100.31,2 145.86,-14.6 45.2,-17.1 82.38,-44.3 109.65,-70.5 27.42,-26.4 46.01,-51.4 59.02,-68.8 12.19,-17.8 19.14,-28 19.14,-28 12.19,-17.8 7.62,-42.1 -10.23,-54.3 -17.81,-12.2 -42.15,-7.6 -54.34,10.2 l -2.11,3.5 -0.86,1.6 c 0,0 -5.19,9.7 -14.25,26.5 -9.65,16.2 -23.6,39.6 -44.07,64 -20.47,24.3 -47.93,49 -82.77,66.8 -34.88,17.1 -77.97,26.3 -121.52,24.9 -10.43,0.2 -22.19,-1.1 -33.75,-2.2 -10.71,-0.7 -20.86,-2.8 -30.98,-5.4 -20.16,-5.4 -38.71,-15.4 -55.08,-27.6 -32.65,-24.9 -55.12,-59 -70.31,-89.5 -15.27,-30.8 -23.99,-58.6 -29.26,-78.1 -5.27,-19.6 -7.03,-31.2 -7.03,-31.2" /><path
         id="path74"
         style="fill:#f9a882;fill-opacity:1;fill-rule:nonzero;stroke:none"
         d="m 13540.4,13147.7 c -72.3,-417.3 37.7,-784.9 446.1,-855.7 408.5,-70.7 635.6,238.5 707.9,655.9 72.3,417.4 -37.7,785 -446.1,855.7 -408.5,70.7 -635.6,-238.4 -707.9,-655.9" /><path
         id="path76"
         style="fill:#d98368;fill-opacity:1;fill-rule:nonzero;stroke:none"
         d="m 13626.9,13113.6 c -48.2,-278.4 25.1,-523.6 297.5,-570.7 272.4,-47.2 423.9,159 472.2,437.4 48.2,278.4 -25.2,523.6 -297.6,570.7 -272.4,47.2 -424,-159 -472.1,-437.4" /><path
         id="path78"
         style="fill:#ba5f4b;fill-opacity:1;fill-rule:nonzero;stroke:none"
         d="m 14409.2,13090 c 1.2,81.1 -11.5,162.3 -43.9,233.4 -17.4,34.7 -36.4,68.5 -63.5,94.9 -25.2,28.2 -57.3,48.2 -90,65.6 -16.6,8.5 -35.2,13.4 -52.3,20.3 -18,5.4 -37.1,8 -55.4,12.2 l -11.7,2.1 -15.3,1.2 -30.3,2.3 c -21.5,3.2 -36.8,-1.6 -54.8,-2.1 -35.2,-3.3 -70.3,-15.8 -102.4,-30.8 -31,-17.8 -60.8,-38.7 -85.2,-66.5 -26.1,-25.9 -45.6,-58.5 -64.9,-90.8 -17.7,-33.6 -34.2,-68.2 -46.2,-105 -12.4,-36.3 -22.4,-74.3 -28.4,-111.2 -4.2,-32.9 -4.3,-76.7 -3.7,-114.8 0.4,-39.5 4.5,-78.6 8.4,-117.7 5.6,-38.6 11.6,-77.5 23.4,-114.1 10.8,-37.1 25.8,-72.3 46.3,-103.6 20.4,-31.9 49.2,-55.2 81.8,-73.8 l 2.1,-1 c 29.1,-18.1 63.2,-32.5 97.7,-42.2 17.4,-4.6 35,-8 53.1,-9.8 18.2,-3.8 36.4,-0.9 55,-1.4 -18,-2.6 -36.4,-8.8 -55.2,-8.3 -18.8,-1.7 -37.6,0.2 -56.5,2.4 -37.5,5.6 -73.8,15.3 -109.9,31.7 l 2.1,-1 c -41,15.5 -79.5,41.2 -106.3,76.2 -27,34.3 -48.7,72.6 -62.8,112.8 -30.2,80 -43.7,163.6 -48.8,246.8 -2,42.9 -4.5,80.6 -0.5,128.4 6.3,43.4 16.8,84.2 29.9,124.9 12.7,40.7 30.5,79.8 50.3,118.2 22.1,37.3 45.7,74.5 77.5,105.9 29.8,32.9 67.4,59.1 107.1,80.7 41.6,18.6 84.8,31.3 130.7,34.1 22.4,0.3 47.9,3.4 66.6,-0.4 l 30.3,-3.6 15.1,-1.8 c 9.8,-0.9 11.8,-2.7 18,-4 20.9,-6.1 42.1,-10.6 62.4,-18.3 19.9,-9.2 40.6,-16.5 59.4,-27.6 37.6,-22.7 73.1,-50 99,-85.3 27.9,-33.6 46.9,-73.1 60.1,-113.2 12.9,-40.4 18.7,-82.1 21.1,-123.3 2.4,-41.3 -1.1,-82.7 -9.4,-122.5" /><path
         id="path80"
         style="fill:#ba5f4b;fill-opacity:1;fill-rule:nonzero;stroke:none"
         d="m 14168.7,13124.7 c 0,0 -1.9,11.5 -7.4,31 -5.6,19.5 -14.7,47.2 -30.4,77.7 -15.7,30.3 -38.5,64.1 -71.6,88.5 -16.5,12 -35.2,21.7 -55.4,26.9 -10.1,2.5 -20.3,4.4 -31,5 -11.6,1 -23.4,2 -33.8,1.7 -43.6,0.8 -86.5,-9 -121.2,-26.6 -34.6,-18.3 -61.7,-43.4 -81.8,-68 -20.2,-24.6 -33.8,-48.2 -43.2,-64.6 -8.8,-17 -13.9,-26.6 -13.9,-26.6 l -0.8,-1.6 c -10,-19.2 -33.6,-26.7 -52.8,-16.7 -19.1,10 -26.6,33.6 -16.6,52.7 l 2.1,3.6 c 0,0 6.9,10.3 18.7,28.3 12.8,17.6 31.1,42.8 58.1,69.6 26.9,26.6 63.7,54.3 108.7,72 45.3,17.2 96.5,22.8 145.6,16.6 12.8,-1.1 24.1,-3.3 35.4,-5.5 12.3,-2.1 24.6,-5.6 36.3,-9.9 23.4,-8.7 44.1,-22.4 61.3,-37.9 34.3,-31.6 54,-69.7 67,-102.5 12.8,-33.1 19,-61.8 22.5,-81.9 3.5,-20.2 4.2,-31.8 4.2,-31.8" /><path
         id="path82"
         style="fill:#6ca1c2;fill-opacity:1;fill-rule:nonzero;stroke:none"
         d="m 6313.75,6983.7 -376.33,504.9 c 0,0 -468.79,-166.3 -767.11,-611.3 l 298.56,-471.5 844.88,577.9" /><path
         id="path84"
         style="fill:#cde4e4;fill-opacity:1;fill-rule:nonzero;stroke:none"
         d="M 14309.1,8365.5 C 14125,8441.7 12105.2,9070 12105.2,9070 l -622.5,-410.4 -628.1,401.7 c 0,0 -2010.89,-656.4 -2193.86,-735.1 -87.3,-37.5 -47.85,-308 3.4,-498.2 51.29,-190.4 424.26,-1565.9 424.26,-1565.9 0,0 -177.07,-3249.5 -157.74,-3636.9 l 2593.94,18 2593.9,18 c 13.9,387.7 -208.4,3634.4 -208.4,3634.4 0,0 353.8,1380.6 402.4,1571.7 48.6,191 84.3,461.9 -3.4,498.2" /><path
         id="path86"
         style="fill:#6ca1c2;fill-opacity:1;fill-rule:nonzero;stroke:none"
         d="m 12510.5,8943.4 -603.6,-4.1 -424.2,-279.7 -428,273.8 -603.6,-4.3 c -79.9,-26.2 -168.2,-55.2 -261.5,-85.9 l 43.3,-6209 1291.7,9 1313.9,9.2 -43.1,6201.8 c -102,32 -198.3,62.2 -284.9,89.2" /><path
         id="path88"
         style="fill:#ea856d;fill-opacity:1;fill-rule:nonzero;stroke:none"
         d="m 10945.6,9246.5 557.1,-808.2 545.8,815.9 -95.5,1438.9 -931.9,-6.5 -75.5,-1440.1" /><path
         id="path90"
         style="fill:#d97160;fill-opacity:1;fill-rule:nonzero;stroke:none"
         d="m 12017.5,9720.23 -64.5,972.87 -931.9,-6.5 -43.2,-824.41 c 259.4,-116.41 719.1,-278.29 1039.6,-141.96" /><g
         transform="scale(1.00552)"
         id="g92"><path
           id="path94"
           style="fill:#f9a882;fill-opacity:1;fill-rule:nonzero;stroke:none"
           d="M 11384.7,16284.2 C 9113.06,16268.4 9062.1,13973 9163.02,12016 c 97.28,-1885.6 2264.28,-1868.5 2264.28,-1868.5 0,0 2167.2,13 2238.1,1899.9 73.8,1958.2 -9.2,4252.6 -2280.7,4236.8" /></g><path
         id="path96"
         style="fill:#f7977e;fill-opacity:1;fill-rule:nonzero;stroke:none"
         d="m 9264.45,11988.2 c 2.89,-414.6 341.33,-748.4 755.95,-745.6 414.7,2.9 748.4,341.4 745.5,756 -2.9,414.6 -341.3,748.4 -755.9,745.5 -414.65,-2.8 -748.48,-341.3 -745.55,-755.9" /><path
         id="path98"
         style="fill:#f7977e;fill-opacity:1;fill-rule:nonzero;stroke:none"
         d="m 12192.4,12008.5 c 2.9,-414.6 341.3,-748.4 756,-745.4 414.6,2.8 748.4,341.3 745.5,755.9 -2.8,414.6 -341.4,748.4 -756,745.5 -414.6,-2.9 -748.4,-341.3 -745.5,-756" /><path
         id="path100"
         style="fill:#ea856d;fill-opacity:1;fill-rule:nonzero;stroke:none"
         d="m 11574.6,13006.6 c 0,0 -138.8,52 -193.8,-1.4 -55,-53.4 -115.7,-607.4 -59.8,-680.9 55.9,-73.4 311.7,-83.7 324.9,17 19.5,147.7 -24.5,561.8 -71.3,665.3" /><path
         id="path102"
         style="fill:#ce775b;fill-opacity:1;fill-rule:nonzero;stroke:none"
         d="m 9716.48,13243.9 c 0,0 -7.85,31.7 -11.05,88.3 -3.75,56.6 -1.37,138.9 23.28,235.7 6.52,24.1 16.09,48.5 24.69,74.2 12.42,24.2 23.24,50.5 38.63,75.3 16.84,23.8 30.94,51 53.71,72.3 10.63,11.3 21.37,22.8 32.15,34.3 10.94,11.4 24.61,20 37.03,30.3 13.09,9.4 25.71,19.8 39.65,28.2 14.49,7.4 29.1,14.8 43.83,22.3 28.6,17 60.9,25 92.6,34.9 31.4,11.7 64.5,14.5 97.3,19.7 17.1,2.1 31.2,5.4 50.8,6.5 l 47.7,1 c 62.5,4.6 130,-2.2 194.7,-9.5 31.6,-7.2 62.9,-14.3 93.9,-21.3 30.1,-9.9 59.3,-21.9 88.2,-32.5 27.9,-13.2 54,-28.9 80.2,-42.8 24.4,-16.8 47.5,-34.5 69.8,-51.6 20,-19.9 40.3,-38.3 58.1,-57.8 16.2,-20.8 33.5,-39.6 46.9,-59.9 55.6,-80.4 84,-157.1 99.7,-210.8 15.6,-54.1 18.9,-86.4 18.9,-86.4 l -7.3,-0.9 c 0,0 -5,31.3 -23.5,83.5 -18.4,51.9 -50.7,125.2 -108.5,199.2 -14.1,18.7 -31.7,35.8 -48.2,54.7 -18,17.5 -38.3,33.8 -58.1,51.5 -22.2,14.6 -44.6,30.3 -68,45.1 -25.2,12 -50.2,25.7 -76.7,36.8 -27.6,8.7 -55.2,18.7 -83.7,26.8 -29.3,5.3 -58.9,10.6 -88.8,16.1 -60.1,3.8 -120,8.3 -184.8,0.8 l -47.6,-3.6 c -12.2,-1.4 -29.1,-5.7 -43.4,-8.4 -29.6,-6.5 -59.8,-10.3 -86.8,-22.5 -27.7,-10.3 -55.7,-19 -79.9,-34.5 l -37.21,-20.4 c -11.76,-7.6 -22.03,-17.1 -33.09,-25.3 -45.9,-30.8 -78.9,-73.8 -109.49,-114.4 -14.88,-20.7 -25.86,-43.4 -38.52,-64.2 -9.72,-22.4 -20.62,-43.5 -28.71,-64.9 -15.58,-43.1 -28.75,-83.7 -36.48,-120.9 -7.97,-37.1 -13.05,-70.1 -16.99,-97.4 -6.88,-54.9 -7.62,-86.8 -7.58,-86.8 l -7.35,-0.7" /><path
         id="path104"
         style="fill:#ffffff;fill-opacity:1;fill-rule:nonzero;stroke:none"
         d="m 10941.6,13324.3 c 0,0 -64.5,377.9 -617.6,374 -372.2,-2.6 -616.89,-271.4 -623.65,-643.3 -4.92,-274.5 130.51,-541.1 950.95,-443.1 404.1,48.2 290.3,712.4 290.3,712.4" /><path
         id="path106"
         style="fill:#352521;fill-opacity:1;fill-rule:nonzero;stroke:none"
         d="m 9904.88,13141.8 c 1.92,-274.4 225.82,-495.2 500.12,-493.3 274.3,1.9 495.2,225.8 493.2,500.2 -1.8,274.3 -225.8,495.1 -500.1,493.2 -274.3,-1.9 -495.13,-225.8 -493.22,-500.1" /><path
         id="path108"
         style="fill:#352521;fill-opacity:1;fill-rule:nonzero;stroke:none"
         d="m 10953.8,13064.1 c 0,0 1.4,31.3 -4,85.5 -6.3,53.9 -20.1,131.5 -55.8,215.1 -17.5,41.9 -43.7,83.5 -75.8,121.5 -32.5,37.9 -74.4,68.7 -119.9,92.2 -46.6,22.1 -97.2,37.5 -151.3,44.5 -24,2.9 -61.3,7.7 -88.4,9.4 -28.7,2.5 -58.8,3.5 -88.2,4.5 -58.8,1.6 -116.5,-1.6 -170.9,-8 -54.5,-6.9 -105.6,-17.9 -151.3,-36.4 -92.22,-34.6 -160.78,-104 -209.49,-177.2 -48.05,-73.4 -80.04,-145.2 -101.76,-195.4 -21.87,-51 -34.41,-80.1 -34.41,-80.1 l -6.06,1.1 c 0,0 -1.36,32.1 2.47,88.3 5.11,55.8 12.69,137.2 49.14,232.3 17.5,47.7 45.07,97.7 82.85,146.5 38.71,47.7 90.35,92.5 150.86,124.5 60.6,32.2 128.3,52.9 196.2,61.2 68.1,9.5 136.5,7.3 202.6,0.7 33.3,-3.2 65.6,-8.2 98.7,-14.1 34.9,-6.2 59.2,-10.9 95.6,-20.2 66.8,-17.6 131.5,-46.2 183.9,-87.7 52.8,-41.1 93.1,-91.7 121.9,-142.3 29.1,-50.8 47,-102.1 60,-149.1 24.8,-94.9 26.5,-175.3 25.2,-230.6 -0.9,-55.5 -6,-86.8 -6,-86.8 l -6.1,0.6" /><path
         id="path110"
         style="fill:#352521;fill-opacity:1;fill-rule:nonzero;stroke:none"
         d="m 9773.01,14404.7 c 0,0 681.59,332.8 1197.69,13.7 0,0 -182.9,-150 -520.3,-119 -272.4,24.9 -604.35,123.3 -677.39,105.3" /><path
         id="path112"
         style="fill:#ce775b;fill-opacity:1;fill-rule:nonzero;stroke:none"
         d="m 13198.1,13268.8 c 0,0 -1.2,31.9 -8.8,86.6 -4.3,27.3 -9.9,60.2 -18.4,97.2 -8.2,37.1 -21.9,77.5 -38.1,120.3 -8.4,21.4 -19.6,42.4 -29.6,64.6 -13,20.6 -24.2,43.2 -39.4,63.7 -31.2,40.1 -64.8,82.6 -111.1,112.9 -11.1,7.9 -21.6,17.3 -33.4,24.7 l -37.5,19.9 c -24.4,15.1 -52.6,23.5 -80.4,33.3 -27.2,11.9 -57.5,15.4 -87.1,21.4 -14.3,2.4 -31.3,6.6 -43.5,7.7 l -47.6,3 c -65,6.6 -124.7,1.3 -184.8,-3.4 -29.8,-5.8 -59.3,-11.6 -88.6,-17.3 -28.3,-8.5 -55.8,-18.9 -83.3,-28 -26.4,-11.5 -51.1,-25.5 -76.2,-37.7 -23.2,-15.2 -45.3,-31.2 -67.3,-46.2 -19.6,-17.9 -39.7,-34.5 -57.4,-52.2 -16.2,-19.2 -33.6,-36.5 -47.4,-55.4 -56.8,-74.8 -88.1,-148.6 -105.9,-200.7 -17.7,-52.5 -22.2,-83.9 -22.2,-83.9 l -7.3,0.9 c 0,0 2.7,32.3 17.6,86.6 15,54 42.3,131 96.7,212.2 13.3,20.4 30.3,39.5 46.2,60.6 17.5,19.7 37.6,38.4 57.3,58.6 22.1,17.3 44.9,35.4 69.1,52.5 25.9,14.3 51.9,30.4 79.6,43.9 28.7,11.1 57.7,23.5 87.7,33.8 30.9,7.4 62.1,14.9 93.5,22.5 64.7,8.3 132,16 194.5,12.3 l 47.9,-0.4 c 19.5,-0.8 33.7,-3.9 50.9,-5.8 32.7,-4.7 65.9,-7 97.5,-18.3 31.8,-9.5 64.2,-17 93.1,-33.6 14.7,-7.3 29.5,-14.5 44.1,-21.7 14,-8.2 26.8,-18.5 40,-27.6 12.6,-10.1 26.4,-18.6 37.5,-29.8 11,-11.4 21.8,-22.7 32.6,-33.8 23,-21 37.6,-48.1 54.7,-71.6 15.8,-24.6 27,-50.7 39.7,-74.7 9,-25.7 18.8,-50 25.7,-73.9 26,-96.4 29.5,-178.7 26.6,-235.4 -2.4,-56.7 -9.8,-88.4 -9.8,-88.4 l -7.4,0.6" /><path
         id="path114"
         style="fill:#ffffff;fill-opacity:1;fill-rule:nonzero;stroke:none"
         d="m 11979.3,13331.6 c 0,0 59.3,378.6 612.3,382.5 372.3,2.6 620.7,-262.8 632.6,-634.5 8.8,-274.5 -122.9,-543 -944.7,-456.4 -404.7,42.6 -300.2,708.4 -300.2,708.4" /><path
         id="path116"
         style="fill:#352521;fill-opacity:1;fill-rule:nonzero;stroke:none"
         d="m 13018.5,13163.4 c 1.9,-274.3 -218.9,-498.2 -493.3,-500.1 -274.3,-1.9 -498.2,218.9 -500.1,493.2 -1.9,274.3 219,498.3 493.3,500.1 274.3,2 498.2,-218.9 500.1,-493.2" /><path
         id="path118"
         style="fill:#352521;fill-opacity:1;fill-rule:nonzero;stroke:none"
         d="m 11964.7,13070.5 c 0,0 -5.6,31.2 -7.3,86.7 -2,55.3 -1.5,135.7 22,230.9 12.4,47.3 29.5,98.8 57.9,149.9 28.1,51 67.7,102.2 119.9,144 51.9,42.2 116.2,71.8 182.7,90.2 36.3,9.9 60.6,15 95.3,21.6 33.1,6.4 65.4,11.8 98.5,15.5 66.1,7.5 134.3,10.6 202.6,2.1 68,-7.4 136.1,-27.1 197.1,-58.5 60.9,-31.2 113.2,-75.2 152.6,-122.4 38.4,-48.3 66.7,-97.8 84.8,-145.3 37.8,-94.5 46.5,-175.9 52.4,-231.6 4.6,-56.1 3.6,-88.2 3.6,-88.2 l -6,-1.3 c 0,0 -12.9,29 -35.6,79.7 -22.3,49.9 -55.2,121.2 -104.3,194 -49.8,72.4 -119.3,140.9 -212,174.3 -46,17.8 -97.2,28.1 -151.8,34.2 -54.4,5.6 -112.1,8.1 -171,5.6 -29.3,-1.4 -59.4,-2.8 -88.1,-5.7 -27,-2.1 -64.3,-7.3 -88.3,-10.6 -54,-7.7 -104.3,-23.9 -150.6,-46.6 -45.1,-24.2 -86.6,-55.5 -118.6,-93.9 -31.6,-38.4 -57.3,-80.4 -74.2,-122.5 -34.5,-84.2 -47.2,-161.9 -52.7,-215.9 -4.7,-54.3 -2.8,-85.6 -2.8,-85.6 l -6.1,-0.6" /><path
         id="path120"
         style="fill:#352521;fill-opacity:1;fill-rule:nonzero;stroke:none"
         d="m 13132.7,14428.1 c 0,0 -686.2,323.3 -1197.7,-2.9 0,0 184.9,-147.5 522,-111.9 271.9,28.8 602.5,131.8 675.7,114.8" /><path
         id="path122"
         style="fill:#80b0d1;fill-opacity:1;fill-rule:nonzero;stroke:none"
         d="m 10653.2,7644.9 853.4,777.4 -561.4,879.8 -756.2,-374.8 464.2,-1282.4" /><path
         id="path124"
         style="fill:#80b0d1;fill-opacity:1;fill-rule:nonzero;stroke:none"
         d="m 12348.5,7656.7 -864.2,765.4 549,887.7 761.4,-364.3 -446.2,-1288.8" /><path
         id="path126"
         style="fill:#ffffff;fill-opacity:1;fill-rule:nonzero;stroke:none"
         d="m 12936.4,13351.9 c 0,0 -47.3,52.2 -129.2,51.5 -43.7,-0.4 -87.3,-18 -110.8,-88.5 -44.7,-134.2 321.5,-74.5 240,37" /><path
         id="path128"
         style="fill:#ffffff;fill-opacity:1;fill-rule:nonzero;stroke:none"
         d="m 10009.7,13331.6 c 0,0 46.6,52.7 128.5,53.2 43.7,0.2 87.5,-16.7 112,-86.9 46.6,-133.6 -320.51,-79 -240.5,33.7" /><path
         id="path130"
         style="fill:#e2f4f3;fill-opacity:1;fill-rule:nonzero;stroke:none"
         d="m 10255.5,8960.3 -22.6,-6326.1 -152.6,-1.1 -607.06,3373.3 335.98,2711.2 446.28,242.7" /><path
         id="path132"
         style="fill:#e2f4f3;fill-opacity:1;fill-rule:nonzero;stroke:none"
         d="m 12737.4,8977.5 110.8,-6325.1 152.4,1.1 560.1,3381.4 -373.7,2706.2 -449.6,236.4" /><path
         id="path134"
         style="fill:#cde4e4;fill-opacity:1;fill-rule:nonzero;stroke:none"
         d="m 8660.74,8326.2 c 0,0 -212.15,-93.7 -305.86,-315.8 C 8261.21,7788.2 7260.23,5760.2 7260.23,5760.2 L 6228.32,7247.6 c 0,0 -540.51,-311.4 -931.21,-685.1 0,0 1475.19,-2446 1765.19,-2565.8 263.48,-108.9 576.14,77.8 649.22,189 73.01,111.3 1478.91,1966.4 1478.91,1966.4 0,0 -122.38,1586.4 -529.69,2174.1" /><path
         id="path136"
         style="fill:#779cb8;fill-opacity:1;fill-rule:nonzero;stroke:none"
         d="m 13014.5,5537.1 c -28.3,-285.4 92.8,-530.8 270.7,-548.5 177.7,-17.6 344.8,199.4 373.2,484.5 28.3,285.2 -93,530.6 -270.7,548.3 -177.9,17.6 -344.9,-199.2 -373.2,-484.3" /><path
         id="path138"
         style="fill:#6ca1c2;fill-opacity:1;fill-rule:nonzero;stroke:none"
         d="m 13374.3,6022.5 127.7,-12.8 -15.6,-47.9 -133.2,3.2 21.1,57.5" /><path
         id="path140"
         style="fill:#6ca1c2;fill-opacity:1;fill-rule:nonzero;stroke:none"
         d="m 13295.2,4987.5 119.2,-10 -0.4,58 -142.6,-1 23.8,-47" /><path
         id="path142"
         style="fill:#bed8e3;fill-opacity:1;fill-rule:nonzero;stroke:none"
         d="m 13117.8,5526.8 c -28.3,-285.2 92.9,-530.8 270.7,-548.4 177.8,-17.8 344.8,199.2 373.1,484.5 28.3,285.3 -92.8,530.7 -270.6,548.2 -177.9,17.6 -344.9,-199.3 -373.2,-484.3" /><path
         id="path144"
         style="fill:#88a7c5;fill-opacity:1;fill-rule:nonzero;stroke:none"
         d="m 13271.2,5524.7 c -19.2,-193.6 63.1,-360.1 183.6,-372 120.7,-12 234.1,135.2 253.4,328.7 19.1,193.5 -63,360 -183.8,372 -120.6,11.9 -233.9,-135.2 -253.2,-328.7" /><path
         id="path146"
         style="fill:#c1d4e6;fill-opacity:1;fill-rule:nonzero;stroke:none"
         d="m 13364,5515.5 c -13.9,-139.3 38.3,-258.6 116.4,-266.3 78.2,-7.8 152.8,99 166.6,238.3 13.9,139.3 -38.3,258.6 -116.5,266.3 -78,7.8 -152.6,-98.9 -166.5,-238.3" /><path
         id="path148"
         style="fill:#314169;fill-opacity:1;fill-rule:nonzero;stroke:none"
         d="m 13487.5,5436.4 h -0.7 c -31.3,0.3 -56.5,25.9 -56.3,57.1 0.2,28.8 81.2,2559.5 -155.2,3245.2 -10.2,29.6 5.6,61.8 35.1,72 29.6,10.2 61.8,-5.5 72,-35 242.7,-704.1 162.2,-3164.6 161.4,-3283 -0.2,-31.1 -25.3,-56.1 -56.3,-56.3" /><path
         id="path150"
         style="fill:#314169;fill-opacity:1;fill-rule:nonzero;stroke:none"
         d="m 9840.12,7318.5 c -30.47,-0.2 -55.78,23.8 -56.96,54.4 -1.95,50.4 -47.26,1235.8 -9.02,1441.1 5.7,30.7 35.27,50.9 66.02,45.3 30.78,-5.7 51.01,-35.3 45.31,-66.1 -28.75,-154.4 -5.47,-993.7 10.86,-1415.9 1.17,-31.2 -23.13,-57.6 -54.38,-58.7 l -1.83,-0.1" /><path
         id="path152"
         style="fill:#6a8fa1;fill-opacity:1;fill-rule:nonzero;stroke:none"
         d="m 9299.49,6531.9 -33.79,19.3 c 178.91,285.9 376.92,431.5 588.36,433 h 2.35 c 148.59,0.3 304.89,-73.4 451.79,-213 109.9,-104.4 175.3,-207.3 178,-211.6 l -33.7,-19.6 c -2.6,4.1 -260.9,407.2 -596.13,406.4 h -1.99 c -196.84,-1.3 -383.48,-140.8 -554.89,-414.5" /><path
         id="path154"
         style="fill:#57737f;fill-opacity:1;fill-rule:nonzero;stroke:none"
         d="m 10402.3,6848.4 514.6,-1505.7 c 36.4,-106.7 26.7,-210.8 -26.6,-286 -49.4,-69.5 -130.4,-108.2 -228.2,-108.9 l -353.4,-2.5 -0.4,51 353.4,2.4 c 81,0.6 147.4,31.7 187.1,87.5 43.7,61.7 50.9,149.2 19.8,240 l -514.4,1505.7 48.1,16.5" /><path
         id="path156"
         style="fill:#8eafc0;fill-opacity:1;fill-rule:nonzero;stroke:none"
         d="m 10466.5,6503.2 20.3,-59.6 48.2,16.8 -20.2,59 -48.3,-16.2" /><path
         id="path158"
         style="fill:#8eafc0;fill-opacity:1;fill-rule:nonzero;stroke:none"
         d="m 10547.6,6502.2 98.1,-287.1 -96.4,-33 -98.1,287.1 96.4,33" /><path
         id="path160"
         style="fill:#e3d6b5;fill-opacity:1;fill-rule:nonzero;stroke:none"
         d="m 10510.2,4972.2 0.1,-26.8 c 0,0 -184,-90.3 -252.1,-78 -67.9,12.2 -56.5,199 -1.3,199.4 0,0 42.3,21.6 253.1,-66.1 l 0.2,-28.5" /><path
         id="path162"
         style="fill:#57737f;fill-opacity:1;fill-rule:nonzero;stroke:none"
         d="M 9357.03,6841.2 8863.55,5328.4 c -34.96,-107.2 -23.78,-211.1 30.63,-285.6 50.27,-68.8 131.84,-106.4 229.61,-105.8 l 353.44,2.5 -0.35,51 -353.44,-2.5 c -80.9,-0.5 -147.78,29.7 -188.24,84.9 -44.57,61 -52.97,148.3 -23.21,239.7 l 493.48,1512.7 -48.44,15.9" /><path
         id="path164"
         style="fill:#8eafc0;fill-opacity:1;fill-rule:nonzero;stroke:none"
         d="m 9297.73,6495 -19.57,-59.8 -48.36,16.1 19.42,59.3 48.51,-15.6" /><path
         id="path166"
         style="fill:#8eafc0;fill-opacity:1;fill-rule:nonzero;stroke:none"
         d="m 9216.68,6493 -94.14,-288.5 96.87,-31.7 94.11,288.5 -96.84,31.7" /><path
         id="path168"
         style="fill:#e3d6b5;fill-opacity:1;fill-rule:nonzero;stroke:none"
         d="m 9275.39,4963.7 0.2,-26.9 c 0,0 185.31,-87.7 253.12,-74.5 67.85,13.2 53.79,199.8 -1.37,199.5 0,0 -42.61,20.9 -252.11,-69.7 l 0.16,-28.4" /><path
         id="path170"
         style="fill:#314169;fill-opacity:1;fill-rule:nonzero;stroke:none"
         d="m 9361.48,6640.5 c 1.18,3.5 120.08,350.5 190.32,502.9 41.83,90.8 77.97,169.2 324.65,170.8 246.65,1.8 283.95,-76.1 326.95,-166.2 72.4,-151.4 196.1,-496.8 197.3,-500.2 l 84,29.9 c -5.2,14.4 -126.5,353.2 -200.8,508.7 -57.3,120 -127.6,219 -408.08,217 -280.51,-2 -349.34,-101.9 -405,-222.7 -72.11,-156.5 -188.75,-496.9 -193.67,-511.4 l 84.33,-28.8" /><path
         id="path172"
         style="fill:#ba5f4b;fill-opacity:1;fill-rule:nonzero;stroke:none"
         d="m 10926.5,11975.1 c 3.2,-2.3 194.2,-141.8 517.3,-141.9 165.3,0 364.8,36.8 589.5,146.5 15.3,7.5 21.7,25.9 14.2,41.2 -7.4,15.2 -25.9,21.5 -41.1,14.1 -216.8,-105.7 -406.4,-140.2 -562.6,-140.2 -152.5,0 -273.4,32.9 -355.9,65.7 -41.3,16.4 -72.9,32.7 -94.1,44.9 -10.6,6 -18.5,11 -23.7,14.4 l -5.7,3.8 -1.3,0.9 -0.2,0.2 c -13.7,10 -32.9,7.1 -43,-6.6 -10.1,-13.7 -7,-32.9 6.6,-43" /><path
         id="path174"
         style="fill:#ba5f4b;fill-opacity:1;fill-rule:nonzero;stroke:none"
         d="m 11614.4,11480.9 -258.3,-1.8 c -17,-0.1 -30.7,-13.9 -30.6,-30.9 0.2,-17 14,-30.7 31,-30.6 l 258.3,1.8 c 17,0.1 30.7,14 30.6,31 -0.2,17 -14,30.7 -31,30.5" /><g
         transform="scale(1.06941)"
         id="g176"><path
           id="path178"
           style="fill:#352521;fill-opacity:1;fill-rule:nonzero;stroke:none"
           d="m 8588.62,12204.4 c 0,0 367.9,933.9 388.51,1279.5 20.6,345.6 279.86,1164.2 664.85,1201.4 384.92,37.2 899.52,-304.3 2051.02,-66.2 0,0 319.5,13.7 478.8,-169.2 159.1,-183 289.6,-679.9 396.9,-1297.3 35.8,-205.3 295,-955.6 295,-955.6 0,0 344.8,1328.2 231.8,2006.2 -113.1,678 -473.5,790.5 -473.5,790.5 0,0 126,518.6 -221.3,815.3 -347.1,296.7 -1219.9,451.7 -1698.8,471.3 -478.8,19.7 -1558.65,-217.9 -1878.45,-553.7 -319.79,-335.9 -177.09,-726.1 -177.09,-726.1 0,0 -291.95,-244.8 -343.67,-785.2 -51.69,-540.5 285.93,-2010.9 285.93,-2010.9" /></g><path
         id="path180"
         style="fill:#985c47;fill-opacity:1;fill-rule:nonzero;stroke:none"
         d="m 5415.78,7550.8 c -0.04,1.2 -1.09,73.7 -31.87,162.4 -30.67,88.6 -91.84,194.4 -212.5,258 -64.61,34 -138.25,46.1 -211.14,46.1 -202.38,-0.3 -402.34,-92.5 -403.55,-92.9 -9.3,-4.3 -13.32,-15.2 -9.1,-24.5 4.26,-9.2 15.19,-13.3 24.45,-9 0,0 2.85,1.3 8.56,3.7 39.53,17 212.14,85.9 379.64,85.8 68.91,0 136.53,-11.6 193.91,-41.8 109.84,-57.9 165.94,-154.3 194.88,-237.5 14.42,-41.5 21.92,-79.5 25.74,-107.1 1.92,-13.7 2.97,-24.8 3.48,-32.4 0.55,-7.6 0.59,-11.3 0.59,-11.3 0.15,-10.2 8.55,-18.4 18.75,-18.2 10.15,0.1 18.32,8.5 18.16,18.7" /><path
         id="path182"
         style="fill:#985c47;fill-opacity:1;fill-rule:nonzero;stroke:none"
         d="m 4382.42,8112.7 2.38,4.4 c 24.65,45.1 243.01,421.3 684.89,588.7 9.53,3.7 14.33,14.3 10.7,23.8 -3.59,9.6 -14.26,14.3 -23.79,10.7 -485.74,-184.8 -705.82,-608.8 -706.91,-610.5 -4.69,-9 -1.21,-20.2 7.85,-24.9 9.06,-4.7 20.19,-1.2 24.88,7.8" /><path
         id="path184"
         style="fill:#985c47;fill-opacity:1;fill-rule:nonzero;stroke:none"
         d="m 3907.58,8734.9 c 0.08,-0.1 30.51,-27.4 76.6,-70.1 69.1,-64.1 173.16,-162.3 261.09,-252.9 43.95,-45.3 83.87,-88.7 113.13,-124.8 14.65,-17.9 26.56,-34.1 34.92,-47.2 8.4,-13.1 12.89,-23.9 13.32,-27.8 1.64,-10 11.09,-16.9 21.17,-15.2 10.08,1.5 16.92,11 15.32,21.1 -3.29,17.9 -13.83,35.2 -29.18,57.4 -53.87,75.8 -173.56,196.4 -280.71,299.5 -106.99,102.9 -200.9,187.4 -200.97,187.4 -7.58,6.8 -19.26,6.2 -26.1,-1.4 -6.79,-7.5 -6.17,-19.2 1.41,-26" /><path
         id="path186"
         style="fill:#985c47;fill-opacity:1;fill-rule:nonzero;stroke:none"
         d="m 4636.17,8454.8 c -0.15,0.1 -117.58,144.1 -264.69,304.3 -147.53,160.3 -323,336.1 -445.54,402.9 -8.99,4.8 -20.2,1.5 -25.04,-7.5 -4.85,-9 -1.52,-20.2 7.46,-25 113.12,-60.8 290.04,-236.3 435.94,-395.4 73.12,-79.6 139.02,-155.4 186.52,-211.1 47.58,-55.8 76.64,-91.5 76.72,-91.6 6.44,-7.9 18.09,-9.1 25.98,-2.7 7.89,6.5 9.1,18.2 2.65,26.1" /><path
         id="path188"
         style="fill:#985c47;fill-opacity:1;fill-rule:nonzero;stroke:none"
         d="m 4888.75,8641.8 c -0.12,0.2 -78.79,126.7 -179.18,268.7 -50.19,71.1 -105.86,145.9 -159.96,211 -54.22,65.1 -106.48,120.4 -152.03,152.8 -8.32,5.9 -19.81,4 -25.74,-4.3 -5.9,-8.3 -3.95,-19.8 4.37,-25.8 40.47,-28.6 91.95,-82.4 145.04,-146.3 79.77,-95.9 163.98,-215 228.05,-309.9 32.07,-47.5 59.1,-89 78.12,-118.5 19.03,-29.5 29.96,-47.1 29.96,-47.2 5.39,-8.6 16.8,-11.3 25.43,-5.9 8.67,5.4 11.29,16.8 5.94,25.4" /><path
         id="path190"
         style="fill:#985c47;fill-opacity:1;fill-rule:nonzero;stroke:none"
         d="m 5181.17,7956.4 -0.19,3.9 c -0.12,2.9 -0.24,7.1 -0.24,12.7 -0.04,30.8 3.91,100.9 33.48,178.4 29.69,77.5 84.37,162.5 186.99,226.2 8.67,5.3 11.33,16.7 5.98,25.3 -5.39,8.7 -16.76,11.4 -25.39,6 -110.43,-68.3 -170.35,-161 -202.07,-244.4 -31.76,-83.4 -35.86,-157.6 -35.9,-191.5 0,-12.1 0.55,-19.2 0.58,-19.6 0.79,-10.2 9.69,-17.7 19.85,-16.9 10.15,0.8 17.73,9.7 16.91,19.9" /><g
         transform="scale(1.17643)"
         id="g192"><path
           id="path194"
           style="fill:#f9a882;fill-opacity:1;fill-rule:nonzero;stroke:none"
           d="m 14426.4,6227.49 c 0,0 264.7,284.16 287.8,339.24 23.2,55.09 -143.2,281.36 -97.5,477.72 45.7,196.44 -136.8,508.83 -231.6,610.15 0,0 -40.1,125.21 61.7,133.8 102,8.58 177.3,-4.08 261.9,-94.95 84.5,-90.87 47.5,-397.05 110.5,-435.81 0,0 606.5,741.48 771,781.85 0,0 117.6,8.68 149.6,-85.25 0,0 109.1,102.68 195.2,126.91 86.1,24.05 203.8,9.18 235.6,-45.39 31.7,-54.75 0.9,-125.55 1.1,-164.74 0,0 128.3,-22.53 113.3,-124.53 -14.9,-102.09 -142.2,-220.75 -142.2,-220.75 0,0 117.5,8.67 118.3,-85.43 0.6,-94.18 -824,-1072.48 -1129.7,-1090.25 l -247.7,-472.27 -457.3,349.7" /></g><g
         transform="scale(1.08998)"
         id="g196"><path
           id="path198"
           style="fill:#6ca1c2;fill-opacity:1;fill-rule:nonzero;stroke:none"
           d="m 15249.7,6472.99 338.8,467.99 c 0,0 432.1,-146.52 711.5,-550.93 l -267.9,-436.43 -782.4,519.37" /></g><g
         transform="scale(1.08247)"
         id="g200"><path
           id="path202"
           style="fill:#cde4e4;fill-opacity:1;fill-rule:nonzero;stroke:none"
           d="m 13170.3,7727.91 c 0,0 197.1,-83.98 286.6,-287.86 89.4,-204.08 1040,-2064.45 1040,-2064.45 l 934.2,1387.2 c 0,0 503.2,-280.75 868.9,-620.9 0,0 -1331.3,-2278.32 -1597.7,-2392.78 -241.9,-104.02 -533.1,64.49 -602,166.29 -68.9,101.9 -1391.4,1797.38 -1391.4,1797.38 0,0 92.6,1466.92 461.4,2015.12" /></g><g
         transform="scale(1.12755)"
         id="g204"><path
           id="path206"
           style="fill:#985c47;fill-opacity:1;fill-rule:nonzero;stroke:none"
           d="m 15563.5,6771.3 c 0,0 -0.1,3.29 0.4,10.03 1.3,23.59 7.4,85.4 34.6,152.27 27.2,67.05 74.8,138.62 159.4,184.74 52.7,28.73 115.5,39.55 179.3,39.55 83.6,0.09 168.4,-18.53 232,-37.42 31.8,-9.31 58.3,-18.63 76.8,-25.63 9.2,-3.55 16.5,-6.39 21.4,-8.52 4.9,-1.95 7.3,-3.1 7.3,-3.1 8.4,-3.55 17.9,0.09 21.7,8.42 3.6,8.25 -0.1,17.92 -8.4,21.56 -1,0.35 -174.2,77.24 -350.8,77.42 -67.3,0 -135.6,-11.26 -195,-43.55 -106.1,-57.82 -159.1,-152.45 -185.1,-231.38 -26.3,-79.11 -26.3,-143.32 -26.3,-144.39 0,-9.04 7.3,-16.4 16.3,-16.49 9.1,0 16.3,7.36 16.4,16.49" /></g><g
         transform="scale(1.13954)"
         id="g208"><path
           id="path210"
           style="fill:#985c47;fill-opacity:1;fill-rule:nonzero;stroke:none"
           d="m 16295.8,7221.07 c -1,1.58 -199.3,370.94 -627.8,527.14 -8.3,3.08 -17.7,-1.22 -20.7,-9.65 -3.1,-8.42 1.2,-17.72 9.6,-20.71 207.9,-75.64 360.7,-203.85 461.5,-313.19 50.3,-54.67 87.7,-104.61 112.4,-140.76 12.3,-17.99 21.5,-32.74 27.5,-42.83 3.1,-5 5.4,-8.86 6.9,-11.49 l 2.1,-3.78 c 4.2,-7.89 14,-10.88 21.9,-6.58 7.9,4.22 10.8,14.04 6.6,21.85" /></g><g
         transform="scale(1.16634)"
         id="g212"><path
           id="path214"
           style="fill:#985c47;fill-opacity:1;fill-rule:nonzero;stroke:none"
           d="m 16271.7,7602.52 c -0.1,-0.18 -103.9,-96.12 -209.4,-202.26 -52.7,-53.16 -105.9,-108.72 -146.8,-156.47 -20.5,-23.84 -37.9,-45.62 -51,-64.57 -12.8,-19.11 -21.7,-34.12 -24.3,-49.47 -1.3,-8.74 4.7,-16.72 13.4,-18 8.6,-1.29 16.7,4.71 18,13.38 0.3,4.62 7,19.03 19,36.18 42.1,61.3 143.4,166.67 233.3,255.58 45,44.5 87.4,85.14 118.5,114.64 31,29.49 50.7,47.67 50.8,47.75 6.4,5.92 6.8,15.95 0.9,22.29 -5.9,6.43 -16,6.78 -22.4,0.95" /></g><g
         transform="scale(1.1662)"
         id="g216"><path
           id="path218"
           style="fill:#985c47;fill-opacity:1;fill-rule:nonzero;stroke:none"
           d="m 15698.6,7311.51 c 0,0.09 24.5,31.04 64.5,79.4 60.2,72.63 155.1,184.19 253.7,287.86 98.2,103.67 200.9,199.53 272.9,239.67 7.6,4.28 10.3,13.89 6,21.52 -4.3,7.63 -13.8,10.29 -21.4,6.09 -104.4,-58.57 -252.7,-211.54 -377.3,-350.71 -124.2,-139.17 -223.2,-264.02 -223.3,-264.19 -5.4,-6.78 -4.3,-16.81 2.6,-22.21 6.8,-5.4 16.8,-4.29 22.3,2.57" /></g><g
         transform="scale(1.13728)"
         id="g220"><path
           id="path222"
           style="fill:#985c47;fill-opacity:1;fill-rule:nonzero;stroke:none"
           d="m 15875.7,7662.3 c 0,0.09 16.8,27.79 44.3,71.4 41.4,65.25 107,165.92 176,260.27 68.9,94.17 142.1,182.37 195.2,221.05 7.2,5.19 8.8,15.39 3.4,22.69 -5.2,7.21 -15.3,8.79 -22.6,3.43 -39.6,-29.11 -84.9,-78.26 -131.8,-136.2 -140.2,-173.58 -292.1,-425.58 -292.2,-425.93 -4.8,-7.65 -2.2,-17.67 5.4,-22.24 7.7,-4.67 17.6,-2.2 22.3,5.53" /></g><g
         transform="scale(1.09066)"
         id="g224"><path
           id="path226"
           style="fill:#985c47;fill-opacity:1;fill-rule:nonzero;stroke:none"
           d="m 16299.7,7372.86 c 0,0.36 0.3,4.95 0.3,13.02 0,27.5 -3.3,95.81 -32.9,173.56 -29.4,77.66 -85.7,165.04 -190.8,228.03 -8.1,4.76 -18.4,2.2 -23.2,-5.87 -4.9,-7.98 -2.2,-18.34 5.8,-23.2 97.5,-58.58 149,-138.54 176.6,-210.97 27.5,-72.25 30.7,-136.7 30.7,-161.55 l -0.2,-8.25 v -2.57 c -0.7,-9.26 6.4,-17.33 15.8,-17.97 9.2,-0.65 17.3,6.51 17.9,15.77" /></g><g
         transform="scale(1.0325)"
         id="g228"><path
           id="path230"
           style="fill:#5f4c50;fill-opacity:1;fill-rule:nonzero;stroke:none"
           d="m 9743.91,15211.2 -4.94,5 c -24.89,25.2 -139.71,144.8 -247.53,309.2 -108.13,164.4 -208.12,373.5 -207.74,574.3 0,53.5 6.96,106.5 22.55,158.4 4.72,15.8 -4.2,32.4 -19.94,37.1 -15.77,4.8 -32.38,-4.2 -37.12,-19.9 -17.39,-57.9 -25.11,-116.9 -25.11,-175.6 0.41,-235.2 121.1,-466.4 239.81,-640.2 119.03,-173.7 237.41,-289.9 238.28,-290.8 11.72,-11.6 30.6,-11.4 42.13,0.4 11.52,11.7 11.33,30.6 -0.39,42.1" /></g><g
         transform="scale(1.05102)"
         id="g232"><path
           id="path234"
           style="fill:#5f4c50;fill-opacity:1;fill-rule:nonzero;stroke:none"
           d="m 10058,15013 -4,5.6 c -20,28.7 -111.62,164.1 -197.92,345.5 -86.39,181.4 -166.79,409.1 -166.6,619.7 0,95.5 16.37,187.2 55.09,270.5 6.76,14.7 0.48,32.1 -14.18,38.9 -14.65,6.8 -32.06,0.5 -38.91,-14.2 -43.1,-92.6 -60.51,-193.1 -60.51,-295.2 0.19,-240.3 95.62,-490.2 190,-681.3 94.48,-190.9 188.73,-322.7 189.33,-323.6 9.4,-13.1 27.7,-16.2 40.8,-6.8 13.2,9.4 16.2,27.7 6.9,40.9" /></g><g
         transform="scale(1.06095)"
         id="g236"><path
           id="path238"
           style="fill:#5f4c50;fill-opacity:1;fill-rule:nonzero;stroke:none"
           d="m 10540.3,14803.5 -2.9,5.6 c -29.6,57.1 -269.6,544 -269.1,1020.9 0,147.2 22.6,293.2 80.2,425.5 6.4,14.7 -0.4,31.8 -15.1,38.1 -14.6,6.4 -31.8,-0.3 -38.1,-15 -61.5,-141.6 -85.1,-295.5 -85.1,-448.6 0.6,-528.4 278,-1051.5 278.8,-1053.6 7.4,-14.2 25,-19.5 39.1,-12.1 14.2,7.5 19.6,25 12.2,39.2" /></g><g
         transform="scale(1.06138)"
         id="g240"><path
           id="path242"
           style="fill:#5f4c50;fill-opacity:1;fill-rule:nonzero;stroke:none"
           d="m 11129.2,14726.5 c 0.2,0.6 57.5,168.6 115.1,400.5 57.5,232.1 115.2,527.8 115.2,785.8 0,137 -16.1,263.5 -59.1,365.6 -6.3,14.7 -23.3,21.6 -38,15.4 -14.8,-6.3 -21.7,-23.3 -15.4,-38 38.5,-90.7 54.7,-210.7 54.6,-343 0.1,-249.5 -56.6,-542.3 -113.5,-771.8 -28.5,-114.8 -56.9,-213.8 -78.2,-284.2 -10.8,-35.1 -19.6,-63.1 -25.9,-82.2 -6.2,-19.1 -9.7,-29.3 -9.7,-29.3 -5,-15.2 3,-31.6 18.1,-36.8 15.1,-5.2 31.6,2.9 36.8,18" /></g><g
         transform="scale(1.04868)"
         id="g244"><path
           id="path246"
           style="fill:#5f4c50;fill-opacity:1;fill-rule:nonzero;stroke:none"
           d="m 11752.9,14901 c 0.5,0.7 121.5,174.3 242.8,409.7 121.2,235.8 243.7,532.2 244,784.8 0,63.4 -7.7,124.3 -25.9,180.6 -5,15.4 -21.5,23.9 -36.9,18.9 -15.4,-4.9 -23.9,-21.5 -19,-36.9 16,-49.3 23.2,-104 23.2,-162.6 0.5,-233.9 -117.9,-526.4 -237.4,-757.9 -59.8,-115.9 -119.6,-216.8 -164.4,-288.7 -22.5,-35.9 -41.1,-64.6 -54.1,-84.3 -13.1,-19.6 -20.3,-30 -20.3,-30 -9.3,-13.3 -6,-31.6 7.2,-40.9 13.4,-9.2 31.6,-6 40.8,7.3" /></g><g
         transform="scale(1.01366)"
         id="g248"><path
           id="path250"
           style="fill:#5f4c50;fill-opacity:1;fill-rule:nonzero;stroke:none"
           d="m 12707.6,15412.9 c 1,0.7 137.5,102.8 274.8,258.2 137,155.5 277.1,364 277.9,584.5 0,4.9 -0.1,9.6 -0.3,14.5 -0.4,16.7 -14.4,29.9 -31.1,29.4 -16.7,-0.4 -29.9,-14.4 -29.5,-31.1 l 0.2,-12.8 c 0.7,-193.4 -129.3,-394.1 -262.7,-544.4 -66.4,-75.1 -133,-137.8 -183.1,-181.5 -24.9,-21.9 -45.7,-39.1 -60.1,-50.7 -7.3,-5.8 -13,-10.3 -16.8,-13.2 l -5.6,-4.4 c -13.4,-10 -16.2,-29 -6.1,-42.5 10,-13.4 29,-16.1 42.4,-6" /></g><path
         id="path252"
         style="fill:#5f4c50;fill-opacity:1;fill-rule:nonzero;stroke:none"
         d="m 13223.3,15124.4 c 1.2,0.6 105,50.4 224.7,139.5 119.5,89.3 255.8,217.3 319,379 6.2,15.8 -1.6,33.6 -17.5,39.8 -15.8,6.1 -33.7,-1.7 -39.8,-17.5 -55.5,-143.7 -183.5,-266.6 -298.4,-352 -57.4,-42.7 -111.3,-76.3 -150.8,-99 -19.8,-11.3 -35.9,-20 -46.9,-25.8 -5.6,-2.9 -9.9,-5.1 -12.8,-6.5 l -4.1,-2.1 c -15.3,-7.3 -21.8,-25.7 -14.4,-41 7.3,-15.3 25.7,-21.8 41,-14.4" /><path
         id="path254"
         style="fill:#5f4c50;fill-opacity:1;fill-rule:nonzero;stroke:none"
         d="m 13437.3,14549.9 c 0.9,0.5 100.9,48.8 216.6,129.3 115.5,80.8 247.4,192.5 311.3,326.4 7.3,15.4 0.7,33.7 -14.7,41 -15.3,7.3 -33.7,0.7 -40.9,-14.7 -54.4,-116 -179.2,-224.9 -290.9,-302.2 -55.7,-38.8 -108,-70 -146.2,-91.5 -19.2,-10.8 -34.8,-19.1 -45.5,-24.6 -5.4,-2.8 -9.6,-4.9 -12.4,-6.3 l -4.1,-2.1 c -15.3,-7.3 -21.7,-25.8 -14.3,-41 7.4,-15.3 25.8,-21.7 41.1,-14.3" /><path
         id="path256"
         style="fill:#5f4c50;fill-opacity:1;fill-rule:nonzero;stroke:none"
         d="m 13524.8,13934.9 c 1.4,0.7 70.1,30.8 154.3,91.8 84.3,61 184.6,152.7 247.2,278.1 7.6,15.2 1.4,33.6 -13.8,41.2 -15.2,7.6 -33.7,1.4 -41.2,-13.8 -56,-112.4 -148.8,-198.4 -228.1,-255.7 -39.7,-28.6 -75.7,-50.1 -101.8,-64.3 -13,-7.2 -23.5,-12.5 -30.7,-15.9 l -8,-3.9 -2.6,-1.2 c -15.5,-6.8 -22.6,-24.9 -15.8,-40.5 6.9,-15.5 25,-22.6 40.5,-15.8" /><path
         id="path258"
         style="fill:#5f4c50;fill-opacity:1;fill-rule:nonzero;stroke:none"
         d="m 9776.88,15304.9 -4.89,1.7 c -24.76,8.8 -140.66,51.6 -264.8,121.5 -124.34,69.7 -255.94,167.9 -313.52,279.9 -7.85,15.1 -26.4,20.9 -41.48,13.1 -15.08,-7.8 -20.94,-26.4 -13.13,-41.4 73.44,-140.1 228.01,-245.6 363.56,-319.3 135.7,-73.4 253.43,-113.4 254.45,-113.7 16.09,-5.5 33.56,3.1 39.02,19.2 5.47,16 -3.12,33.5 -19.21,39" /><path
         id="path260"
         style="fill:#5f4c50;fill-opacity:1;fill-rule:nonzero;stroke:none"
         d="m 9578.32,14740.5 -5.86,2.2 c -29.53,11.1 -166.33,64.6 -298.48,148 -66.05,41.6 -130.85,90.7 -180.31,144.6 -49.65,53.9 -83.2,112 -91.05,171.3 -2.27,16.9 -17.74,28.7 -34.57,26.5 -16.84,-2.3 -28.67,-17.8 -26.41,-34.6 11.13,-82.1 57.62,-154.2 117.89,-216.7 90.74,-93.6 214.65,-167.5 316.25,-218.9 101.6,-51.5 180.9,-80 181.68,-80.3 16.02,-5.7 33.63,2.6 39.38,18.5 5.74,16.1 -2.54,33.7 -18.52,39.4" /><path
         id="path262"
         style="fill:#5f4c50;fill-opacity:1;fill-rule:nonzero;stroke:none"
         d="m 9486.48,14121.8 -3.82,1.4 c -20.32,7.6 -118.17,46.6 -221.25,124.5 -103.21,77.8 -210.75,193.5 -255.43,354.3 -4.57,16.4 -21.53,26 -37.89,21.4 -16.37,-4.6 -25.94,-21.5 -21.37,-37.8 53.08,-190.4 183.75,-320.7 299.53,-403.1 116.02,-82.5 218.2,-118.2 219.96,-118.8 16.06,-5.6 33.59,2.9 39.18,18.9 5.59,16 -2.85,33.6 -18.91,39.2" /></g></g></svg>